<svg id="visual" viewBox="0 0 50 50" width="50" height="50" xmlns="http://www.w3.org/2000/svg" xmlns:xlink="http://www.w3.org/1999/xlink" version="1.1"><g transform="translate(24.40233870537092 23.734248871902857)"><path d="M5.3 -8.8C7.5 -7.9 10.2 -7.7 11.6 -6.4C13 -5 13 -2.5 13.5 0.3C14.1 3.1 15.2 6.2 14.2 8.3C13.2 10.3 10.1 11.2 7.4 12C4.7 12.7 2.3 13.4 -0.2 13.7C-2.7 14 -5.3 13.9 -6.8 12.4C-8.2 10.9 -8.4 8 -9.6 5.6C-10.8 3.3 -12.9 1.7 -13.3 -0.2C-13.8 -2.2 -12.5 -4.3 -10.8 -5.6C-9 -6.9 -6.8 -7.4 -4.9 -8.4C-3 -9.5 -1.5 -11.3 0 -11.3C1.6 -11.4 3.1 -9.8 5.3 -8.8" fill="#FF784F"></path></g></svg>