<svg width="550" height="416" viewBox="0 0 550 416" fill="none" xmlns="http://www.w3.org/2000/svg">
<g clip-path="url(#clip0_6_209)">
<path d="M316.949 20.2069C321.667 30.2464 311.67 33.0901 300.219 38.4711C288.767 43.8522 280.198 49.7329 275.48 39.6934C270.763 29.6539 266.935 9.72729 283.135 2.11486C299.893 -5.75981 312.231 10.1674 316.949 20.2069Z" fill="#2F2E41"/>
<path d="M293.585 39.9506C302.099 39.9506 309.001 33.0487 309.001 24.5347C309.001 16.0207 302.099 9.11871 293.585 9.11871C285.071 9.11871 278.169 16.0207 278.169 24.5347C278.169 33.0487 285.071 39.9506 293.585 39.9506Z" fill="#FFB8B8"/>
<path d="M369.959 92.9013C369.425 92.2046 368.892 91.5204 368.352 90.8551C367.655 89.9889 366.954 89.15 366.249 88.3382C358.259 79.1179 349.761 73.312 340.402 72.6906H340.39L340.252 72.6781L321.604 90.8551L315.264 97.0313L315.403 97.3702L318.823 105.888H378.759C376.058 101.406 373.12 97.0708 369.959 92.9013Z" fill="#3F4D79"/>
<path d="M276.822 30.7411L282.34 28.1479L281.571 20.1871L285.261 26.7752L287.899 25.5358L287.45 20.892L289.603 24.735L309.201 15.5256C307.361 11.6084 304.039 8.58289 299.968 7.11461C295.896 5.64633 291.408 5.85555 287.491 7.69625L284.651 9.03095C280.734 10.8717 277.708 14.1931 276.24 18.2645C274.772 22.3359 274.981 26.8239 276.822 30.7411Z" fill="#2F2E41"/>
<path d="M404.543 310.566H82.6549C79.9092 310.563 77.2768 309.471 75.3353 307.529C73.3937 305.588 72.3016 302.955 72.2985 300.21V106.794C72.3008 104.782 73.1008 102.854 74.5232 101.431C75.9455 100.009 77.874 99.2089 79.8856 99.2065H407.181C409.227 99.2089 411.189 100.023 412.636 101.47C414.083 102.917 414.897 104.879 414.899 106.925V300.21C414.896 302.955 413.804 305.588 411.862 307.529C409.921 309.471 407.288 310.563 404.543 310.566Z" fill="#F2F2F2"/>
<path d="M92.6975 300.21H394.5C397.164 300.21 399.718 299.151 401.601 297.268C403.485 295.385 404.543 292.83 404.543 290.167V126.004C404.543 123.341 403.485 120.786 401.601 118.903C399.718 117.02 397.164 115.961 394.5 115.961H92.6975C90.034 115.961 87.4796 117.02 85.5963 118.903C83.713 120.786 82.6549 123.341 82.6549 126.004V290.167C82.6549 292.83 83.713 295.385 85.5963 297.268C87.4796 299.151 90.034 300.21 92.6975 300.21Z" fill="white"/>
<path d="M414.755 106.202H72.1532V100.929C72.1572 98.1741 73.2538 95.5333 75.2023 93.5859C77.1509 91.6385 79.7924 90.5436 82.5473 90.5413H404.361C407.116 90.5436 409.757 91.6385 411.706 93.5859C413.654 95.5333 414.751 98.1741 414.755 100.929V106.202Z" fill="#FA784F"/>
<path d="M91.0428 101.076C92.5277 101.076 93.7314 99.8718 93.7314 98.387C93.7314 96.9022 92.5277 95.6985 91.0428 95.6985C89.558 95.6985 88.3543 96.9022 88.3543 98.387C88.3543 99.8718 89.558 101.076 91.0428 101.076Z" fill="white"/>
<path d="M101.248 101.076C102.733 101.076 103.936 99.8718 103.936 98.387C103.936 96.9022 102.733 95.6985 101.248 95.6985C99.763 95.6985 98.5593 96.9022 98.5593 98.387C98.5593 99.8718 99.763 101.076 101.248 101.076Z" fill="white"/>
<path d="M111.453 101.076C112.938 101.076 114.141 99.8718 114.141 98.387C114.141 96.9022 112.938 95.6985 111.453 95.6985C109.968 95.6985 108.764 96.9022 108.764 98.387C108.764 99.8718 109.968 101.076 111.453 101.076Z" fill="white"/>
<path d="M253.016 264.608H226.027C224.446 264.606 222.93 263.977 221.812 262.86C220.694 261.742 220.066 260.226 220.064 258.645V231.656C220.066 230.075 220.694 228.559 221.812 227.442C222.93 226.324 224.446 225.695 226.027 225.693H253.016C254.597 225.695 256.112 226.324 257.23 227.442C258.348 228.559 258.977 230.075 258.979 231.656V258.645C258.977 260.226 258.348 261.742 257.23 262.86C256.112 263.977 254.597 264.606 253.016 264.608ZM226.027 226.948C224.778 226.95 223.582 227.446 222.699 228.329C221.817 229.211 221.32 230.408 221.319 231.656V258.645C221.32 259.893 221.817 261.09 222.699 261.972C223.582 262.855 224.778 263.351 226.027 263.353H253.016C254.264 263.351 255.46 262.855 256.343 261.972C257.226 261.09 257.722 259.893 257.723 258.645V231.656C257.722 230.408 257.226 229.211 256.343 228.329C255.46 227.446 254.264 226.95 253.016 226.948H226.027Z" fill="#CCCCCC"/>
<path d="M247.681 257.076H231.362C230.862 257.076 230.384 256.877 230.031 256.524C229.678 256.171 229.479 255.692 229.479 255.193V235.108C229.479 234.609 229.678 234.13 230.031 233.777C230.384 233.424 230.862 233.226 231.362 233.225H243.186C243.615 233.225 244.031 233.372 244.366 233.64L248.86 237.252C249.08 237.428 249.258 237.651 249.38 237.905C249.501 238.159 249.564 238.438 249.564 238.719V255.193C249.563 255.692 249.365 256.171 249.012 256.524C248.659 256.877 248.18 257.076 247.681 257.076ZM231.362 234.48C231.195 234.481 231.036 234.547 230.918 234.664C230.8 234.782 230.734 234.942 230.734 235.108V255.193C230.734 255.36 230.8 255.519 230.918 255.637C231.036 255.754 231.195 255.821 231.362 255.821H247.681C247.847 255.821 248.007 255.754 248.124 255.637C248.242 255.519 248.308 255.36 248.308 255.193V238.719C248.309 238.626 248.288 238.533 248.247 238.448C248.206 238.363 248.147 238.289 248.074 238.23L243.579 234.619C243.468 234.529 243.329 234.48 243.186 234.48H231.362Z" fill="#CCCCCC"/>
<path d="M244.542 242.012H234.5C234.333 242.012 234.174 241.946 234.056 241.828C233.938 241.711 233.872 241.551 233.872 241.385C233.872 241.218 233.938 241.058 234.056 240.941C234.174 240.823 234.333 240.757 234.5 240.757H244.542C244.709 240.757 244.869 240.823 244.986 240.941C245.104 241.058 245.17 241.218 245.17 241.385C245.17 241.551 245.104 241.711 244.986 241.828C244.869 241.946 244.709 242.012 244.542 242.012Z" fill="#CCCCCC"/>
<path d="M244.542 245.778H234.5C234.333 245.778 234.174 245.712 234.056 245.594C233.938 245.477 233.872 245.317 233.872 245.151C233.872 244.984 233.938 244.824 234.056 244.707C234.174 244.589 234.333 244.523 234.5 244.523H244.542C244.709 244.523 244.869 244.589 244.986 244.707C245.104 244.824 245.17 244.984 245.17 245.151C245.17 245.317 245.104 245.477 244.986 245.594C244.869 245.712 244.709 245.778 244.542 245.778Z" fill="#CCCCCC"/>
<path d="M244.542 249.544H234.5C234.333 249.544 234.174 249.478 234.056 249.36C233.938 249.243 233.872 249.083 233.872 248.917C233.872 248.75 233.938 248.59 234.056 248.473C234.174 248.355 234.333 248.289 234.5 248.289H244.542C244.709 248.289 244.869 248.355 244.986 248.473C245.104 248.59 245.17 248.75 245.17 248.917C245.17 249.083 245.104 249.243 244.986 249.36C244.869 249.478 244.709 249.544 244.542 249.544Z" fill="#CCCCCC"/>
<path d="M317.037 264.608H290.048C288.467 264.606 286.951 263.977 285.833 262.86C284.716 261.742 284.087 260.226 284.085 258.645V231.656C284.087 230.075 284.716 228.559 285.833 227.442C286.951 226.324 288.467 225.695 290.048 225.693H317.037C318.618 225.695 320.134 226.324 321.251 227.442C322.369 228.559 322.998 230.075 323 231.656V258.645C322.998 260.226 322.369 261.742 321.251 262.86C320.134 263.977 318.618 264.606 317.037 264.608ZM290.048 226.948C288.8 226.95 287.603 227.446 286.721 228.329C285.838 229.211 285.342 230.408 285.34 231.656V258.645C285.342 259.893 285.838 261.09 286.721 261.972C287.603 262.855 288.8 263.351 290.048 263.353H317.037C318.285 263.351 319.482 262.855 320.364 261.972C321.247 261.09 321.743 259.893 321.745 258.645V231.656C321.743 230.408 321.247 229.211 320.364 228.329C319.482 227.446 318.285 226.95 317.037 226.948H290.048Z" fill="#CCCCCC"/>
<path d="M312.33 252.055H294.755C294.256 252.054 293.777 251.856 293.424 251.503C293.071 251.15 292.873 250.671 292.872 250.172V240.129C292.873 239.63 293.071 239.151 293.424 238.798C293.777 238.445 294.256 238.247 294.755 238.246H312.33C312.829 238.247 313.308 238.445 313.661 238.798C314.014 239.151 314.212 239.63 314.213 240.129V250.172C314.212 250.671 314.014 251.15 313.661 251.503C313.308 251.856 312.829 252.054 312.33 252.055ZM294.755 239.502C294.589 239.502 294.429 239.568 294.312 239.686C294.194 239.803 294.128 239.963 294.128 240.129V250.172C294.128 250.338 294.194 250.498 294.312 250.615C294.429 250.733 294.589 250.799 294.755 250.8H312.33C312.496 250.799 312.656 250.733 312.773 250.615C312.891 250.498 312.957 250.338 312.957 250.172V240.129C312.957 239.963 312.891 239.803 312.773 239.686C312.656 239.568 312.496 239.502 312.33 239.502H294.755Z" fill="#CCCCCC"/>
<path d="M303.542 246.806C303.19 246.807 302.844 246.708 302.545 246.522L293.167 240.662C293.026 240.573 292.926 240.432 292.889 240.27C292.852 240.108 292.88 239.938 292.969 239.797C293.057 239.656 293.197 239.556 293.359 239.518C293.521 239.481 293.692 239.509 293.833 239.597L303.21 245.458C303.31 245.52 303.425 245.552 303.543 245.552C303.66 245.552 303.775 245.52 303.875 245.458L313.252 239.597C313.393 239.509 313.564 239.481 313.726 239.518C313.888 239.556 314.028 239.656 314.116 239.797C314.204 239.938 314.233 240.108 314.196 240.27C314.159 240.432 314.059 240.573 313.918 240.662L304.541 246.522C304.241 246.709 303.895 246.807 303.542 246.806Z" fill="#CCCCCC"/>
<path d="M188.995 264.608H162.005C160.424 264.606 158.909 263.977 157.791 262.86C156.673 261.742 156.044 260.226 156.042 258.645V231.656C156.044 230.075 156.673 228.559 157.791 227.442C158.909 226.324 160.424 225.695 162.005 225.693H188.995C190.575 225.695 192.091 226.324 193.209 227.442C194.327 228.559 194.956 230.075 194.957 231.656V258.645C194.956 260.226 194.327 261.742 193.209 262.86C192.091 263.977 190.575 264.606 188.995 264.608ZM162.005 226.948C160.757 226.95 159.561 227.446 158.678 228.329C157.796 229.211 157.299 230.408 157.298 231.656V258.645C157.299 259.893 157.796 261.09 158.678 261.972C159.561 262.855 160.757 263.351 162.005 263.353H188.995C190.243 263.351 191.439 262.855 192.322 261.972C193.204 261.09 193.701 259.893 193.702 258.645V231.656C193.701 230.408 193.204 229.211 192.322 228.329C191.439 227.446 190.243 226.95 188.995 226.948H162.005Z" fill="#CCCCCC"/>
<path d="M184.287 252.055H166.713C166.213 252.054 165.735 251.856 165.382 251.503C165.029 251.15 164.83 250.671 164.83 250.172V240.129C164.83 239.63 165.029 239.151 165.382 238.798C165.735 238.445 166.213 238.247 166.713 238.246H184.287C184.786 238.247 185.265 238.445 185.618 238.798C185.971 239.151 186.17 239.63 186.17 240.129V250.172C186.17 250.671 185.971 251.15 185.618 251.503C185.265 251.856 184.786 252.054 184.287 252.055ZM166.713 239.502C166.546 239.502 166.387 239.568 166.269 239.686C166.151 239.803 166.085 239.963 166.085 240.129V250.172C166.085 250.338 166.151 250.498 166.269 250.615C166.387 250.733 166.546 250.799 166.713 250.8H184.287C184.454 250.799 184.613 250.733 184.731 250.615C184.848 250.498 184.915 250.338 184.915 250.172V240.129C184.915 239.963 184.848 239.803 184.731 239.686C184.613 239.568 184.454 239.502 184.287 239.502H166.713Z" fill="#CCCCCC"/>
<path d="M181.502 252.055H168.871C168.65 252.055 168.434 251.997 168.243 251.887C168.052 251.777 167.893 251.618 167.783 251.427C167.673 251.236 167.615 251.02 167.615 250.8C167.615 250.579 167.673 250.363 167.784 250.172L171.588 243.581C171.698 243.391 171.857 243.232 172.048 243.122C172.238 243.012 172.455 242.954 172.675 242.954C172.896 242.954 173.112 243.012 173.303 243.122C173.494 243.232 173.652 243.391 173.763 243.581L176.22 247.838L177.643 245.372C177.754 245.181 177.912 245.023 178.103 244.912C178.294 244.802 178.51 244.744 178.731 244.744C178.951 244.744 179.167 244.802 179.358 244.912C179.549 245.023 179.708 245.181 179.818 245.372L182.589 250.172C182.699 250.363 182.757 250.579 182.757 250.8C182.757 251.02 182.699 251.236 182.589 251.427C182.479 251.618 182.32 251.777 182.129 251.887C181.938 251.997 181.722 252.055 181.502 252.055H181.502ZM181.502 250.799L178.731 245.999L176.764 249.407C176.708 249.502 176.629 249.582 176.534 249.637C176.438 249.692 176.33 249.721 176.22 249.721C176.11 249.721 176.001 249.692 175.906 249.637C175.811 249.582 175.731 249.502 175.676 249.407L172.676 244.209L168.871 250.799H181.502Z" fill="#CCCCCC"/>
<path d="M182.404 243.267C183.097 243.267 183.659 242.705 183.659 242.012C183.659 241.319 183.097 240.757 182.404 240.757C181.711 240.757 181.149 241.319 181.149 242.012C181.149 242.705 181.711 243.267 182.404 243.267Z" fill="#CCCCCC"/>
<path d="M482.56 406.817L474.865 406.817L471.204 377.136L482.561 377.137L482.56 406.817Z" fill="#FFB8B8"/>
<path d="M484.522 414.276L459.711 414.275V413.962C459.711 412.693 459.961 411.438 460.446 410.266C460.931 409.094 461.643 408.03 462.539 407.133C463.436 406.236 464.501 405.525 465.672 405.039C466.844 404.554 468.1 404.304 469.368 404.304H469.369L484.523 404.305L484.522 414.276Z" fill="#2F2E41"/>
<path d="M513.943 406.817L506.248 406.817L502.587 377.136L513.944 377.137L513.943 406.817Z" fill="#FFB8B8"/>
<path d="M515.905 414.276L491.094 414.275V413.962C491.094 412.693 491.343 411.438 491.829 410.266C492.314 409.094 493.026 408.03 493.922 407.133C494.819 406.236 495.884 405.525 497.055 405.039C498.227 404.554 499.483 404.304 500.751 404.304H500.752L515.906 404.305L515.905 414.276Z" fill="#2F2E41"/>
<path d="M511.636 393.95L504.51 391.782C503.978 391.622 503.506 391.307 503.153 390.879C502.8 390.451 502.58 389.929 502.522 389.377L495.878 326.406C495.873 326.33 495.839 326.259 495.783 326.206C495.728 326.154 495.654 326.125 495.578 326.125C495.501 326.118 495.425 326.141 495.365 326.189C495.306 326.237 495.267 326.306 495.257 326.382L484.128 387.39C484.061 387.76 483.92 388.113 483.714 388.428C483.508 388.743 483.241 389.014 482.93 389.224C482.618 389.435 482.267 389.581 481.898 389.654C481.529 389.727 481.148 389.725 480.78 389.649L471.672 387.773C471.004 387.633 470.409 387.257 469.996 386.714C469.583 386.171 469.38 385.497 469.424 384.816L476.193 284.822L522.099 279.869L515.277 391.42C515.233 392.137 514.918 392.811 514.395 393.304C513.872 393.797 513.181 394.072 512.463 394.074C512.183 394.074 511.904 394.032 511.636 393.95Z" fill="#2F2E41"/>
<path d="M511.593 197.743C520.107 197.743 527.009 190.841 527.009 182.327C527.009 173.813 520.107 166.911 511.593 166.911C503.079 166.911 496.177 173.813 496.177 182.327C496.177 190.841 503.079 197.743 511.593 197.743Z" fill="#FFB8B8"/>
<path d="M476.123 285.409L486.076 222.737C486.605 219.404 487.838 216.223 489.693 213.404C491.547 210.586 493.98 208.194 496.831 206.389C499.681 204.584 502.884 203.407 506.225 202.935C509.565 202.464 512.968 202.71 516.207 203.656C521.869 205.294 526.718 208.984 529.805 214.005C532.893 219.026 533.997 225.018 532.903 230.81L522.49 286.78L476.123 285.409Z" fill="#3F4D79"/>
<path d="M515.849 296.623C516.619 296.114 517.268 295.443 517.75 294.657C518.233 293.87 518.537 292.988 518.642 292.071C518.746 291.154 518.648 290.226 518.355 289.351C518.062 288.476 517.581 287.676 516.945 287.007L527.236 267.078L515.647 268.315L507.651 287.05C506.598 288.193 506.001 289.682 505.973 291.235C505.945 292.788 506.487 294.298 507.498 295.478C508.508 296.658 509.916 297.426 511.456 297.637C512.995 297.848 514.558 297.487 515.849 296.623V296.623Z" fill="#FFB8B8"/>
<path d="M518.052 283.492C517.483 283.411 516.952 283.159 516.529 282.769L512.592 279.131C512.166 278.736 511.872 278.22 511.75 277.653C511.627 277.085 511.682 276.494 511.906 275.959L519.776 257.306L518.659 220.45C518.82 219.265 519.212 218.124 519.814 217.091C520.416 216.058 521.216 215.153 522.167 214.429C523.119 213.706 524.204 213.176 525.36 212.872C526.516 212.568 527.721 212.494 528.906 212.656C530.09 212.818 531.231 213.211 532.264 213.814C533.296 214.417 534.2 215.217 534.923 216.169C535.646 217.122 536.174 218.207 536.477 219.364C536.78 220.52 536.853 221.725 536.69 222.909L538.599 246.078C539.179 253.109 537.186 260.113 532.989 265.784L520.717 282.375C520.481 282.694 520.18 282.959 519.835 283.154C519.489 283.349 519.107 283.47 518.712 283.507C518.492 283.528 518.271 283.523 518.052 283.492Z" fill="#3F4D79"/>
<path d="M422.817 173.928C422.985 174.835 423.35 175.694 423.886 176.445C424.422 177.196 425.116 177.821 425.92 178.274C426.723 178.728 427.616 179 428.536 179.071C429.456 179.143 430.381 179.011 431.244 178.686L445.584 195.933L448.963 184.779L434.828 170.111C434.187 168.696 433.048 167.566 431.629 166.934C430.21 166.303 428.608 166.214 427.127 166.684C425.647 167.155 424.39 168.152 423.596 169.487C422.801 170.822 422.524 172.402 422.817 173.928Z" fill="#FFB8B8"/>
<path d="M434.05 181.077C434.345 180.584 434.785 180.193 435.309 179.956L440.194 177.748C440.724 177.511 441.313 177.441 441.884 177.55C442.454 177.658 442.977 177.939 443.382 178.354L457.491 192.873L491.866 206.215C492.894 206.825 493.793 207.631 494.51 208.588C495.226 209.545 495.748 210.634 496.043 211.793C496.339 212.952 496.404 214.157 496.233 215.341C496.062 216.524 495.66 217.663 495.05 218.691C494.439 219.719 493.631 220.616 492.673 221.332C491.716 222.048 490.626 222.568 489.467 222.862C488.308 223.156 487.102 223.219 485.919 223.047C484.736 222.876 483.598 222.472 482.571 221.86L460.492 214.585C453.79 212.377 448.119 207.811 444.532 201.735L434.039 183.966C433.838 183.624 433.71 183.244 433.665 182.85C433.62 182.455 433.659 182.056 433.778 181.678C433.845 181.467 433.936 181.266 434.05 181.077Z" fill="#3F4D79"/>
<path opacity="0.1" d="M524.097 235.781L523.469 255.867L511.906 275.959L521.561 253.568L524.097 235.781Z" fill="black"/>
<path d="M509.826 185.224C508.858 185.35 507.877 185.12 507.066 184.577C506.254 184.034 505.667 183.215 505.414 182.273C505.169 181.187 504.634 180.189 503.866 179.385C503.097 178.58 502.124 178.001 501.051 177.707C498.223 177.061 494.767 178.392 492.695 176.25C492.251 175.76 491.93 175.173 491.758 174.535C491.586 173.898 491.568 173.228 491.706 172.583C492.087 170.5 493.577 168.928 495.198 167.67C498.608 165.034 502.736 163.492 507.039 163.244C509.266 163.18 511.495 163.291 513.705 163.576C516.019 163.722 518.308 164.14 520.524 164.822C523.049 165.775 525.292 167.348 527.048 169.398C528.803 171.447 530.014 173.906 530.568 176.547C531.074 179.196 530.996 181.924 530.34 184.539C529.683 187.155 528.463 189.597 526.766 191.692C524.734 194.223 522.113 196.218 519.133 197.504C518.423 197.839 517.61 197.88 516.87 197.618C515.014 196.88 515.317 194.581 516.163 193.048C517.069 191.406 518.463 189.817 517.734 187.82C517.369 186.894 516.668 186.139 515.771 185.707C513.926 184.766 511.862 184.989 509.878 185.218L509.826 185.224Z" fill="#2F2E41"/>
<path d="M417.665 193.93H226.857C224.111 193.926 221.479 192.834 219.537 190.893C217.596 188.951 216.504 186.319 216.501 183.573V142.775C216.504 140.03 217.596 137.397 219.537 135.456C221.479 133.514 224.111 132.422 226.857 132.419H417.665C420.411 132.422 423.043 133.514 424.985 135.456C426.926 137.397 428.019 140.03 428.022 142.775V183.573C428.019 186.319 426.926 188.951 424.985 190.893C423.043 192.834 420.411 193.926 417.665 193.93Z" fill="white"/>
<path d="M417.665 194.243H226.857C224.028 194.24 221.316 193.115 219.315 191.115C217.315 189.114 216.19 186.402 216.187 183.573V142.775C216.19 139.946 217.315 137.234 219.315 135.234C221.316 133.234 224.028 132.108 226.857 132.105H417.665C420.494 132.108 423.206 133.234 425.207 135.234C427.207 137.234 428.332 139.946 428.335 142.775V183.573C428.332 186.402 427.207 189.114 425.207 191.115C423.206 193.115 420.494 194.24 417.665 194.243ZM226.857 133.36C224.361 133.363 221.968 134.356 220.203 136.121C218.438 137.886 217.445 140.279 217.442 142.775V183.573C217.445 186.069 218.438 188.462 220.203 190.227C221.968 191.992 224.361 192.985 226.857 192.988H417.665C420.161 192.985 422.554 191.992 424.319 190.227C426.084 188.462 427.077 186.069 427.08 183.573V142.775C427.077 140.279 426.084 137.886 424.319 136.121C422.554 134.356 420.161 133.363 417.665 133.36H226.857Z" fill="#FA784F"/>
<path d="M394.442 183.887H250.08C247.334 183.884 244.702 182.792 242.761 180.85C240.819 178.909 239.727 176.276 239.724 173.531V152.19C239.727 149.445 240.819 146.812 242.761 144.871C244.702 142.929 247.334 141.837 250.08 141.834H394.442C397.188 141.837 399.82 142.929 401.761 144.871C403.703 146.812 404.795 149.445 404.798 152.19V173.531C404.795 176.276 403.703 178.909 401.761 180.85C399.82 182.792 397.188 183.884 394.442 183.887Z" fill="#F2F2F2"/>
<path d="M281.146 172.385C287.986 172.385 293.531 166.84 293.531 160C293.531 153.16 287.986 147.615 281.146 147.615C274.306 147.615 268.761 153.16 268.761 160C268.761 166.84 274.306 172.385 281.146 172.385Z" fill="#FF6584"/>
<path d="M385.471 182.637L367.989 167.975L350.809 153.566C350.355 153.186 349.782 152.978 349.191 152.98C348.599 152.981 348.026 153.191 347.575 153.573L330.45 168.048L326.267 171.583L319.96 166.294L300.793 150.219C300.34 149.839 299.767 149.631 299.175 149.632C298.584 149.633 298.011 149.843 297.559 150.225L278.455 166.374L259.049 182.777C258.951 182.86 258.881 182.971 258.848 183.096C258.815 183.22 258.821 183.352 258.865 183.472C258.91 183.593 258.99 183.698 259.096 183.771C259.201 183.845 259.327 183.884 259.456 183.884L299.241 183.807L311.834 183.783L311.711 183.887L349.25 183.815L385.069 183.746C385.197 183.746 385.323 183.706 385.428 183.632C385.534 183.558 385.614 183.453 385.658 183.332C385.701 183.211 385.707 183.08 385.674 182.955C385.64 182.831 385.569 182.72 385.471 182.637Z" fill="#3F4D79"/>
<path d="M549.372 415.18H428.862C428.695 415.18 428.536 415.113 428.418 414.996C428.3 414.878 428.234 414.718 428.234 414.552C428.234 414.385 428.3 414.226 428.418 414.108C428.536 413.99 428.695 413.924 428.862 413.924H549.372C549.539 413.924 549.698 413.99 549.816 414.108C549.934 414.226 550 414.385 550 414.552C550 414.718 549.934 414.878 549.816 414.996C549.698 415.113 549.539 415.18 549.372 415.18Z" fill="#CCCCCC"/>
<path d="M379.141 82.796C378.64 81.9813 377.978 81.2774 377.196 80.727C376.413 80.1767 375.527 79.7915 374.591 79.5949C374.248 79.5228 373.899 79.4787 373.549 79.4631L325.728 36.7069C324.788 35.7415 323.535 35.1428 322.194 35.0185C321.929 34.9881 321.663 34.9797 321.397 34.9934C320.293 35.0436 319.229 35.4141 318.332 36.0598C317.436 36.7054 316.748 37.5982 316.351 38.6289C315.954 39.6597 315.866 40.7837 316.098 41.8636C316.33 42.9435 316.871 43.9325 317.656 44.7096L335.965 60.671L366.029 86.8757C366.054 87.3693 366.128 87.8592 366.249 88.3382C366.609 89.7259 367.382 90.9714 368.466 91.9096C369.55 92.8479 370.894 93.4345 372.319 93.5917C373.618 93.7435 374.934 93.526 376.116 92.964C377.053 92.5258 377.884 91.8899 378.551 91.0999C378.62 91.0183 378.683 90.943 378.746 90.8551C379.624 89.7114 380.132 88.3272 380.202 86.8873C380.273 85.4473 379.903 84.0201 379.141 82.796H379.141Z" fill="#FFB8B8"/>
<path d="M297.345 124.002L296.899 105.888L296.523 90.8551L296.265 80.3355L295.757 59.8299C295.656 58.732 295.238 57.6872 294.554 56.8229C293.869 55.9586 292.948 55.3123 291.902 54.9629C290.857 54.6135 289.732 54.576 288.665 54.8551C287.599 55.1343 286.637 55.7179 285.896 56.5347C285.722 56.7213 285.564 56.923 285.426 57.1372C284.653 58.244 284.305 59.5922 284.446 60.9346L285.564 90.8551L286.122 105.888L286.838 125.063C286.631 125.344 286.445 125.64 286.279 125.948C285.833 126.794 285.563 127.722 285.487 128.676C285.41 129.63 285.528 130.589 285.834 131.496C286.153 132.447 286.669 133.32 287.35 134.056C288.03 134.793 288.859 135.377 289.782 135.77C290.705 136.164 291.7 136.357 292.703 136.337C293.706 136.318 294.693 136.086 295.6 135.657C296.653 135.159 297.567 134.41 298.262 133.475C298.957 132.539 299.41 131.447 299.583 130.295C299.755 129.143 299.641 127.966 299.251 126.869C298.861 125.771 298.206 124.786 297.345 124.002H297.345Z" fill="#FFB8B8"/>
<path d="M340.402 72.6907L335.965 60.671L328.784 41.201C328.266 39.7844 327.436 38.5026 326.355 37.4508C325.273 36.399 323.969 35.6042 322.539 35.1253C322.426 35.0876 322.307 35.05 322.194 35.0185C320.808 34.598 319.348 34.4823 317.914 34.6795C316.479 34.8767 315.104 35.3821 313.884 36.1609L289.7 51.5009C287.485 52.9025 285.902 55.1102 285.285 57.6576C284.667 60.2049 285.065 62.8925 286.392 65.1525C289.417 70.382 292.712 75.4499 296.265 80.3355C299.084 84.1705 304.331 84.5785 305.241 90.8551H323.073L341.124 74.6489L340.402 72.6907Z" fill="#CCCCCC"/>
<path d="M63.4969 219.589C71.5293 219.589 78.0408 213.078 78.0408 205.045C78.0408 197.013 71.5293 190.501 63.4969 190.501C55.4645 190.501 48.953 197.013 48.953 205.045C48.953 213.078 55.4645 219.589 63.4969 219.589Z" fill="#A0616A"/>
<path d="M99.2024 195.034C99.3457 195.148 99.4846 195.269 99.6191 195.397C100.287 196.026 100.815 196.789 101.167 197.637C101.52 198.484 101.689 199.397 101.665 200.314C101.64 201.232 101.422 202.134 101.024 202.961C100.626 203.789 100.058 204.523 99.3573 205.115C99.1939 205.252 99.0234 205.381 98.8465 205.5L99.8309 238.731C99.8589 239.819 99.5354 240.887 98.9085 241.777C98.2815 242.666 97.3845 243.33 96.3505 243.669L96.2905 243.682L69.3083 246.556C68.5747 246.634 67.8329 246.565 67.1258 246.355C66.4187 246.145 65.7603 245.797 65.1885 245.331C64.6167 244.864 64.1429 244.29 63.7945 243.639C63.4461 242.989 63.23 242.276 63.1586 241.542C63.0872 240.808 63.162 240.067 63.3786 239.362C63.5952 238.656 63.9494 238.001 64.4207 237.434C64.892 236.866 65.471 236.397 66.1244 236.055C66.7777 235.712 67.4925 235.503 68.2273 235.438L87.4615 233.744L90.7878 204.965C90.5703 204.773 90.3665 204.565 90.178 204.344C89.1351 203.109 88.5881 201.532 88.6433 199.917C88.6984 198.302 89.3518 196.765 90.4765 195.604C91.6012 194.444 93.117 193.743 94.7295 193.638C96.3421 193.532 97.9362 194.03 99.2024 195.034H99.2024Z" fill="#A0616A"/>
<path d="M87.4505 407.46H94.7106L98.164 379.458H87.4492L87.4505 407.46Z" fill="#A0616A"/>
<path d="M85.599 405.09L99.8958 405.089H99.8964C101.093 405.089 102.278 405.325 103.383 405.783C104.489 406.241 105.493 406.912 106.339 407.758C107.185 408.604 107.856 409.608 108.314 410.714C108.772 411.819 109.008 413.004 109.008 414.2V414.496L85.5994 414.497L85.599 405.09Z" fill="#2F2E41"/>
<path d="M15.2935 397.423L21.5312 401.136L38.8251 378.844L29.6186 373.362L15.2935 397.423Z" fill="#A0616A"/>
<path d="M14.915 394.439L27.1994 401.753L27.1999 401.753C28.2279 402.365 29.1253 403.174 29.8409 404.133C30.5564 405.092 31.0761 406.182 31.3702 407.342C31.6643 408.502 31.727 409.708 31.5549 410.892C31.3827 412.076 30.9791 413.215 30.3669 414.243L30.2154 414.497L10.1024 402.522L14.915 394.439Z" fill="#2F2E41"/>
<path d="M96.4235 397.57H88.2942C87.636 397.571 87.0007 397.328 86.5113 396.888C86.0219 396.447 85.7131 395.841 85.6446 395.187L77.4491 318.149C77.4284 317.956 77.3445 317.774 77.2103 317.632C77.0761 317.491 76.8991 317.397 76.7065 317.366C76.514 317.336 76.3166 317.369 76.1449 317.461C75.9731 317.554 75.8366 317.7 75.7562 317.878L60.9714 350.616L34.7958 393.298C34.457 393.845 33.9325 394.252 33.3183 394.444C32.704 394.636 32.0412 394.6 31.4511 394.344L20.9941 389.743C20.6484 389.591 20.3389 389.367 20.0863 389.086C19.8337 388.805 19.6437 388.473 19.5288 388.114C19.414 387.754 19.377 387.373 19.4202 386.998C19.4635 386.623 19.586 386.261 19.7797 385.937L43.8424 345.646L51.2222 311.699C48.9011 296.977 58.8514 275.09 58.9523 274.87L59.0016 274.763L86.4099 264.051L86.5473 264.219C97.3564 299.69 103.943 337.863 99.0796 395.128C99.0196 395.793 98.7143 396.411 98.2232 396.862C97.7321 397.314 97.0905 397.566 96.4235 397.57Z" fill="#2F2E41"/>
<path d="M57.8974 278.35L57.7697 278.082C57.7087 277.954 51.6142 265.1 46.9162 251.362C46.0133 248.705 45.672 245.89 45.9139 243.094C46.1557 240.299 46.9755 237.584 48.3213 235.122C49.6845 232.634 51.5496 230.457 53.7983 228.728C56.047 226.999 58.6302 225.755 61.3845 225.077C66.166 223.931 71.2001 224.54 75.5697 226.795C79.9392 229.05 83.3534 232.799 85.1902 237.36C88.9168 246.679 87.7291 256.625 86.6114 264.448L86.5892 264.605L86.4466 264.673L57.8974 278.35Z" fill="#3F3D56"/>
<path d="M81.131 196.83H58.037V186.763C63.1059 184.749 68.066 183.037 71.0644 186.763C73.7342 186.763 76.2947 187.824 78.1825 189.711C80.0704 191.599 81.131 194.16 81.131 196.83V196.83Z" fill="#2F2E41"/>
<path d="M56.7584 184.987C42.9524 184.987 39.0881 202.292 39.0881 212.055C39.0881 217.499 41.5504 219.447 45.4196 220.106L46.7861 212.818L49.9865 220.419C51.0734 220.425 52.2152 220.404 53.3989 220.382L54.4841 218.147L56.9039 220.341C66.5955 220.356 74.4285 221.769 74.4285 212.055C74.4285 202.292 71.0395 184.987 56.7584 184.987Z" fill="#2F2E41"/>
<path d="M121.138 415.18H0.627659C0.461194 415.18 0.301546 415.113 0.183837 414.996C0.0661277 414.878 0 414.718 0 414.552C0 414.385 0.0661277 414.226 0.183837 414.108C0.301546 413.99 0.461194 413.924 0.627659 413.924H121.138C121.305 413.924 121.464 413.99 121.582 414.108C121.7 414.226 121.766 414.385 121.766 414.552C121.766 414.718 121.7 414.878 121.582 414.996C121.464 415.113 121.305 415.18 121.138 415.18Z" fill="#CCCCCC"/>
<path d="M123.404 208.68H96.4149C94.834 208.678 93.3184 208.049 92.2006 206.931C91.0828 205.813 90.4539 204.298 90.4521 202.717V175.728C90.4539 174.147 91.0828 172.631 92.2006 171.513C93.3184 170.395 94.834 169.767 96.4149 169.765H123.404C124.985 169.767 126.501 170.395 127.619 171.513C128.736 172.631 129.365 174.147 129.367 175.728V202.717C129.365 204.298 128.736 205.813 127.619 206.931C126.501 208.049 124.985 208.678 123.404 208.68Z" fill="white"/>
<path d="M123.404 208.68H96.4149C94.834 208.678 93.3184 208.049 92.2006 206.931C91.0828 205.813 90.4539 204.298 90.4521 202.717V175.728C90.4539 174.147 91.0828 172.631 92.2006 171.513C93.3184 170.395 94.834 169.767 96.4149 169.765H123.404C124.985 169.767 126.501 170.395 127.619 171.513C128.736 172.631 129.365 174.147 129.367 175.728V202.717C129.365 204.298 128.736 205.813 127.619 206.931C126.501 208.049 124.985 208.678 123.404 208.68ZM96.4149 171.02C95.1668 171.021 93.9703 171.518 93.0878 172.4C92.2053 173.283 91.7089 174.479 91.7075 175.728V202.717C91.7089 203.965 92.2053 205.162 93.0878 206.044C93.9703 206.927 95.1668 207.423 96.4149 207.424H123.404C124.652 207.423 125.849 206.927 126.731 206.044C127.614 205.162 128.11 203.965 128.112 202.717V175.728C128.11 174.479 127.614 173.283 126.731 172.4C125.849 171.518 124.652 171.021 123.404 171.02H96.4149Z" fill="#FA784F"/>
<path d="M118.697 197.696H101.122C100.623 197.695 100.144 197.496 99.7914 197.143C99.4384 196.79 99.2399 196.312 99.2393 195.813V182.632C99.2399 182.133 99.4384 181.654 99.7914 181.301C100.144 180.948 100.623 180.749 101.122 180.749H106.07C106.391 180.748 106.708 180.829 106.989 180.986C107.27 181.143 107.506 181.37 107.673 181.645L109.053 183.887H118.697C119.196 183.888 119.675 184.086 120.028 184.439C120.381 184.792 120.579 185.271 120.58 185.77V195.813C120.579 196.312 120.381 196.79 120.028 197.143C119.675 197.496 119.196 197.695 118.697 197.696Z" fill="#FA784F"/>
<path d="M118.125 204.355C118.213 204.515 118.294 204.681 118.368 204.851C118.74 205.69 118.93 206.598 118.926 207.516C118.922 208.434 118.724 209.341 118.345 210.177C117.966 211.013 117.415 211.759 116.728 212.368C116.04 212.976 115.232 213.432 114.356 213.706C114.152 213.769 113.945 213.821 113.736 213.863L101.748 244.872C101.352 245.885 100.639 246.744 99.7161 247.321C98.7931 247.897 97.7088 248.161 96.6242 248.072L96.5639 248.061L70.5809 240.239C69.8745 240.026 69.2172 239.676 68.647 239.208C68.0768 238.739 67.605 238.163 67.2589 237.511C66.9127 236.86 66.699 236.146 66.6302 235.412C66.5614 234.677 66.6388 233.936 66.858 233.232C67.0771 232.527 67.4336 231.873 67.907 231.307C68.3803 230.742 68.9611 230.275 69.6157 229.935C70.2704 229.595 70.9859 229.388 71.7211 229.325C72.4562 229.263 73.1964 229.347 73.8988 229.573L92.2832 235.475L106.516 210.242C106.39 209.981 106.283 209.71 106.195 209.433C105.713 207.891 105.821 206.224 106.499 204.757C107.176 203.29 108.375 202.128 109.862 201.495C111.349 200.862 113.017 200.804 114.545 201.332C116.072 201.861 117.348 202.938 118.125 204.355H118.125Z" fill="#A0616A"/>
</g>
<defs>
<clipPath id="clip0_6_209">
<rect width="550" height="415.18" fill="white"/>
</clipPath>
</defs>
</svg>
