<svg width="412" height="664" viewBox="0 0 412 664" fill="none" xmlns="http://www.w3.org/2000/svg">
<path d="M24.9411 305.337H209.963C210.606 305.337 211.223 305.622 211.677 306.129C212.132 306.637 212.387 307.325 212.387 308.042V323.958C212.387 324.676 212.132 325.364 211.677 325.871C211.223 326.379 210.606 326.664 209.963 326.664H113.7V365.005" stroke="#FA784F" stroke-width="5" stroke-miterlimit="10"/>
<path d="M46.7748 18.9391L37.567 94.2216C35.2538 113.063 37.8608 132.249 45.0752 149.477L58.5342 181.494C67.4769 202.767 82.9148 219.386 101.818 228.089L142.455 246.8L46.7748 18.9391Z" fill="white" stroke="#FA784F" stroke-width="5" stroke-miterlimit="10"/>
<path d="M77.4421 305.411H22.2522C9.71158 305.411 0.517981 291.672 3.5762 277.485L29.1403 180.928C31.5073 169.927 40.0003 162.217 49.7335 162.217" stroke="#FA784F" stroke-width="5" stroke-miterlimit="10"/>
<path d="M145.963 251.048C145.439 251.044 144.927 250.872 144.487 250.552C144.047 250.233 143.699 249.78 143.483 249.246L46.0552 17.1267C45.1557 14.9867 46.4955 12.4926 48.5359 12.4926C49.0633 12.4944 49.5792 12.6651 50.0223 12.9845C50.4654 13.3039 50.8171 13.7586 51.0355 14.2945L148.444 246.414C149.344 248.554 148.004 251.048 145.963 251.048Z" fill="white" stroke="#FA784F" stroke-width="5" stroke-miterlimit="10"/>
<path d="M85.1493 304.053C89.0842 304.053 92.2741 300.493 92.2741 296.1C92.2741 291.708 89.0842 288.148 85.1493 288.148C81.2144 288.148 78.0245 291.708 78.0245 296.1C78.0245 300.493 81.2144 304.053 85.1493 304.053Z" stroke="#FA784F" stroke-width="5" stroke-miterlimit="10"/>
<path d="M78.048 297.168C77.9202 292.317 80.7843 288.291 85.1491 288.148L85.8403 288.121C87.6928 288.061 89.5446 288.266 91.3508 288.729L148.998 303.62" stroke="#FA784F" stroke-width="5" stroke-miterlimit="10"/>
<path d="M408.838 225.204L363.073 413.423C360.754 422.979 355.68 431.417 348.635 437.434C341.591 443.451 332.968 446.712 324.098 446.713H169.085" stroke="#FA784F" stroke-width="5" stroke-miterlimit="10"/>
<path d="M181.616 446.692L306.567 658.278" stroke="#FA784F" stroke-width="5" stroke-miterlimit="10" stroke-linecap="round"/>
<path d="M318.402 446.692L182.089 660.391" stroke="#FA784F" stroke-width="5" stroke-miterlimit="10" stroke-linecap="round"/>
<path d="M183.67 586.07C183.67 586.07 177.17 597.167 165.884 595.614L158.253 583.423C166.125 581.534 173.829 578.857 181.27 575.423C182.047 579.476 182.856 583.191 183.67 586.07Z" fill="#FFCFC9"/>
<path d="M344.549 392.525C339.976 403.954 324.741 433.651 289.7 434.882C246.26 436.409 166.339 431.833 166.339 431.833C166.339 431.833 184.617 512.447 185.01 573.536C185.01 573.536 170.604 581.695 149.22 585.278C149.22 585.278 72.5282 425.17 87.7577 386.025C99.0911 356.905 185.233 345.581 224.17 341.924C240.352 352.397 294.192 385.217 344.549 392.525Z" fill="#52509D"/>
<path d="M183.67 586.07C183.67 586.07 191.567 595.761 200.282 603.455C205.802 608.327 203.634 617.722 198.933 625.617C191.863 637.456 184.018 648.694 175.461 659.239C175.461 659.239 163.233 660.682 139.435 659.593C139.435 659.593 138.545 650.167 146.957 645.908C166.13 636.201 170.448 610.504 165.894 595.64C165.884 595.613 175.461 597.521 183.67 586.07Z" fill="#3F4D79"/>
<path d="M204.036 606.208C206.328 611.635 202.919 619.793 199.406 625.617C199.406 625.617 186.35 645.934 176.408 659.741L138.962 660.095" stroke="#FA784F" stroke-width="7" stroke-miterlimit="10" stroke-linecap="round"/>
<path d="M163.46 638.805C163.46 638.805 154.821 632.496 161.093 628.639" stroke="#FA784F" stroke-width="5" stroke-miterlimit="10" stroke-linecap="round"/>
<path d="M168.195 632.992C168.195 632.992 157.661 626.683 163.934 622.826" stroke="#FA784F" stroke-width="5" stroke-miterlimit="10" stroke-linecap="round"/>
<path d="M295.967 126.449C295.967 126.449 335.639 114.248 338.446 78.0153C338.925 71.8805 295.967 126.449 295.967 126.449Z" fill="#6562CF"/>
<path d="M296.446 55.6319C296.446 55.6319 313.569 95.5955 329.324 110.512C329.324 110.512 304.172 129.181 283.058 129.171C283.058 129.171 269.234 102 263.506 91.606L296.446 55.6319Z" fill="#FFCFC9"/>
<path d="M276.454 116.272C272.084 107.781 266.607 97.2495 263.506 91.6061L288.568 64.2503L290.287 68.0707C292.114 86.3854 287.536 106.37 276.454 116.272Z" fill="#FFC0B7"/>
<path d="M290.949 63.6214C290.949 63.6214 290.874 78.9453 285.652 87.4263C279.081 98.1054 262.355 109.619 249.625 107.506C236.896 105.392 225.794 33.4281 235.343 29.1692C244.891 24.9102 271.568 20.9999 279.521 34.1309C287.474 47.2619 290.949 63.6214 290.949 63.6214Z" fill="#FFCFC9"/>
<path d="M304.309 72.504C304.309 72.504 298.765 73.4974 290.708 69.3705C290.959 66.0098 291.072 59.1088 287.957 57.122C284.558 54.9555 282.617 61.0692 282.016 63.3836C281.29 62.7566 280.556 62.082 279.815 61.3598C266.559 48.5036 270.01 35.9169 270.01 35.9169C270.01 35.9169 250.288 48.863 231.499 48.0069C215.905 47.2989 208.268 22.9392 221.415 15.6789C221.415 15.6789 220.468 22.3527 231.944 19.1558C243.419 15.9589 241.189 2.95478 257.271 0.666771C277.088 -2.12851 281.183 12.5243 281.183 12.5243C281.183 12.5243 290.675 6.94955 300.446 17.0897C310.856 27.8957 297.407 58.0573 304.309 72.504Z" fill="#833F00"/>
<path d="M272.037 33.5708C272.037 33.5708 253.602 49.9831 233.568 52.8947C214.721 55.6318 206.465 28.4663 219.271 18.6168" stroke="#833F00" stroke-width="4" stroke-miterlimit="10"/>
<path d="M279.479 13.6176C279.479 13.6176 285.922 3.38835 298.121 9.39063" stroke="#833F00" stroke-width="4" stroke-miterlimit="10"/>
<path d="M348.715 393.074C363.485 376.926 382.298 275.086 377.384 209.795C377.077 202.362 376.101 194.982 374.473 187.766C373.636 183.518 372.514 179.346 371.116 175.285C366.856 163.132 357.113 150.45 343.564 141.789C329.755 130.751 311.737 123.115 287.858 127.575C252.315 134.212 244.063 173.816 242.151 191.845L242.122 191.814L232.479 252.327L162.111 255.291V280.983C162.111 280.983 219.853 320.296 260.755 308.904L261.115 308.798C241.706 329.987 219.304 338.706 219.304 338.706C219.304 338.706 287.46 385.904 348.715 393.074Z" fill="#3F4D79"/>
<path d="M295.314 226.134C295.314 226.134 281.841 301.881 256.793 311.546" stroke="white" stroke-width="5" stroke-miterlimit="10" stroke-linecap="round"/>
<path d="M295.968 126.449C306.946 124.864 336.037 104.219 338.423 77.0431C338.423 77.0431 382.161 126.449 366.141 165.927C366.141 165.927 357.222 147.432 337.935 136.193C314.852 122.756 295.968 126.449 295.968 126.449Z" fill="#3F4D79"/>
<path d="M370.009 168.067C370.009 168.067 356.753 148.399 337.935 136.193C311.59 119.099 279.18 128.056 279.18 128.056" stroke="white" stroke-width="5" stroke-miterlimit="10" stroke-linecap="round"/>
<path d="M162.339 271.852C162.339 271.852 155.346 284.19 147.904 282.42C140.462 280.65 133.536 279.434 129.763 281.601C125.1 284.28 120.47 290.193 117.426 290.082C113.741 289.974 110.109 289.077 106.727 287.44C108.643 283.083 110.754 278.836 113.052 274.716C110.472 276.539 107.049 280.28 105.156 281.696C102.126 283.968 100.005 280.734 100.005 280.734C100.005 280.734 105.241 272.433 107.532 270.272C109.733 268.195 117.677 261.754 121.143 261.183C125.304 260.079 145.836 256.723 162.386 255.46L162.339 271.852Z" fill="#FFCFC9"/>
<path d="M110.59 287.556C110.59 287.556 119.874 272.38 122.454 271.313C126.999 269.437 132.926 266.959 132.926 266.959" stroke="#F7B3AF" stroke-width="4" stroke-miterlimit="10" stroke-linecap="round"/>
<path d="M115.111 288.93C115.111 288.93 123.5 276.248 126.076 275.191C130.62 273.315 136.552 270.832 136.552 270.832" stroke="#F7B3AF" stroke-width="4" stroke-miterlimit="10" stroke-linecap="round"/>
</svg>
