<svg width="600" height="450" viewBox="0 0 600 450" fill="none" xmlns="http://www.w3.org/2000/svg">
<g clip-path="url(#clip0_97_130)">
<path d="M538.264 439.323C524.808 450.017 507.369 450.553 490.512 449.24C488.158 449.057 485.821 448.842 483.506 448.61C483.492 448.606 483.473 448.607 483.459 448.603C483.348 448.592 483.236 448.58 483.13 448.573C482.652 448.524 482.174 448.474 481.7 448.425L481.812 448.66L482.163 449.39C482.037 449.146 481.911 448.907 481.785 448.662C481.748 448.589 481.706 448.516 481.669 448.442C477.302 440.06 472.971 431.37 471.867 421.799C470.725 411.864 473.934 400.615 481.861 395.732C482.9 395.093 484.001 394.585 485.143 394.216C485.617 394.057 486.098 393.928 486.583 393.814C489.556 393.086 492.651 393.244 495.55 394.273C498.449 395.301 501.048 397.163 503.078 399.667C505.108 402.17 506.498 405.225 507.103 408.517C507.708 411.809 507.508 415.22 506.522 418.398C513.242 410.796 511.989 398.465 509.67 388.159C507.348 377.853 504.536 366.386 509.26 357.129C511.886 351.977 516.504 348.78 521.687 347.492C521.846 347.455 522.005 347.417 522.164 347.384C528.339 346.004 534.759 347.245 540.141 350.858C550.051 357.747 555.14 370.807 556.792 383.601C559.454 404.188 553.564 427.165 538.264 439.323Z" fill="#F2F2F2"/>
<path d="M533.92 406.321C533.529 410.862 532.54 415.316 530.984 419.542C529.55 423.282 527.617 426.765 525.249 429.874C520.327 436.229 514.093 441.187 507.072 444.332C501.762 446.731 496.198 448.38 490.512 449.24C488.158 449.057 485.821 448.842 483.506 448.61C483.492 448.606 483.473 448.607 483.459 448.603C483.348 448.592 483.236 448.58 483.13 448.573C482.652 448.524 482.174 448.474 481.7 448.425L481.812 448.66L482.163 449.391C482.037 449.146 481.911 448.907 481.785 448.662C481.748 448.589 481.706 448.516 481.669 448.442C485.932 443.758 489.114 438.015 490.95 431.694C492.786 425.374 493.221 418.66 492.22 412.115C491.173 405.617 488.748 399.484 485.143 394.216C485.617 394.057 486.098 393.928 486.583 393.814C487.953 395.88 489.155 398.075 490.175 400.374C493.832 408.575 494.999 417.856 493.503 426.845C492.111 434.979 488.645 442.506 483.511 448.543C483.96 448.508 484.414 448.468 484.858 448.423C493.273 447.637 501.67 445.642 509.302 441.555C515.825 438.146 521.489 433.02 525.793 426.628C530.416 419.597 532.452 411.139 532.802 402.543C533.071 393.282 532.191 384.023 530.187 375.025C528.242 365.85 525.288 356.972 521.388 348.589C521.301 348.398 521.283 348.179 521.339 347.975C521.395 347.771 521.519 347.598 521.687 347.492C521.827 347.388 521.998 347.349 522.164 347.384C522.245 347.408 522.32 347.451 522.384 347.512C522.448 347.572 522.498 347.647 522.532 347.732C523.013 348.767 523.485 349.804 523.939 350.852C527.722 359.58 530.506 368.793 532.229 378.279C533.902 387.43 534.795 397.002 533.92 406.321Z" fill="white"/>
<path d="M25.0328 143.031C24.6321 143.03 24.2351 142.948 23.8619 142.787C23.2584 142.531 22.7397 142.079 22.3748 141.49C22.0098 140.902 21.8158 140.205 21.8186 139.491V102.554C21.8173 101.304 21.3665 100.105 20.565 99.2214C19.7635 98.3373 18.6769 97.84 17.5434 97.8385H10.6862C7.853 97.835 5.13677 96.592 3.13341 94.3822C1.13004 92.1724 0.00315979 89.1763 -1.54972e-05 86.0511V11.7874C0.00316168 8.66225 1.13004 5.66613 3.13341 3.45632C5.13677 1.24651 7.853 0.0035025 10.6862 0H252.561C255.394 0.00350665 258.11 1.24651 260.114 3.45632C262.117 5.66612 263.244 8.66226 263.247 11.7874V86.0511C263.244 89.1763 262.117 92.1724 260.114 94.3822C258.11 96.592 255.394 97.835 252.561 97.8385H65.868C65.2754 97.8393 64.6894 97.9756 64.147 98.2388C63.6045 98.502 63.1174 98.8864 62.7165 99.3678L27.3872 141.881C27.0888 142.243 26.7254 142.532 26.3199 142.73C25.9145 142.928 25.4761 143.03 25.0328 143.031V143.031ZM10.6862 1.57068C8.23053 1.57374 5.87625 2.65113 4.13984 4.56647C2.40343 6.48181 1.4267 9.07869 1.42393 11.7874V86.0511C1.4267 88.7598 2.40344 91.3567 4.13984 93.2721C5.87625 95.1874 8.23053 96.2648 10.6862 96.2678H17.5434C19.0544 96.2697 20.503 96.9327 21.5714 98.1112C22.6399 99.2898 23.2408 100.888 23.2425 102.554V139.491C23.2425 139.887 23.351 140.274 23.5536 140.601C23.7563 140.928 24.0438 141.179 24.3783 141.323C24.7129 141.467 25.0789 141.495 25.4285 141.405C25.7781 141.316 26.095 141.111 26.3375 140.819L61.6669 98.3064C62.2014 97.6647 62.8507 97.1522 63.5738 96.8014C64.2969 96.4505 65.0781 96.2688 65.8681 96.2678H252.561C255.017 96.2648 257.371 95.1874 259.107 93.2721C260.844 91.3567 261.82 88.7598 261.823 86.0511V11.7874C261.82 9.07869 260.844 6.48181 259.107 4.56647C257.371 2.65113 255.017 1.57374 252.561 1.57068H10.6862Z" fill="#CCCCCC"/>
<path d="M26.212 33.4477C31.3763 33.4477 35.5628 28.8298 35.5628 23.1333C35.5628 17.4368 31.3763 12.8188 26.212 12.8188C21.0477 12.8188 16.8612 17.4368 16.8612 23.1333C16.8612 28.8298 21.0477 33.4477 26.212 33.4477Z" fill="#CCCCCC"/>
<path d="M241.652 80.2065H21.5955C20.9401 80.2073 20.291 80.0657 19.6852 79.7896C19.0795 79.5135 18.529 79.1085 18.0653 78.5976C17.6015 78.0867 17.2336 77.4799 16.9826 76.8121C16.7316 76.1443 16.6024 75.4284 16.6024 74.7054C16.6024 73.9825 16.7316 73.2666 16.9826 72.5988C17.2336 71.9309 17.6015 71.3242 18.0653 70.8133C18.529 70.3024 19.0795 69.8973 19.6852 69.6212C20.291 69.3452 20.9401 69.2035 21.5955 69.2044H241.652C242.307 69.2035 242.956 69.3452 243.562 69.6212C244.168 69.8973 244.718 70.3024 245.182 70.8133C245.646 71.3242 246.014 71.9309 246.265 72.5988C246.516 73.2666 246.645 73.9825 246.645 74.7054C246.645 75.4284 246.516 76.1443 246.265 76.8121C246.014 77.4799 245.646 78.0867 245.182 78.5976C244.718 79.1085 244.168 79.5135 243.562 79.7896C242.956 80.0657 242.307 80.2073 241.652 80.2065V80.2065Z" fill="#CCCCCC"/>
<path d="M169.962 56.8271H21.5955C20.9401 56.828 20.291 56.6863 19.6852 56.4102C19.0795 56.1342 18.529 55.7291 18.0653 55.2182C17.6015 54.7073 17.2336 54.1006 16.9826 53.4327C16.7316 52.7649 16.6024 52.049 16.6024 51.326C16.6024 50.6031 16.7316 49.8872 16.9826 49.2194C17.2336 48.5515 17.6015 47.9448 18.0653 47.4339C18.529 46.923 19.0795 46.5179 19.6852 46.2419C20.291 45.9658 20.9401 45.8242 21.5955 45.825H169.962C170.617 45.8242 171.267 45.9658 171.872 46.2419C172.478 46.5179 173.029 46.923 173.492 47.4339C173.956 47.9448 174.324 48.5515 174.575 49.2194C174.826 49.8872 174.955 50.6031 174.955 51.326C174.955 52.049 174.826 52.7649 174.575 53.4327C174.324 54.1006 173.956 54.7073 173.492 55.2182C173.029 55.7291 172.478 56.1342 171.872 56.4102C171.267 56.6863 170.617 56.828 169.962 56.8271V56.8271Z" fill="#CCCCCC"/>
<path d="M25.0328 405.017C24.6322 405.017 24.2351 404.934 23.8619 404.774C23.2584 404.518 22.7398 404.065 22.3748 403.477C22.0099 402.888 21.8159 402.191 21.8186 401.478V364.541C21.8173 363.291 21.3665 362.092 20.565 361.208C19.7635 360.324 18.6769 359.827 17.5434 359.825H10.6862C7.85301 359.822 5.13678 358.579 3.13342 356.369C1.13006 354.159 0.00317186 351.163 -1.09673e-05 348.038V273.774C0.0031662 270.649 1.13005 267.653 3.13341 265.443C5.13677 263.233 7.853 261.99 10.6862 261.987H252.561C255.394 261.99 258.11 263.233 260.114 265.443C262.117 267.653 263.244 270.649 263.247 273.774V348.038C263.244 351.163 262.117 354.159 260.114 356.369C258.11 358.579 255.394 359.822 252.561 359.825H65.8681C65.2754 359.826 64.6894 359.962 64.147 360.225C63.6045 360.489 63.1174 360.873 62.7165 361.354L27.3872 403.867C27.0888 404.229 26.7254 404.518 26.32 404.716C25.9146 404.914 25.4761 405.017 25.0328 405.017V405.017ZM10.6862 263.557C8.23053 263.56 5.87625 264.638 4.13985 266.553C2.40344 268.468 1.4267 271.065 1.42393 273.774V348.038C1.42671 350.746 2.40344 353.343 4.13985 355.259C5.87625 357.174 8.23053 358.251 10.6862 358.254H17.5434C19.0544 358.256 20.503 358.919 21.5715 360.098C22.6399 361.276 23.2408 362.874 23.2425 364.541V401.478C23.2425 401.874 23.351 402.261 23.5536 402.588C23.7563 402.914 24.0438 403.166 24.3783 403.31C24.7129 403.453 25.0789 403.482 25.4285 403.392C25.7781 403.302 26.095 403.098 26.3376 402.806L61.6669 360.293C62.2014 359.651 62.8507 359.139 63.5738 358.788C64.2969 358.437 65.0781 358.255 65.8681 358.254H252.561C255.017 358.251 257.371 357.174 259.107 355.259C260.844 353.343 261.82 350.746 261.823 348.038V273.774C261.82 271.065 260.844 268.468 259.107 266.553C257.371 264.638 255.017 263.56 252.561 263.557L10.6862 263.557Z" fill="#CCCCCC"/>
<path d="M382.217 268.867C381.774 268.867 381.335 268.764 380.93 268.566C380.525 268.368 380.161 268.079 379.863 267.717L344.533 225.204C344.132 224.723 343.645 224.338 343.103 224.075C342.561 223.812 341.975 223.676 341.382 223.675H154.689C151.856 223.671 149.14 222.428 147.136 220.218C145.133 218.009 144.006 215.012 144.003 211.887V137.624C144.006 134.498 145.133 131.502 147.136 129.293C149.14 127.083 151.856 125.84 154.689 125.836H396.564C399.397 125.84 402.113 127.083 404.117 129.293C406.12 131.502 407.247 134.498 407.25 137.624V211.887C407.247 215.012 406.12 218.009 404.117 220.218C402.113 222.428 399.397 223.671 396.564 223.675H389.707C388.573 223.676 387.486 224.174 386.685 225.058C385.883 225.942 385.433 227.14 385.431 228.391V265.328C385.434 266.041 385.24 266.738 384.875 267.326C384.51 267.915 383.991 268.367 383.388 268.623C383.015 268.784 382.618 268.867 382.217 268.867V268.867ZM154.689 127.407C152.233 127.41 149.879 128.487 148.143 130.403C146.406 132.318 145.43 134.915 145.427 137.624V211.887C145.43 214.596 146.406 217.193 148.143 219.108C149.879 221.024 152.233 222.101 154.689 222.104H341.382C342.172 222.105 342.953 222.287 343.676 222.638C344.399 222.988 345.048 223.501 345.583 224.143L380.912 266.656C381.155 266.947 381.472 267.152 381.821 267.242C382.171 267.331 382.537 267.303 382.872 267.159C383.206 267.016 383.494 266.764 383.696 266.437C383.899 266.11 384.007 265.724 384.007 265.328V228.391C384.009 226.724 384.61 225.126 385.678 223.947C386.747 222.769 388.196 222.106 389.707 222.104H396.564C399.019 222.101 401.374 221.024 403.11 219.108C404.846 217.193 405.823 214.596 405.826 211.887V137.624C405.823 134.915 404.846 132.318 403.11 130.403C401.374 128.487 399.019 127.41 396.564 127.407L154.689 127.407Z" fill="#3F3D56"/>
<path d="M26.212 295.434C31.3763 295.434 35.5628 290.816 35.5628 285.12C35.5628 279.423 31.3763 274.805 26.212 274.805C21.0477 274.805 16.8612 279.423 16.8612 285.12C16.8612 290.816 21.0477 295.434 26.212 295.434Z" fill="#CCCCCC"/>
<path d="M241.652 342.193H21.5955C20.9401 342.194 20.291 342.052 19.6852 341.776C19.0795 341.5 18.529 341.095 18.0653 340.584C17.6015 340.073 17.2336 339.466 16.9826 338.799C16.7316 338.131 16.6024 337.415 16.6024 336.692C16.6024 335.969 16.7316 335.253 16.9826 334.585C17.2336 333.917 17.6015 333.311 18.0653 332.8C18.529 332.289 19.0795 331.884 19.6852 331.608C20.291 331.332 20.9401 331.19 21.5955 331.191H241.652C242.974 331.191 244.243 331.771 245.178 332.802C246.113 333.834 246.639 335.233 246.639 336.692C246.639 338.151 246.113 339.55 245.178 340.582C244.243 341.613 242.974 342.193 241.652 342.193Z" fill="#CCCCCC"/>
<path d="M169.962 318.814H21.5955C20.9401 318.814 20.291 318.673 19.6852 318.397C19.0795 318.121 18.529 317.716 18.0653 317.205C17.6015 316.694 17.2336 316.087 16.9826 315.419C16.7316 314.751 16.6024 314.036 16.6024 313.313C16.6024 312.59 16.7316 311.874 16.9826 311.206C17.2336 310.538 17.6015 309.931 18.0653 309.42C18.529 308.91 19.0795 308.504 19.6852 308.228C20.291 307.952 20.9401 307.811 21.5955 307.812H169.962C170.617 307.811 171.267 307.952 171.872 308.228C172.478 308.504 173.029 308.91 173.492 309.42C173.956 309.931 174.324 310.538 174.575 311.206C174.826 311.874 174.955 312.59 174.955 313.313C174.955 314.036 174.826 314.751 174.575 315.419C174.324 316.087 173.956 316.694 173.492 317.205C173.029 317.716 172.478 318.121 171.872 318.397C171.267 318.673 170.617 318.814 169.962 318.814Z" fill="#CCCCCC"/>
<path d="M170.215 158.596C175.379 158.596 179.566 153.978 179.566 148.282C179.566 142.585 175.379 137.967 170.215 137.967C165.05 137.967 160.864 142.585 160.864 148.282C160.864 153.978 165.05 158.596 170.215 158.596Z" fill="#3F3D56"/>
<path d="M385.654 205.355H165.598C164.276 205.355 163.007 204.775 162.072 203.744C161.137 202.712 160.611 201.313 160.611 199.854C160.611 198.395 161.137 196.996 162.072 195.964C163.007 194.932 164.276 194.353 165.598 194.353H385.654C386.977 194.353 388.246 194.932 389.181 195.964C390.116 196.996 390.642 198.395 390.642 199.854C390.642 201.313 390.116 202.712 389.181 203.744C388.246 204.775 386.977 205.355 385.654 205.355V205.355Z" fill="#6C63FF"/>
<path d="M313.965 181.976H165.598C164.943 181.976 164.294 181.835 163.688 181.559C163.082 181.283 162.532 180.878 162.068 180.367C161.604 179.856 161.236 179.249 160.985 178.581C160.734 177.913 160.605 177.197 160.605 176.474C160.605 175.752 160.734 175.036 160.985 174.368C161.236 173.7 161.604 173.093 162.068 172.582C162.532 172.071 163.082 171.666 163.688 171.39C164.294 171.114 164.943 170.973 165.598 170.973H313.965C314.62 170.973 315.269 171.114 315.875 171.39C316.481 171.666 317.031 172.071 317.495 172.582C317.959 173.093 318.327 173.7 318.578 174.368C318.829 175.036 318.958 175.752 318.958 176.474C318.958 177.197 318.829 177.913 318.578 178.581C318.327 179.249 317.959 179.856 317.495 180.367C317.031 180.878 316.481 181.283 315.875 181.559C315.269 181.835 314.62 181.976 313.965 181.976Z" fill="#6C63FF"/>
<path d="M385.559 283.004C385.772 281.874 386.208 280.809 386.835 279.885C387.462 278.961 388.266 278.199 389.188 277.654C390.111 277.109 391.131 276.794 392.176 276.731C393.221 276.668 394.266 276.858 395.237 277.289L411.94 256.119L415.487 270.168L399.082 288.117C398.319 289.869 396.999 291.251 395.373 292.001C393.747 292.751 391.929 292.817 390.262 292.187C388.595 291.556 387.195 290.273 386.328 288.581C385.462 286.889 385.188 284.904 385.559 283.004V283.004Z" fill="#FFB8B8"/>
<path d="M477.228 183.661C486.885 183.661 494.714 175.025 494.714 164.372C494.714 153.719 486.885 145.084 477.228 145.084C467.57 145.084 459.741 153.719 459.741 164.372C459.741 175.025 467.57 183.661 477.228 183.661Z" fill="#FFB8B8"/>
<path d="M456.684 429.874L447.956 429.873L443.803 392.736L456.686 392.737L456.684 429.874Z" fill="#FFB8B8"/>
<path d="M458.911 439.207L430.766 439.206V438.813C430.766 437.226 431.049 435.655 431.6 434.189C432.15 432.723 432.957 431.391 433.975 430.269C434.992 429.147 436.199 428.257 437.529 427.65C438.858 427.042 440.282 426.73 441.721 426.73H441.721L458.911 426.731L458.911 439.207Z" fill="#2F2E41"/>
<path d="M483.027 440.083L474.299 440.083L473.09 403.833L483.029 402.946L483.027 440.083Z" fill="#FFB8B8"/>
<path d="M485.254 449.417L457.109 449.415V449.023C457.109 447.436 457.392 445.865 457.943 444.399C458.493 442.932 459.3 441.6 460.318 440.478C461.335 439.356 462.542 438.466 463.872 437.859C465.201 437.252 466.625 436.939 468.064 436.939H468.064L485.254 436.94L485.254 449.417Z" fill="#2F2E41"/>
<path d="M480.545 433.306L473.748 432.424C472.977 432.322 472.266 431.915 471.745 431.279C471.225 430.643 470.932 429.821 470.919 428.965L469.645 331.316C469.641 331.04 469.549 330.774 469.386 330.565C469.222 330.355 468.997 330.216 468.75 330.171C468.503 330.127 468.249 330.179 468.034 330.32C467.818 330.46 467.654 330.68 467.57 330.941L458.14 360.312L458.814 415.365C458.826 416.274 458.519 417.153 457.959 417.819C457.398 418.485 456.626 418.887 455.804 418.941L446.93 419.357C446.118 419.407 445.319 419.118 444.692 418.546C444.066 417.975 443.659 417.163 443.552 416.274L438.917 353.996L438.914 353.957L445.946 288.916L498.763 293.131L484.101 430.211C484.008 431.07 483.633 431.861 483.048 432.436C482.462 433.011 481.705 433.329 480.921 433.331C480.795 433.331 480.67 433.323 480.545 433.306Z" fill="#2F2E41"/>
<path d="M446.172 294.681C445.698 294.402 445.295 293.995 445.002 293.499C444.709 293.002 444.535 292.431 444.495 291.84C444.495 291.84 449.245 259.261 450.985 258.649L447.177 223.809C446.721 219.56 447.039 215.253 448.113 211.141C449.186 207.029 450.993 203.195 453.429 199.864C455.774 196.632 458.688 193.959 461.996 192.004C465.304 190.049 468.936 188.854 472.675 188.49C473.207 188.437 473.736 188.397 474.263 188.369C478.769 188.103 483.266 189.041 487.374 191.103C491.481 193.165 495.076 196.29 497.853 200.214C500.734 204.17 502.706 208.836 503.601 213.814C504.496 218.792 504.287 223.935 502.993 228.805L500.857 237.003V294.299C500.855 294.858 500.734 295.409 500.504 295.907C500.274 296.405 499.941 296.837 499.532 297.168C492.881 302.552 485.366 304.455 478.062 304.455C464.242 304.455 451.18 297.639 446.172 294.681Z" fill="#6C63FF"/>
<path d="M405.17 284.197L395.984 276.62C395.623 276.322 395.324 275.945 395.104 275.511C394.885 275.078 394.751 274.599 394.711 274.104C394.671 273.61 394.726 273.112 394.872 272.642C395.018 272.173 395.252 271.743 395.559 271.38L450.283 206.609C452.04 204.548 454.408 203.25 456.958 202.951C459.509 202.652 462.071 203.372 464.182 204.979L464.182 204.979C465.468 205.968 466.54 207.258 467.323 208.756C468.105 210.254 468.579 211.923 468.71 213.646C468.841 215.369 468.626 217.103 468.08 218.724C467.534 220.344 466.671 221.813 465.553 223.024L409.333 283.889C408.839 284.429 408.198 284.776 407.509 284.876C406.819 284.976 406.119 284.825 405.515 284.445C405.395 284.37 405.28 284.287 405.17 284.197V284.197Z" fill="#6C63FF"/>
<path d="M475.476 275.621C475.878 274.555 476.486 273.599 477.259 272.82C478.032 272.041 478.95 271.459 479.949 271.114C480.948 270.769 482.003 270.67 483.04 270.823C484.078 270.977 485.072 271.38 485.953 272.003L505.95 254.652L507.053 269.184L487.894 283.433C486.847 284.997 485.316 286.082 483.592 286.483C481.868 286.884 480.07 286.574 478.539 285.611C477.009 284.648 475.851 283.099 475.287 281.258C474.722 279.417 474.79 277.411 475.476 275.621V275.621Z" fill="#FFB8B8"/>
<path d="M493.374 282.394C492.845 282.213 492.368 281.882 491.99 281.434C491.613 280.987 491.348 280.438 491.222 279.843L489.202 270.485C489.054 269.82 489.086 269.123 489.295 268.478C489.504 267.834 489.881 267.272 490.377 266.862L503.968 250.649L483.977 216.648C482.464 214.592 481.611 212.042 481.551 209.395C481.492 206.749 482.229 204.155 483.648 202.02C484.779 200.318 486.298 198.977 488.05 198.131C489.802 197.286 491.726 196.966 493.627 197.205C495.527 197.444 497.337 198.232 498.872 199.491C500.407 200.749 501.614 202.433 502.369 204.371L520.954 244.275C522.802 248.239 523.263 252.815 522.249 257.13C521.235 261.445 518.818 265.198 515.457 267.674L496.464 281.669C495.882 282.243 495.13 282.561 494.349 282.562C494.018 282.561 493.69 282.505 493.374 282.394V282.394Z" fill="#6C63FF"/>
<path d="M490.185 181.616C489.773 181.889 489.31 182.053 488.831 182.097C488.352 182.14 487.87 182.062 487.423 181.867C486.976 181.672 486.576 181.367 486.253 180.974C485.93 180.581 485.694 180.111 485.562 179.602L485.551 179.554C485.195 177.949 485.476 176.269 485.568 174.62C485.66 172.971 485.505 171.16 484.481 169.954C482.573 167.706 479.203 168.924 476.456 168.369C474.847 167.982 473.421 166.963 472.444 165.5C471.468 164.038 471.008 162.233 471.15 160.423C471.188 160.08 471.247 159.737 471.314 159.394C471.482 158.524 471.464 157.624 471.263 156.763C471.062 155.902 470.682 155.104 470.154 154.432C469.627 153.76 468.965 153.232 468.221 152.89C467.477 152.548 466.671 152.4 465.867 152.459C463.095 152.651 460.107 153.595 457.801 151.343C456.956 150.454 456.367 149.311 456.107 148.055C455.847 146.799 455.928 145.487 456.34 144.282C457.629 140.103 461.321 137.898 464.979 136.676C469.504 135.205 474.268 134.864 478.927 135.679C483.585 136.494 488.021 138.444 491.91 141.387C494.233 143.173 496.406 145.421 497.406 148.342C498.407 151.264 497.949 154.96 495.734 156.906C497.468 158.909 498.694 161.38 499.289 164.07C499.885 166.761 499.829 169.577 499.127 172.236C498.047 176.147 492.822 179.921 490.185 181.616Z" fill="#2F2E41"/>
<path d="M600 449.215C599.999 449.423 599.924 449.622 599.791 449.769C599.657 449.917 599.477 449.999 599.288 450H328.027C327.838 450 327.657 449.917 327.523 449.77C327.39 449.623 327.315 449.423 327.315 449.215C327.315 449.006 327.39 448.807 327.523 448.659C327.657 448.512 327.838 448.429 328.027 448.429H599.288C599.477 448.43 599.657 448.513 599.791 448.66C599.924 448.807 599.999 449.007 600 449.215V449.215Z" fill="#3F3D56"/>
</g>
<defs>
<clipPath id="clip0_97_130">
<rect width="600" height="450" fill="white"/>
</clipPath>
</defs>
</svg>
