<svg width="24" height="24" viewBox="0 0 24 24" fill="none" xmlns="http://www.w3.org/2000/svg">
<path d="M13.1287 23.9465C15.9098 23.6875 18.5124 22.4626 20.4845 20.4845C25.1704 15.7986 25.1704 8.20035 20.4845 3.51444C15.7986 -1.17148 8.20035 -1.17148 3.51444 3.51444C-1.17148 8.20035 -1.17148 15.7986 3.51444 20.4845C4.71569 21.6884 6.15968 22.6225 7.75021 23.2246C9.34075 23.8267 11.0413 24.083 12.7387 23.9765C12.8693 23.9954 13.0025 23.9851 13.1287 23.9465V23.9465ZM1.89207 10.6243C2.14867 8.71858 2.94143 6.92498 4.17802 5.4524L10.7275 11.9995L9.42193 13.3051C8.15955 12.2851 6.75318 11.7355 5.4128 11.3755C4.63282 11.1667 3.85763 11.0155 3.14844 10.8799L3.12924 10.8751C2.68885 10.7911 2.27726 10.7107 1.89327 10.6243H1.89207ZM1.80927 12.4483C2.12846 12.5155 2.45126 12.5779 2.76925 12.6403L2.78605 12.6427C3.50964 12.7831 4.22842 12.9223 4.94481 13.1143C6.08839 13.4215 7.17797 13.8534 8.13915 14.5878L4.17922 18.5478C2.73828 16.8315 1.90508 14.6871 1.80927 12.4483V12.4483ZM9.41593 15.8562C10.2259 16.8906 10.6639 18.0234 10.9723 19.1838C11.1223 19.7477 11.2375 20.2973 11.3539 20.8541L11.4547 21.3281C11.5147 21.6161 11.5807 21.9053 11.6527 22.1933C9.37822 22.1192 7.19444 21.2838 5.4512 19.8209L9.41593 15.8562V15.8562ZM13.4875 22.0913C13.3844 21.7143 13.2931 21.3341 13.2139 20.9513L13.1215 20.5109C13.0039 19.9481 12.8755 19.3349 12.7123 18.7206C12.3511 17.367 11.7979 15.9162 10.6963 14.5758L11.9995 13.2727L18.5478 19.8209C17.1046 21.033 15.3524 21.8192 13.4875 22.0913V22.0913ZM13.2715 11.9995L14.7258 10.5463C16.0626 11.6767 17.4618 12.2983 18.7638 12.7375C19.3002 12.9199 19.8401 13.0759 20.3369 13.2211C20.5277 13.2763 20.7125 13.3291 20.8889 13.3819C21.3089 13.5091 21.6941 13.6315 22.0457 13.767C21.7385 15.5289 20.971 17.1782 19.8209 18.5478L13.2715 11.9995ZM21.4037 11.6575L20.8013 11.4811C20.3113 11.3423 19.8244 11.1926 19.341 11.0323C18.2082 10.6483 17.0754 10.1443 16.0038 9.26833L19.8197 5.4512C21.3397 7.26182 22.1811 9.54554 22.1993 11.9095C21.9353 11.8195 21.6677 11.7367 21.4037 11.6575V11.6575ZM18.5478 4.17802L14.7306 7.99516C13.8547 6.92357 13.3495 5.7908 12.9667 4.65802C12.8058 4.17436 12.6561 3.68704 12.5179 3.19644V3.19524C12.4579 2.99605 12.4015 2.79685 12.3403 2.59525C12.2611 2.33126 12.1795 2.06366 12.0895 1.79967C14.4533 1.8175 16.737 2.6585 18.5478 4.17802V4.17802ZM11.2603 5.23401C11.7007 6.53598 12.3211 7.93636 13.4527 9.27313L11.9995 10.7275L5.4512 4.17802C6.82078 3.02796 8.47008 2.26043 10.2319 1.95326C10.3675 2.30486 10.4899 2.68885 10.6159 3.11004L10.7779 3.66203C10.9219 4.15882 11.0779 4.69761 11.2603 5.23401Z" fill="white"/>
</svg>
