<svg width="24" height="24" viewBox="0 0 24 24" fill="none" xmlns="http://www.w3.org/2000/svg">
<path d="M20.2 0H4.6C3.1528 0 1 0.9588 1 3.6V20.4C1 23.0412 3.1528 24 4.6 24H22.6V21.6H4.6144C4.06 21.5856 3.4 21.366 3.4 20.4C3.4 20.2788 3.4108 20.1708 3.4288 20.0724C3.5632 19.3824 4.1284 19.212 4.6132 19.2H21.4C21.4216 19.2 21.4372 19.1892 21.4588 19.188H22.6V2.4C22.6 1.0764 21.5236 0 20.2 0ZM20.2 16.8H3.4V3.6C3.4 2.6328 4.06 2.4144 4.6 2.4H13V10.8L15.4 9.6L17.8 10.8V2.4H20.2V16.8Z" fill="white"/>
</svg>
