<svg width="24" height="24" viewBox="0 0 24 24" fill="none" xmlns="http://www.w3.org/2000/svg">
<path d="M23.84 7.74535C23.84 7.74415 23.8388 7.74415 23.84 7.74535L23.8364 7.74054L23.8352 7.73934V7.73814C23.7608 7.62851 23.6647 7.53527 23.5528 7.46414L12.5402 0.157643C12.3791 0.0546997 12.1918 0 12.0006 0C11.8094 0 11.6222 0.0546997 11.4611 0.157643L0.446022 7.46775C0.306936 7.55418 0.192708 7.67528 0.114546 7.81917C0.0363846 7.96307 -0.00302613 8.12481 0.000181243 8.28853V15.6912C-0.00284137 15.8824 0.052036 16.0701 0.157608 16.2295V16.2307L0.160011 16.2331L0.172028 16.2512V16.2536H0.17323L0.174432 16.2548L0.175633 16.256C0.251342 16.3617 0.343875 16.4483 0.447224 16.5143L11.4611 23.8233C11.6194 23.9324 11.8072 23.9906 11.9994 23.9903C12.1925 23.9914 12.3813 23.933 12.5402 23.8233L23.554 16.5143C23.6928 16.427 23.8068 16.3054 23.8848 16.1612C23.9629 16.017 24.0026 15.8551 23.9999 15.6912V8.28853C24.0029 8.09546 23.9471 7.90603 23.84 7.74535V7.74535ZM12.956 2.73174L21.3116 8.27531L17.4865 10.8134L12.9548 7.76578V2.73174H12.956ZM11.0429 2.73174V7.76578L6.51114 10.8134L2.68844 8.27651L11.0429 2.73174V2.73174ZM1.91573 10.0599L4.79387 11.9706L1.91573 13.9066V10.0599V10.0599ZM11.0429 21.2492L2.67883 15.7008L6.51835 13.1171L11.0429 16.119V21.2492ZM11.9982 14.4558L8.23922 11.9586L11.9982 9.42897L15.7608 11.9586L11.9982 14.4558ZM12.956 21.2492V16.1178L17.4817 13.1159L21.3188 15.6996L12.956 21.2492V21.2492ZM22.0855 13.9066L19.2062 11.9706L22.0855 10.0599V13.9066Z" fill="white"/>
</svg>
