<svg width="24" height="24" viewBox="0 0 24 24" fill="none" xmlns="http://www.w3.org/2000/svg">
<g clip-path="url(#clip0_2_80)">
<path d="M6.85936 17.6929C6.56579 17.6934 6.28232 17.5858 6.06295 17.3907L-0.00601196 11.9958L6.39999 6.30103C6.63876 6.09677 6.94816 5.99436 7.26166 6.01585C7.57515 6.03733 7.86769 6.18097 8.07637 6.4159C8.28506 6.65083 8.39321 6.95826 8.37758 7.2721C8.36195 7.58594 8.22378 7.88111 7.99279 8.09414L3.60418 11.9958L7.65576 15.5964C7.83778 15.7579 7.96637 15.971 8.02445 16.2073C8.08254 16.4436 8.06736 16.692 7.98095 16.9195C7.89454 17.1469 7.74097 17.3428 7.54064 17.4809C7.34031 17.6191 7.1027 17.693 6.85936 17.6929V17.6929ZM17.588 17.6905L23.994 11.9958L17.925 6.60088C17.6872 6.38967 17.3753 6.28156 17.0578 6.30034C16.7403 6.31912 16.4433 6.46325 16.2321 6.70103C16.0209 6.93881 15.9127 7.25076 15.9315 7.56825C15.9503 7.88574 16.0944 8.18277 16.3322 8.39399L20.3838 11.9958L15.9952 15.8962C15.7573 16.1075 15.613 16.4045 15.5941 16.7221C15.5752 17.0398 15.6832 17.3519 15.8944 17.5898C16.1057 17.8277 16.4027 17.972 16.7204 17.9909C17.038 18.0098 17.3501 17.9018 17.588 17.6905V17.6905ZM11.9772 19.3901L14.376 4.99729C14.4067 4.83999 14.4055 4.67814 14.3726 4.5213C14.3397 4.36446 14.2756 4.2158 14.1843 4.08412C14.093 3.95244 13.9761 3.8404 13.8408 3.75461C13.7054 3.66883 13.5542 3.61104 13.3961 3.58467C13.2381 3.5583 13.0763 3.56387 12.9204 3.60106C12.7645 3.63826 12.6177 3.70631 12.4885 3.80121C12.3594 3.89611 12.2506 4.01592 12.1685 4.15358C12.0865 4.29124 12.0328 4.44395 12.0108 4.60268L9.61198 18.9955C9.58131 19.1528 9.58247 19.3146 9.61539 19.4715C9.64832 19.6283 9.71234 19.777 9.80368 19.9087C9.89503 20.0403 10.0118 20.1524 10.1472 20.2382C10.2826 20.3239 10.4338 20.3817 10.5918 20.4081C10.7499 20.4345 10.9117 20.4289 11.0676 20.3917C11.2234 20.3545 11.3703 20.2865 11.4994 20.1916C11.6286 20.0967 11.7374 19.9768 11.8194 19.8392C11.9015 19.7015 11.9551 19.5488 11.9772 19.3901V19.3901Z" fill="white"/>
</g>
<defs>
<clipPath id="clip0_2_80">
<rect width="24" height="24" fill="white"/>
</clipPath>
</defs>
</svg>
