<svg width="24" height="24" viewBox="0 0 24 24" fill="none" xmlns="http://www.w3.org/2000/svg">
<path fill-rule="evenodd" clip-rule="evenodd" d="M8.7 1C3.8952 1 0 4.8952 0 9.7C0 20.5 14.4 22.6 14.4 22.6V18.4H15.3C20.1048 18.4 24 14.5048 24 9.7C24 4.8952 20.1048 1 15.3 1H8.7ZM12 11.5C12.3978 11.5 12.7794 11.342 13.0607 11.0607C13.342 10.7794 13.5 10.3978 13.5 10C13.5 9.60218 13.342 9.22064 13.0607 8.93934C12.7794 8.65804 12.3978 8.5 12 8.5C11.6022 8.5 11.2206 8.65804 10.9393 8.93934C10.658 9.22064 10.5 9.60218 10.5 10C10.5 10.3978 10.658 10.7794 10.9393 11.0607C11.2206 11.342 11.6022 11.5 12 11.5V11.5ZM18.3 10C18.3 10.3978 18.142 10.7794 17.8607 11.0607C17.5794 11.342 17.1978 11.5 16.8 11.5C16.4022 11.5 16.0206 11.342 15.7393 11.0607C15.458 10.7794 15.3 10.3978 15.3 10C15.3 9.60218 15.458 9.22064 15.7393 8.93934C16.0206 8.65804 16.4022 8.5 16.8 8.5C17.1978 8.5 17.5794 8.65804 17.8607 8.93934C18.142 9.22064 18.3 9.60218 18.3 10ZM7.2 11.5C7.59783 11.5 7.97936 11.342 8.26066 11.0607C8.54197 10.7794 8.7 10.3978 8.7 10C8.7 9.60218 8.54197 9.22064 8.26066 8.93934C7.97936 8.65804 7.59783 8.5 7.2 8.5C6.80218 8.5 6.42064 8.65804 6.13934 8.93934C5.85804 9.22064 5.7 9.60218 5.7 10C5.7 10.3978 5.85804 10.7794 6.13934 11.0607C6.42064 11.342 6.80218 11.5 7.2 11.5V11.5Z" fill="white"/>
</svg>
