<svg width="24" height="24" viewBox="0 0 24 24" fill="none" xmlns="http://www.w3.org/2000/svg">
<path d="M12.0588 0C5.85883 0 1 2.78824 1 6.35294V17.6471C1 21.2118 5.85883 24 12.0588 24C18.2588 24 23.1177 21.2118 23.1177 17.6471V6.35294C23.1177 2.78824 18.2588 0 12.0588 0ZM12.0588 1.41176C17.2824 1.41176 21.7059 3.67059 21.7059 6.35294C21.7059 9.03529 17.2824 11.2941 12.0588 11.2941C6.8353 11.2941 2.41177 9.03529 2.41177 6.35294C2.41177 3.67059 6.8353 1.41176 12.0588 1.41176ZM21.7059 17.6471C21.7059 20.3294 17.2824 22.5882 12.0588 22.5882C6.8353 22.5882 2.41177 20.3294 2.41177 17.6471V15.1529C4.29412 17.0824 7.87059 18.3529 12.0588 18.3529C16.2471 18.3529 19.8235 17.0824 21.7059 15.1529V17.6471ZM21.7059 12C21.7059 14.6824 17.2824 16.9412 12.0588 16.9412C6.8353 16.9412 2.41177 14.6824 2.41177 12V9.50588C4.29412 11.4353 7.87059 12.7059 12.0588 12.7059C16.2471 12.7059 19.8235 11.4353 21.7059 9.50588V12Z" fill="white"/>
</svg>
