<svg width="24" height="24" viewBox="0 0 24 24" fill="none" xmlns="http://www.w3.org/2000/svg">
<path d="M15.2347 0.396511C14.7263 0.622477 13.7942 1.32862 13.1728 1.95003C12.4666 2.65617 11.7887 3.07986 11.3651 3.07986C10.2917 3.07986 9.95277 4.01196 10.4894 5.48074C10.9414 6.61057 10.9414 6.7518 10.4612 7.7404L9.95277 8.81374L9.75505 7.71215C9.64207 7.09075 9.55733 6.13039 9.55733 5.56548C9.52909 3.98372 8.73821 2.26073 7.8061 1.8088C6.78925 1.27213 4.92503 1.27213 3.87994 1.8088C1.22484 3.16459 1.28133 8.47479 3.96468 14.8866C5.68767 18.954 8.65347 22.7671 10.7437 23.558C11.9017 23.9817 12.6079 24.0382 18.144 23.9817C21.703 23.9534 22.5221 23.332 21.5335 21.4396C21.1663 20.7052 21.1663 20.451 21.5335 18.9822C22.1267 16.7508 22.0702 14.6041 21.364 12.2315L20.7709 10.1978L21.364 8.61602C22.4374 5.7632 22.0702 3.786 20.1495 1.72406C18.5395 -0.0271747 17.0989 -0.394369 15.2347 0.396511ZM18.5395 1.41336C19.4151 1.92178 19.4716 2.03476 19.0479 2.28897C18.7089 2.45845 18.1158 2.40196 17.1554 2.09125C15.4889 1.55459 14.6133 1.83704 14.6133 2.96687C14.6133 3.39056 14.1614 4.12495 13.4835 4.88758C12.1559 6.32811 11.7887 7.57093 12.4949 8.27707C12.7773 8.53128 13.2858 8.729 13.6812 8.67251C14.4721 8.55953 14.5851 8.07935 13.8507 7.93812C12.9751 7.76865 12.8621 7.40145 13.314 6.52583C13.8789 5.42425 15.1782 4.35091 16.4493 3.92723C17.3249 3.64477 17.5226 3.67302 18.1723 4.18144C19.0197 4.85934 19.6975 4.94407 20.206 4.43565C20.4884 4.15319 20.6297 4.15319 20.8274 4.49214C20.9686 4.71811 21.1098 5.14179 21.1098 5.4525C21.1098 5.87618 21.0251 5.90443 20.6861 5.62197C20.206 5.22653 19.6975 5.48074 19.6975 6.15864C19.6975 6.4411 19.4433 6.89303 19.1326 7.17549C18.483 7.76865 17.2402 7.59917 16.0256 6.7518C15.2347 6.18688 14.6133 6.01741 14.6133 6.3846C14.6133 6.49759 14.7545 6.94952 14.924 7.4297C15.2065 8.19233 15.1217 8.55953 14.5003 10.0565C13.5965 12.175 13.5682 13.7002 14.3591 16.2141C15.263 19.1517 14.9805 19.3494 12.9468 17.231C10.9696 15.1408 10.6024 15.1973 10.5742 17.4852C10.5459 18.8692 10.5459 18.8975 10.1787 18.2196C9.95277 17.7959 9.67032 16.7508 9.50084 15.8752C9.1054 13.7002 9.52909 11.4688 10.8849 8.78549C11.478 7.59917 12.2124 5.93267 12.4949 5.11355C13.3988 2.62792 15.2347 0.876688 17.0142 0.820197C17.3249 0.820197 18.0028 1.10265 18.5395 1.41336ZM7.91908 3.13635C8.70996 4.20968 9.19014 9.01146 8.73821 11.6383C8.28627 14.1522 8.31452 15.056 8.82294 17.0332C9.30312 18.8975 10.8849 21.722 11.4498 21.722C11.7323 21.722 11.7605 21.2136 11.6193 19.3776L11.4216 17.0615L12.8903 18.4173C15.4324 20.7899 16.3928 19.7731 15.2065 15.9317C14.4438 13.4743 14.4721 12.4857 15.3195 10.3673C15.7149 9.4069 16.0256 8.47479 16.0256 8.27707C16.0256 8.02286 16.2516 7.99461 16.986 8.22058C17.7203 8.44654 17.9746 8.729 18.1158 9.35041C18.2288 9.94357 18.483 10.1978 19.1044 10.3108C19.8388 10.452 19.98 10.678 20.5167 12.5139C21.2228 14.9148 21.2793 16.6096 20.6579 19.0104C20.2625 20.6204 20.2625 20.8747 20.6579 21.6373C21.364 22.9931 20.2907 23.5015 18.0875 22.8801C17.4661 22.7106 16.8447 22.7389 16.0538 23.0213C14.5851 23.5298 11.6475 23.1626 10.2917 22.3152C7.74961 20.7617 4.64258 15.3103 3.31503 10.1413C2.01572 5.00056 3.03257 2.09125 6.11135 2.28897C7.07171 2.34547 7.46715 2.54319 7.91908 3.13635ZM16.1668 3.13635C15.6302 3.44705 15.3195 3.27758 15.5737 2.82564C15.6867 2.65617 15.9691 2.62792 16.1951 2.71266C16.6188 2.85389 16.5905 2.91038 16.1668 3.13635ZM19.9235 3.53179C19.6693 3.786 19.3304 3.89898 19.1609 3.786C18.7089 3.50354 19.0761 3.07986 19.7823 3.07986C20.3472 3.07986 20.3472 3.1081 19.9235 3.53179ZM11.7323 4.66162C11.4216 5.31127 11.3651 5.33951 11.1956 4.85934C10.9696 4.23793 11.1108 3.92723 11.6475 3.92723C11.9865 3.92723 11.9865 4.06846 11.7323 4.66162ZM20.5167 8.4183C20.1777 9.35041 19.1891 9.77409 18.9349 9.09619C18.8219 8.81374 19.0197 8.44654 19.4433 8.13584C20.4884 7.34496 20.8556 7.4297 20.5167 8.4183Z" fill="white"/>
<path d="M4.81433 4.07061C4.81433 4.38131 5.09679 4.52254 5.68995 4.52254C6.76329 4.52254 6.67855 3.84464 5.57697 3.73166C5.0403 3.67517 4.81433 3.75991 4.81433 4.07061Z" fill="white"/>
<path d="M5.40542 5.96305C4.89699 6.16077 4.81225 6.33024 5.03822 6.55621C5.40542 6.9234 6.8742 6.58445 6.73297 6.16077C6.56349 5.70884 6.1963 5.65235 5.40542 5.96305Z" fill="white"/>
<path d="M5.49055 8.2226C5.40582 8.39208 5.43406 8.61804 5.54705 8.75927C5.85775 9.04173 7.07231 8.5898 7.07231 8.19436C7.07231 7.82716 5.74477 7.82716 5.49055 8.2226Z" fill="white"/>
<path d="M6.36797 10.2564C6.08551 10.4823 5.97253 10.7366 6.142 10.8213C6.56569 11.1038 7.63903 10.7083 7.63903 10.2846C7.63903 9.77621 7.04587 9.77621 6.36797 10.2564Z" fill="white"/>
<path d="M7.21218 12.2334C6.87323 12.5158 6.7885 12.6853 7.04271 12.8265C7.49464 13.109 8.48324 12.7418 8.48324 12.2616C8.48324 11.7532 7.89008 11.7532 7.21218 12.2334Z" fill="white"/>
</svg>
