<svg width="24" height="24" viewBox="0 0 24 24" fill="none" xmlns="http://www.w3.org/2000/svg">
<path d="M20.2105 24H6.78947C6.31502 23.9996 5.86014 23.8211 5.52465 23.5038C5.18916 23.1866 5.00047 22.7564 5 22.3077V17.2308H6.78947V22.3077H20.2105V3.69231H12.1579V2H20.2105C20.685 2.00045 21.1399 2.17889 21.4754 2.49616C21.8108 2.81343 21.9995 3.24362 22 3.69231V22.3077C21.9995 22.7564 21.8108 23.1866 21.4754 23.5038C21.1399 23.8211 20.685 23.9996 20.2105 24Z" fill="white"/>
<path d="M12 7H19V9H12V7Z" fill="white"/>
<path d="M12 11H19V13H12V11Z" fill="white"/>
<path d="M11 15H19V17H11V15Z" fill="white"/>
<path d="M5.5 15C4.30689 14.9988 3.16299 14.5336 2.31934 13.7065C1.47568 12.8794 1.00119 11.7579 1 10.5882V0.882353H2.8V10.5882C2.8 11.2903 3.08446 11.9636 3.59081 12.46C4.09716 12.9564 4.78392 13.2353 5.5 13.2353C6.21608 13.2353 6.90284 12.9564 7.40919 12.46C7.91554 11.9636 8.2 11.2903 8.2 10.5882V2.64706C8.2 2.41304 8.10518 2.18861 7.9364 2.02314C7.76761 1.85767 7.53869 1.76471 7.3 1.76471C7.0613 1.76471 6.83239 1.85767 6.6636 2.02314C6.49482 2.18861 6.4 2.41304 6.4 2.64706V11.4706H4.6V2.64706C4.6 1.94502 4.88446 1.27173 5.39081 0.775306C5.89716 0.278886 6.58392 0 7.3 0C8.01608 0 8.70284 0.278886 9.20919 0.775306C9.71554 1.27173 10 1.94502 10 2.64706V10.5882C9.99881 11.7579 9.52432 12.8794 8.68066 13.7065C7.83701 14.5336 6.69311 14.9988 5.5 15Z" fill="white"/>
</svg>
