<svg width="24" height="24" viewBox="0 0 24 24" fill="none" xmlns="http://www.w3.org/2000/svg">
<path d="M21.6 0H16.8V1.6H7.20002V0H2.40002V24H7.20002V22.4H16.8V24H21.6V0ZM5.60002 1.6V3.2H4.00002V1.6H5.60002ZM20 1.6V3.2H18.4V1.6H20ZM16.8 3.2V11.2H7.20002V3.2H16.8ZM5.60002 4.8V6.4H4.00002V4.8H5.60002ZM20 4.8V6.4H18.4V4.8H20ZM5.60002 8V9.6H4.00002V8H5.60002ZM20 8V9.6H18.4V8H20ZM5.60002 11.2V12.8H4.00002V11.2H5.60002ZM20 11.2V12.8H18.4V11.2H20ZM16.8 12.8V20.8H7.20002V12.8H16.8ZM5.60002 14.4V16H4.00002V14.4H5.60002ZM20 14.4V16H18.4V14.4H20ZM5.60002 17.6V19.2H4.00002V17.6H5.60002ZM20 17.6V19.2H18.4V17.6H20ZM5.60002 20.8V22.4H4.00002V20.8H5.60002ZM20 20.8V22.4H18.4V20.8H20Z" fill="white"/>
</svg>
