<svg width="24" height="24" viewBox="0 0 24 24" fill="none" xmlns="http://www.w3.org/2000/svg">
<path d="M22.6667 10.6667C22.313 10.6667 21.9739 10.8071 21.7239 11.0572C21.4738 11.3072 21.3333 11.6464 21.3333 12V20C21.3333 20.3536 21.1929 20.6928 20.9428 20.9428C20.6928 21.1929 20.3536 21.3333 20 21.3333H4C3.64638 21.3333 3.30724 21.1929 3.05719 20.9428C2.80714 20.6928 2.66667 20.3536 2.66667 20V4C2.66667 3.64638 2.80714 3.30724 3.05719 3.05719C3.30724 2.80714 3.64638 2.66667 4 2.66667H12C12.3536 2.66667 12.6928 2.52619 12.9428 2.27614C13.1929 2.02609 13.3333 1.68696 13.3333 1.33333C13.3333 0.979711 13.1929 0.640573 12.9428 0.390524C12.6928 0.140476 12.3536 0 12 0H4C2.93913 0 1.92172 0.421428 1.17157 1.17157C0.421428 1.92172 0 2.93913 0 4V20C0 21.0609 0.421428 22.0783 1.17157 22.8284C1.92172 23.5786 2.93913 24 4 24H20C21.0609 24 22.0783 23.5786 22.8284 22.8284C23.5786 22.0783 24 21.0609 24 20V12C24 11.6464 23.8595 11.3072 23.6095 11.0572C23.3594 10.8071 23.0203 10.6667 22.6667 10.6667Z" fill="white"/>
<path d="M17.0041 2.80118H19.2148L10.4139 11.5969C10.2827 11.7271 10.1786 11.882 10.1076 12.0527C10.0366 12.2233 10 12.4064 10 12.5913C10 12.7762 10.0366 12.9592 10.1076 13.1299C10.1786 13.3006 10.2827 13.4555 10.4139 13.5857C10.544 13.717 10.6987 13.8212 10.8692 13.8923C11.0397 13.9634 11.2226 14 11.4073 14C11.592 14 11.7749 13.9634 11.9454 13.8923C12.1159 13.8212 12.2707 13.717 12.4007 13.5857L21.2016 4.79001V7.00294C21.2016 7.3744 21.349 7.73065 21.6114 7.99331C21.8738 8.25597 22.2297 8.40353 22.6008 8.40353C22.9719 8.40353 23.3278 8.25597 23.5902 7.99331C23.8526 7.73065 24 7.3744 24 7.00294V1.40059C24 1.02913 23.8526 0.672884 23.5902 0.410223C23.3278 0.147562 22.9719 0 22.6008 0H17.0041C16.633 0 16.2771 0.147562 16.0147 0.410223C15.7523 0.672884 15.6049 1.02913 15.6049 1.40059C15.6049 1.77205 15.7523 2.12829 16.0147 2.39095C16.2771 2.65362 16.633 2.80118 17.0041 2.80118V2.80118Z" fill="white"/>
</svg>
