<svg width="24" height="24" viewBox="0 0 24 24" fill="none" xmlns="http://www.w3.org/2000/svg">
<path d="M7.6 0C6.64522 0 5.72955 0.379285 5.05442 1.05442C4.37929 1.72955 4 2.64522 4 3.6C4 4.55478 4.37929 5.47045 5.05442 6.14558C5.72955 6.82071 6.64522 7.2 7.6 7.2H16C16.9548 7.2 17.8705 6.82071 18.5456 6.14558C19.2207 5.47045 19.6 4.55478 19.6 3.6C19.6 2.64522 19.2207 1.72955 18.5456 1.05442C17.8705 0.379285 16.9548 0 16 0H7.6ZM16 8.4C15.0452 8.4 14.1295 8.77928 13.4544 9.45441C12.7793 10.1295 12.4 11.0452 12.4 12C12.4 12.9548 12.7793 13.8705 13.4544 14.5456C14.1295 15.2207 15.0452 15.6 16 15.6C16.9548 15.6 17.8705 15.2207 18.5456 14.5456C19.2207 13.8705 19.6 12.9548 19.6 12C19.6 11.0452 19.2207 10.1295 18.5456 9.45441C17.8705 8.77928 16.9548 8.4 16 8.4V8.4ZM4 12C4 11.0452 4.37929 10.1295 5.05442 9.45441C5.72955 8.77928 6.64522 8.4 7.6 8.4H11.2V15.6H7.6C6.64522 15.6 5.72955 15.2207 5.05442 14.5456C4.37929 13.8705 4 12.9548 4 12ZM7.6 16.8C6.88799 16.8 6.19197 17.0111 5.59995 17.4067C5.00793 17.8023 4.54651 18.3645 4.27404 19.0223C4.00156 19.6802 3.93027 20.404 4.06917 21.1023C4.20808 21.8007 4.55095 22.4421 5.05442 22.9456C5.55789 23.4491 6.19934 23.7919 6.89768 23.9308C7.59601 24.0697 8.31985 23.9984 8.97766 23.726C9.63547 23.4535 10.1977 22.9921 10.5933 22.4001C10.9889 21.808 11.2 21.112 11.2 20.4V16.8H7.6Z" fill="white"/>
</svg>
