<svg width="24" height="24" viewBox="0 0 24 24" fill="none" xmlns="http://www.w3.org/2000/svg">
<path fill-rule="evenodd" clip-rule="evenodd" d="M21 6.75V21C21 21.7956 20.6839 22.5587 20.1213 23.1213C19.5587 23.6839 18.7956 24 18 24V22.5C18.3978 22.5 18.7794 22.342 19.0607 22.0607C19.342 21.7794 19.5 21.3978 19.5 21V6.75H16.5C15.9033 6.75 15.331 6.51295 14.909 6.09099C14.4871 5.66903 14.25 5.09674 14.25 4.5V1.5H6C5.60218 1.5 5.22064 1.65804 4.93934 1.93934C4.65804 2.22064 4.5 2.60218 4.5 3V16.5H3V3C3 2.20435 3.31607 1.44129 3.87868 0.87868C4.44129 0.316071 5.20435 0 6 0L14.25 0L21 6.75ZM1.059 23.7735V19.7835H1.116L2.544 23.0235H3.318L4.737 19.7835H4.794V23.7735H5.8665V17.775H4.6665L2.9565 21.669H2.9175L1.2075 17.775H0V23.7735H1.059ZM8.976 17.775H6.576V23.7735H7.764V21.7605H8.9685C9.399 21.7605 9.7635 21.675 10.0665 21.501C10.371 21.3255 10.602 21.0885 10.761 20.79C10.9245 20.4768 11.0075 20.1278 11.0025 19.7745C11.0025 19.3995 10.923 19.0605 10.7655 18.759C10.6088 18.4593 10.3693 18.2109 10.0755 18.0435C9.74048 17.8551 9.36017 17.7622 8.976 17.775V17.775ZM9.7935 19.7745C9.79891 19.9721 9.75509 20.168 9.666 20.3445C9.58647 20.4979 9.4626 20.6239 9.3105 20.706C9.13588 20.7924 8.94274 20.8346 8.748 20.829H7.758V18.72H8.748C9.0765 18.72 9.333 18.81 9.5175 18.9915C9.702 19.1745 9.7935 19.4355 9.7935 19.7745ZM12.051 19.7265C12.45 19.0755 12.846 18.426 13.2375 17.775H14.9475V21.705H15.6825V22.662H14.9475V23.7735H13.836V22.662H10.9305V21.69C11.283 21.03 11.6565 20.376 12.051 19.725V19.7265ZM12.0075 21.6735V21.7035H13.836V18.672H13.7745C13.473 19.149 13.1685 19.641 12.864 20.148C12.564 20.655 12.2775 21.1635 12.0075 21.6735Z" fill="white"/>
</svg>
