<svg width="24" height="24" viewBox="0 0 24 24" fill="none" xmlns="http://www.w3.org/2000/svg">
<path fill-rule="evenodd" clip-rule="evenodd" d="M22 6.75V21C22 21.7956 21.6839 22.5587 21.1213 23.1213C20.5587 23.6839 19.7956 24 19 24H17.5V22.5H19C19.3978 22.5 19.7794 22.342 20.0607 22.0607C20.342 21.7794 20.5 21.3978 20.5 21V6.75H17.5C16.9033 6.75 16.331 6.51295 15.909 6.09099C15.4871 5.66903 15.25 5.09674 15.25 4.5V1.5H7C6.60218 1.5 6.22064 1.65804 5.93934 1.93934C5.65804 2.22064 5.5 2.60218 5.5 3V16.5H4V3C4 2.20435 4.31607 1.44129 4.87868 0.87868C5.44129 0.316071 6.20435 0 7 0L15.25 0L22 6.75ZM3.4 17.775H1V23.7735H2.1865V21.7605H3.391C3.8215 21.7605 4.1875 21.675 4.489 21.501C4.7935 21.3255 5.026 21.0885 5.1835 20.79C5.34698 20.4768 5.42997 20.1278 5.425 19.7745C5.425 19.3995 5.3455 19.0605 5.188 18.759C5.03134 18.4593 4.79183 18.2109 4.498 18.0435C4.198 17.8635 3.8335 17.775 3.4 17.775V17.775ZM4.2175 19.7745C4.22291 19.9721 4.17909 20.168 4.09 20.3445C4.01007 20.4982 3.88565 20.6242 3.733 20.706C3.55838 20.7924 3.36524 20.8346 3.1705 20.829H2.182V18.72H3.172C3.499 18.72 3.7555 18.81 3.94 18.9915C4.1245 19.1745 4.2175 19.434 4.2175 19.7745ZM10.9375 23.7735V17.775H9.7525V20.214H7.2295V17.775H6.0445V23.7735H7.2295V21.2025H9.7525V23.7735H10.9375V23.7735ZM11.992 17.775H14.392C14.824 17.775 15.1915 17.865 15.49 18.0435C15.79 18.219 16.021 18.4575 16.18 18.759C16.3375 19.0605 16.417 19.3995 16.417 19.7745C16.417 20.1495 16.336 20.4885 16.1755 20.79C16.0165 21.0885 15.7855 21.3255 15.481 21.501C15.1437 21.6827 14.7644 21.7722 14.3815 21.7605H13.18V23.7735H11.9935V17.775H11.992ZM15.082 20.346C15.1708 20.1689 15.2141 19.9725 15.208 19.7745C15.208 19.434 15.1165 19.1745 14.932 18.993C14.7475 18.81 14.491 18.72 14.1625 18.72H13.1725V20.829H14.1625C14.3572 20.8346 14.5504 20.7924 14.725 20.706C14.8769 20.6243 15.0007 20.4989 15.0805 20.346H15.082Z" fill="white"/>
</svg>
