<svg width="24" height="24" viewBox="0 0 24 24" fill="none" xmlns="http://www.w3.org/2000/svg">
<g clip-path="url(#clip0_85_86)">
<path d="M23.997 1.85873V0.800774C23.7836 0.800774 23.579 0.716012 23.4281 0.565134C23.2772 0.414257 23.1925 0.209623 23.1925 -0.00374985H22.1345C22.1255 0.203614 22.0369 0.399512 21.887 0.543076C21.7371 0.68664 21.5375 0.766782 21.33 0.766782C21.1224 0.766782 20.9229 0.68664 20.773 0.543076C20.6231 0.399512 20.5344 0.203614 20.5255 -0.00374985H19.4638C19.4512 0.209673 19.3544 0.409384 19.1947 0.551516C19.035 0.693648 18.8254 0.766578 18.612 0.754287C18.4156 0.741316 18.2308 0.657161 18.092 0.517604C17.9533 0.378047 17.8703 0.192674 17.8585 -0.00374985H16.8005C16.7893 0.210106 16.6937 0.410779 16.5347 0.55428C16.3758 0.69778 16.1664 0.772401 15.9525 0.761785C15.7531 0.750661 15.5648 0.666436 15.4235 0.52521C15.2823 0.383984 15.1981 0.195664 15.187 -0.00374985H14.129C14.1201 0.203614 14.0314 0.399512 13.8815 0.543076C13.7316 0.68664 13.532 0.766782 13.3245 0.766782C13.1169 0.766782 12.9174 0.68664 12.7675 0.543076C12.6176 0.399512 12.5289 0.203614 12.52 -0.00374985H11.462C11.456 0.101995 11.4292 0.205512 11.3831 0.300873C11.337 0.396234 11.2725 0.481566 11.1934 0.55198C11.1143 0.622395 11.022 0.676509 10.922 0.711224C10.8219 0.745939 10.716 0.760573 10.6102 0.754287C10.4137 0.740648 10.2287 0.656405 10.0894 0.517093C9.95009 0.37778 9.86585 0.192795 9.85221 -0.00374985H8.79426C8.79164 0.101513 8.7682 0.205214 8.72528 0.301364C8.68236 0.397513 8.62081 0.484205 8.54419 0.556432C8.46757 0.628658 8.3774 0.684987 8.27889 0.722164C8.18037 0.759341 8.07547 0.77663 7.97024 0.773032C7.76652 0.765603 7.57315 0.681402 7.42894 0.537325C7.28472 0.393249 7.20033 0.19996 7.19271 -0.00374985H6.13476C6.12837 0.20547 6.04077 0.403982 5.89052 0.549717C5.74027 0.695451 5.53917 0.776954 5.32986 0.776954C5.12054 0.776954 4.91945 0.695451 4.7692 0.549717C4.61895 0.403982 4.53134 0.20547 4.52496 -0.00374985H3.46701C3.45841 0.20906 3.36632 0.409916 3.21068 0.555309C3.05504 0.700702 2.84839 0.778924 2.63549 0.773032C2.43177 0.765603 2.2384 0.681402 2.09419 0.537325C1.94997 0.393249 1.86558 0.19996 1.85796 -0.00374985H0.800007C0.800007 0.21144 0.713781 0.418381 0.565323 0.56609C0.413594 0.716158 0.208889 0.800464 -0.0045166 0.800774V1.85873C0.208033 1.86732 0.408588 1.95951 0.553502 2.11524C0.698417 2.27097 0.775963 2.47762 0.769266 2.69024C0.763108 2.89386 0.67972 3.08752 0.536021 3.23191C0.392321 3.37631 0.199073 3.46063 -0.0045166 3.46777V4.52573C0.100926 4.5294 0.204608 4.55384 0.300594 4.59764C0.39658 4.64144 0.482984 4.70374 0.554859 4.78098C0.626733 4.85821 0.682668 4.94887 0.719459 5.04775C0.75625 5.14664 0.773175 5.25181 0.769266 5.35724C0.763108 5.56086 0.67972 5.75452 0.536021 5.89891C0.392321 6.04331 0.199073 6.12763 -0.0045166 6.13477V7.19273C0.208856 7.19273 0.41349 7.27749 0.564367 7.42837C0.715245 7.57924 0.800007 7.78388 0.800007 7.99725C0.800007 8.21062 0.715245 8.41526 0.564367 8.56613C0.41349 8.71701 0.208856 8.80177 -0.0045166 8.80177V9.85973C0.102953 9.85644 0.209988 9.87477 0.31024 9.91363C0.410492 9.95249 0.50192 10.0111 0.5791 10.0859C0.656281 10.1608 0.717643 10.2504 0.759546 10.3494C0.80145 10.4484 0.823042 10.5549 0.823042 10.6624C0.823042 10.7699 0.80145 10.8763 0.759546 10.9753C0.717643 11.0744 0.656281 11.1639 0.5791 11.2388C0.50192 11.3137 0.410492 11.3723 0.31024 11.4111C0.209988 11.45 0.102953 11.4683 -0.0045166 11.465V12.5267C0.100926 12.5304 0.204608 12.5548 0.300594 12.5986C0.39658 12.6424 0.482984 12.7047 0.554859 12.782C0.626733 12.8592 0.682668 12.9499 0.719459 13.0488C0.75625 13.1476 0.773175 13.2528 0.769266 13.3582C0.762882 13.5614 0.679309 13.7546 0.535558 13.8983C0.391806 14.0421 0.198679 14.1256 -0.0045166 14.132V15.1937C0.102953 15.1904 0.209988 15.2088 0.31024 15.2476C0.410492 15.2865 0.50192 15.3451 0.5791 15.4199C0.656281 15.4948 0.717643 15.5844 0.759546 15.6834C0.80145 15.7824 0.823042 15.8889 0.823042 15.9964C0.823042 16.1039 0.80145 16.2103 0.759546 16.3093C0.717643 16.4084 0.656281 16.4979 0.5791 16.5728C0.50192 16.6477 0.410492 16.7063 0.31024 16.7451C0.209988 16.784 0.102953 16.8023 -0.0045166 16.799V17.8607C0.100661 17.8642 0.204121 17.8884 0.299947 17.9319C0.395772 17.9754 0.482085 18.0373 0.553948 18.1142C0.625812 18.1911 0.681818 18.2814 0.718764 18.3799C0.75571 18.4785 0.772871 18.5833 0.769266 18.6885C0.763641 18.8923 0.680424 19.0862 0.536614 19.2308C0.392803 19.3753 0.199248 19.4594 -0.0045166 19.466V20.524C0.204703 20.5304 0.403215 20.618 0.54895 20.7682C0.694684 20.9185 0.776188 21.1196 0.776188 21.3289C0.776188 21.5382 0.694684 21.7393 0.54895 21.8895C0.403215 22.0398 0.204703 22.1274 -0.0045166 22.1338V23.1955C0.437109 23.1955 0.800007 23.5546 0.800007 23.9963H1.85796C1.87203 23.7831 1.96992 23.5842 2.13023 23.443C2.29054 23.3018 2.50023 23.2298 2.71347 23.2427C3.1191 23.2697 3.43926 23.5906 3.46701 23.9963H4.52496C4.53391 23.7889 4.62259 23.593 4.77249 23.4494C4.92238 23.3059 5.12192 23.2257 5.32948 23.2257C5.53704 23.2257 5.73658 23.3059 5.88648 23.4494C6.03638 23.593 6.12505 23.7889 6.134 23.9963H7.19196C7.20091 23.7889 7.28959 23.593 7.43948 23.4494C7.58938 23.3059 7.78892 23.2257 7.99648 23.2257C8.20404 23.2257 8.40358 23.3059 8.55348 23.4494C8.70337 23.593 8.79205 23.7889 8.801 23.9963H9.85896C9.86832 23.784 9.96074 23.5839 10.1163 23.4391C10.2719 23.2944 10.4781 23.2166 10.6905 23.2225C10.8936 23.2302 11.0863 23.3141 11.2304 23.4575C11.3745 23.6008 11.4593 23.7932 11.468 23.9963H12.526C12.538 23.783 12.6339 23.5831 12.7928 23.4404C12.9517 23.2977 13.1606 23.2236 13.374 23.2345C13.7841 23.2547 14.1155 23.5861 14.1358 23.9963H15.1937C15.2057 23.783 15.3017 23.5831 15.4606 23.4404C15.6195 23.2977 15.8284 23.2236 16.0417 23.2345C16.4519 23.2547 16.7833 23.5861 16.8035 23.9963H17.8615C17.8754 23.7919 17.9664 23.6004 18.1161 23.4606C18.2658 23.3208 18.463 23.243 18.6679 23.243C18.8727 23.243 19.0699 23.3208 19.2196 23.4606C19.3693 23.6004 19.4603 23.7919 19.4743 23.9963H20.533C20.5438 23.7907 20.6331 23.5972 20.7825 23.4556C20.9318 23.3139 21.1298 23.235 21.3356 23.235C21.5414 23.235 21.7394 23.3139 21.8887 23.4556C22.0381 23.5972 22.1274 23.7907 22.1383 23.9963H23.1917C23.1927 23.7835 23.2779 23.5799 23.4287 23.4298C23.5794 23.2797 23.7835 23.1955 23.9962 23.1955V22.1338C23.7831 22.1204 23.5839 22.0235 23.4419 21.8639C23.2999 21.7044 23.2267 21.4953 23.2382 21.282C23.2512 21.0857 23.3353 20.9008 23.4749 20.7621C23.6144 20.6233 23.7998 20.5403 23.9962 20.5285V19.4705C23.7889 19.4616 23.593 19.3729 23.4494 19.223C23.3058 19.0731 23.2257 18.8736 23.2257 18.666C23.2257 18.4584 23.3058 18.2589 23.4494 18.109C23.593 17.9591 23.7889 17.8704 23.9962 17.8615V16.7998C23.7832 16.7861 23.5842 16.689 23.4423 16.5295C23.3004 16.3701 23.2271 16.1612 23.2382 15.948C23.2512 15.7517 23.3353 15.5668 23.4749 15.4281C23.6144 15.2893 23.7998 15.2063 23.9962 15.1945V14.1328C23.8905 14.128 23.7867 14.1023 23.6909 14.0572C23.5951 14.0122 23.5092 13.9486 23.438 13.8702C23.3669 13.7919 23.3119 13.7002 23.2763 13.6005C23.2408 13.5007 23.2252 13.395 23.2307 13.2893C23.2418 13.0898 23.326 12.9015 23.4673 12.7603C23.6085 12.6191 23.7968 12.5348 23.9962 12.5237V11.4703C23.7827 11.4562 23.5833 11.3584 23.4414 11.1983C23.2995 11.0381 23.2265 10.8284 23.2382 10.6148C23.2512 10.4184 23.3353 10.2335 23.4749 10.0948C23.6144 9.95608 23.7998 9.87303 23.9962 9.86123V8.80327C23.7889 8.79432 23.593 8.70564 23.4494 8.55574C23.3058 8.40585 23.2257 8.20631 23.2257 7.99875C23.2257 7.79119 23.3058 7.59165 23.4494 7.44175C23.593 7.29186 23.7889 7.20318 23.9962 7.19423V6.13627C23.7827 6.12218 23.5833 6.02445 23.4414 5.86428C23.2995 5.70411 23.2265 5.49444 23.2382 5.28076C23.2524 5.08486 23.337 4.90069 23.4763 4.76221C23.6156 4.62373 23.8002 4.54028 23.9962 4.52723V3.46927C23.783 3.4584 23.5828 3.36356 23.4394 3.20549C23.2959 3.04743 23.2209 2.83899 23.2307 2.62576C23.2412 2.42612 23.3252 2.23743 23.4665 2.09607C23.6079 1.95471 23.7966 1.8707 23.9962 1.86023L23.997 1.85873ZM19.9286 11.696L13.5277 17.9215C14.1058 18.0114 14.6681 18.1434 15.2694 18.1434C16.7338 18.1434 18.4178 17.6988 19.5545 17.2294L18.9726 19.9744C17.2969 20.7789 16.2697 20.8464 15.2694 20.8464C14.1725 20.8464 13.1258 20.4865 12.0566 20.4865C11.4508 20.4865 10.5803 20.5337 10.0449 20.8891L8.88498 18.8347L15.4884 12.2973H7.88926L6.43992 19.0994H3.26981L6.57263 3.52551H17.0614L16.3904 6.66937H9.09567L8.4711 9.5943H20.4437L19.9286 11.696Z" fill="white"/>
</g>
<defs>
<clipPath id="clip0_85_86">
<rect width="24" height="24" fill="white"/>
</clipPath>
</defs>
</svg>
