<svg width="24" height="24" viewBox="0 0 24 24" fill="none" xmlns="http://www.w3.org/2000/svg">
<g clip-path="url(#clip0_11_585)">
<path fill-rule="evenodd" clip-rule="evenodd" d="M21 6.74693V20.9905C21 21.7857 20.684 22.5485 20.1214 23.1108C19.5587 23.6732 18.7957 23.9891 18 23.9891H12V22.4898H18C18.3979 22.4898 18.7794 22.3318 19.0607 22.0506C19.342 21.7695 19.5 21.3881 19.5 20.9905V6.74693H16.5C15.9033 6.74693 15.331 6.50999 14.909 6.08822C14.4871 5.66646 14.25 5.09442 14.25 4.49795V1.49932H6.00004C5.60221 1.49932 5.22068 1.65728 4.93938 1.93846C4.65807 2.21963 4.50004 2.60099 4.50004 2.99864V16.4925H3.00004V2.99864C3.00004 2.20335 3.31611 1.44063 3.87872 0.87828C4.44132 0.315927 5.20439 0 6.00004 0L14.25 0L21 6.74693ZM4.77904 22.9246C4.6795 22.7134 4.62291 22.4846 4.61254 22.2514H5.76004C5.78087 22.3684 5.82558 22.48 5.89138 22.579C5.95719 22.6781 6.04268 22.7625 6.14254 22.8271C6.24754 22.9006 6.37204 22.9576 6.51604 22.998C6.65854 23.04 6.81904 23.0595 6.99454 23.0595C7.24054 23.0595 7.44754 23.025 7.61404 22.9546C7.76701 22.8974 7.89995 22.7968 7.99654 22.6652C8.08227 22.5366 8.12674 22.3849 8.12404 22.2304C8.12828 22.1364 8.10961 22.0428 8.06963 21.9577C8.02965 21.8725 7.96956 21.7984 7.89454 21.7416C7.74304 21.6217 7.51204 21.5257 7.20154 21.4522L6.27304 21.2378C5.98731 21.1774 5.71392 21.0689 5.46454 20.917C5.24463 20.7819 5.0633 20.5923 4.93804 20.3667C4.81044 20.1249 4.74692 19.8544 4.75354 19.5811C4.75354 19.2153 4.84804 18.8959 5.03854 18.623C5.22904 18.3517 5.49304 18.1402 5.83054 17.9903C6.16654 17.8404 6.55504 17.7669 6.99454 17.7669C7.45204 17.7669 7.84054 17.8419 8.16454 17.9948C8.48854 18.1477 8.73904 18.3532 8.91454 18.6095C9.09454 18.8644 9.19354 19.1478 9.21454 19.4582H8.08954C8.06386 19.3159 8.00185 19.1826 7.90954 19.0713C7.8105 18.9515 7.68317 18.8582 7.53904 18.7999C7.36347 18.7284 7.17507 18.6937 6.98554 18.698C6.66004 18.698 6.40354 18.773 6.21604 18.9259C6.12812 18.9935 6.05733 19.0809 6.00939 19.1809C5.96145 19.2809 5.93769 19.3908 5.94004 19.5016C5.94004 19.683 6.01204 19.8315 6.15454 19.9514C6.33418 20.0844 6.54206 20.1742 6.76204 20.2138L7.69204 20.4282C8.01904 20.5032 8.30104 20.6081 8.54104 20.7446C8.78104 20.8795 8.96854 21.0594 9.10354 21.2813C9.23854 21.5032 9.30604 21.7836 9.30604 22.1209C9.30604 22.4913 9.21154 22.8196 9.02404 23.1045C8.82436 23.3979 8.54337 23.6266 8.21554 23.7627C7.86454 23.9201 7.43554 23.9996 6.92854 23.9996C6.54754 23.9996 6.21454 23.9546 5.93104 23.8646C5.66981 23.7863 5.42631 23.658 5.21404 23.4868C5.03089 23.3323 4.88263 23.1406 4.77904 22.9246V22.9246ZM0.123036 22.8751C0.0402697 22.6515 -0.00139956 22.4148 3.58599e-05 22.1764H1.14754C1.15021 22.3183 1.18782 22.4573 1.25704 22.5812C1.3261 22.6989 1.42606 22.7955 1.5461 22.8605C1.66613 22.9255 1.80167 22.9565 1.93804 22.9501C2.22304 22.9501 2.43304 22.8676 2.57104 22.7042C2.70904 22.5392 2.77804 22.3069 2.77804 22.0055V17.8899H3.96304V21.9755C3.96304 22.6352 3.78454 23.136 3.42754 23.4823C3.07354 23.8272 2.58154 23.9996 1.95154 23.9996C1.66082 24.005 1.37156 23.9572 1.09804 23.8586C0.868318 23.7709 0.660125 23.6349 0.487536 23.4598C0.327588 23.2917 0.203569 23.0927 0.123036 22.8751V22.8751Z" fill="white"/>
</g>
<defs>
<clipPath id="clip0_11_585">
<rect width="24" height="24" fill="white"/>
</clipPath>
</defs>
</svg>
