<svg width="24" height="24" viewBox="0 0 24 24" fill="none" xmlns="http://www.w3.org/2000/svg">
<path d="M20.3834 11.9714C20.1323 11.3742 19.8462 10.6975 19.5683 9.86215C18.8391 7.67538 21.1689 5.29015 21.1911 5.268L19.8858 3.96277C19.7566 4.092 16.7262 7.17323 17.8163 10.4455C18.1172 11.3483 18.4182 12.0609 18.6822 12.6886C19.2982 13.9058 19.618 15.2512 19.6154 16.6154C19.5072 17.7149 19.0851 18.7602 18.3993 19.6265C17.7135 20.4928 16.7931 21.1436 15.7477 21.5012C16.0779 20.2068 16.073 18.8495 15.7334 17.5575C15.3937 16.2655 14.7306 15.0813 13.8065 14.1166L12.8428 13.1529L12.3055 14.4055C10.6108 18.36 8.59385 20.0862 7.40769 20.8062C6.67952 20.3602 6.06762 19.7478 5.6223 19.0192C5.17699 18.2907 4.91098 17.4668 4.84615 16.6154C4.90983 15.4534 5.20119 14.3152 5.70369 13.2655C6.29963 12.0002 6.6358 10.6283 6.69231 9.23077V7.58954C7.49908 7.92185 8.53846 8.79231 8.53846 11.0769V13.4797L10.1474 11.6945C13.02 8.50615 12.4209 4.70954 11.2606 2.17938C12.1426 2.47338 12.9 3.05563 13.4109 3.8324C13.9217 4.60916 14.1563 5.53524 14.0769 6.46154H15.9231C15.9231 1.35046 11.6963 0 9.46154 0H7.61538L8.72308 1.476C8.84954 1.64677 11.3649 5.10092 9.972 8.57262C9.66203 7.70019 9.09399 6.94271 8.34332 6.40077C7.59265 5.85883 6.69488 5.55808 5.76923 5.53846H4.84615V9.23077C4.78248 10.3928 4.49111 11.5309 3.98862 12.5806C3.39267 13.8459 3.05651 15.2179 3 16.6154C3 20.1674 6.52892 24 12.2308 24C17.9326 24 21.4615 20.1674 21.4615 16.6154C21.4629 15.0052 21.094 13.4163 20.3834 11.9714ZM9.30923 21.7163C11.012 20.3068 12.3875 18.5435 13.3403 16.5489C13.849 17.3703 14.138 18.3086 14.1795 19.2738C14.221 20.239 14.0138 21.1986 13.5775 22.0606C13.1311 22.1207 12.6812 22.1518 12.2308 22.1538C11.2401 22.1607 10.2544 22.0131 9.30923 21.7163Z" fill="white"/>
</svg>
