<svg width="24" height="24" viewBox="0 0 24 24" fill="none" xmlns="http://www.w3.org/2000/svg">
<path d="M20.5 19.5V7.5H8.5V6.75C8.5 5.5092 9.5092 4.5 10.75 4.5H13V0H10.75C8.96047 0.00222282 7.24487 0.714095 5.97948 1.97948C4.7141 3.24487 4.00222 4.96047 4 6.75V7.5H1V12H4V19.5H1V24H11.5V19.5H8.5V12H16.042V19.5H13V24H23.5V19.5H20.5Z" fill="white"/>
<path d="M18.25 4.5C19.4926 4.5 20.5 3.49264 20.5 2.25C20.5 1.00736 19.4926 0 18.25 0C17.0074 0 16 1.00736 16 2.25C16 3.49264 17.0074 4.5 18.25 4.5Z" fill="white"/>
</svg>
