<svg width="24" height="24" viewBox="0 0 24 24" fill="none" xmlns="http://www.w3.org/2000/svg">
<path d="M22.2857 4.42858H10.6457L8.66571 1.70286C8.50613 1.48447 8.29712 1.30693 8.05579 1.18478C7.81445 1.06262 7.54763 0.999304 7.27714 1.00001H1.71429C1.25963 1.00001 0.823594 1.18062 0.502103 1.50211C0.180612 1.8236 0 2.25963 0 2.71429V21.5714C0 22.0261 0.180612 22.4621 0.502103 22.7836C0.823594 23.1051 1.25963 23.2857 1.71429 23.2857H22.2857C22.7404 23.2857 23.1764 23.1051 23.4979 22.7836C23.8194 22.4621 24 22.0261 24 21.5714V6.14286C24 5.68821 23.8194 5.25217 23.4979 4.93068C23.1764 4.60919 22.7404 4.42858 22.2857 4.42858ZM22.2857 21.5714H1.71429V7.85715H7.98C8.43466 7.85715 8.87069 7.67654 9.19218 7.35505C9.51367 7.03355 9.69429 6.59752 9.69429 6.14286H1.71429V2.71429H7.27714L9.51429 5.79143C9.59408 5.90063 9.69858 5.9894 9.81925 6.05048C9.93992 6.11156 10.0733 6.14321 10.2086 6.14286H22.2857V21.5714Z" fill="white"/>
</svg>
