<svg width="24" height="24" viewBox="0 0 24 24" fill="none" xmlns="http://www.w3.org/2000/svg">
<path d="M23.7793 8.63575C23.657 8.45798 23.4923 8.31352 23.3 8.21542C23.1078 8.11732 22.8942 8.06869 22.6784 8.07391H5.44374C5.08009 8.08933 4.72785 8.20537 4.42624 8.40912C4.12463 8.61288 3.8855 8.89634 3.73545 9.22795C3.73297 9.26334 3.73297 9.29886 3.73545 9.33425L1.51848 17.1848V3.51848H6.44593L8.42754 6.24415C8.49822 6.34087 8.59079 6.4195 8.69767 6.4736C8.80456 6.5277 8.92273 6.55575 9.04253 6.55543H21.2587C21.2587 6.15271 21.0987 5.76648 20.8139 5.48171C20.5291 5.19694 20.1429 5.03696 19.7402 5.03696H9.42974L7.6759 2.62258C7.53454 2.42913 7.34941 2.27188 7.13564 2.16367C6.92187 2.05547 6.68553 1.99938 6.44593 2.00001H1.51848C1.11575 2.00001 0.729521 2.15999 0.444751 2.44476C0.159982 2.72953 0 3.11576 0 3.51848V20.7456C0.0118533 21.0188 0.130838 21.2764 0.331196 21.4625C0.531554 21.6487 0.797164 21.7484 1.07053 21.7402H19.9983C20.1678 21.7469 20.3346 21.6968 20.4722 21.5977C20.6098 21.4986 20.7102 21.3564 20.7576 21.1936L23.9388 9.72905C23.9981 9.54684 24.0146 9.35338 23.987 9.16375C23.9593 8.97411 23.8883 8.79342 23.7793 8.63575ZM19.3985 20.2217H2.20179L5.14764 9.73664C5.21953 9.64402 5.32162 9.57954 5.43615 9.55443H22.3899L19.3985 20.2217Z" fill="white"/>
</svg>
