<svg width="24" height="24" viewBox="0 0 24 24" fill="none" xmlns="http://www.w3.org/2000/svg">
<path fill-rule="evenodd" clip-rule="evenodd" d="M5.8 3C5.64087 3 5.48826 3.06321 5.37574 3.17574C5.26321 3.28826 5.2 3.44087 5.2 3.6V22.2C5.2 22.3591 5.26321 22.5117 5.37574 22.6243C5.48826 22.7368 5.64087 22.8 5.8 22.8H19C19.1591 22.8 19.3117 22.7368 19.4243 22.6243C19.5368 22.5117 19.6 22.3591 19.6 22.2V3.6C19.6 3.44087 19.5368 3.28826 19.4243 3.17574C19.3117 3.06321 19.1591 3 19 3H15.6502V1.8H19C19.4774 1.8 19.9352 1.98964 20.2728 2.32721C20.6104 2.66477 20.8 3.12261 20.8 3.6V22.2C20.8 22.6774 20.6104 23.1352 20.2728 23.4728C19.9352 23.8104 19.4774 24 19 24H5.8C5.32261 24 4.86477 23.8104 4.52721 23.4728C4.18964 23.1352 4 22.6774 4 22.2V3.6C4 3.12261 4.18964 2.66477 4.52721 2.32721C4.86477 1.98964 5.32261 1.8 5.8 1.8H9.1498V3H5.8Z" fill="white"/>
<path fill-rule="evenodd" clip-rule="evenodd" d="M8.2 1.8C8.2 1.32261 8.38964 0.864773 8.72721 0.527208C9.06477 0.189642 9.52261 0 10 0H14.8C15.2774 0 15.7352 0.189642 16.0728 0.527208C16.4104 0.864773 16.6 1.32261 16.6 1.8V3C16.6 3.47739 16.4104 3.93523 16.0728 4.27279C15.7352 4.61036 15.2774 4.8 14.8 4.8H10C9.52261 4.8 9.06477 4.61036 8.72721 4.27279C8.38964 3.93523 8.2 3.47739 8.2 3V1.8ZM10 1.2C9.84087 1.2 9.68826 1.26321 9.57574 1.37574C9.46321 1.48826 9.4 1.64087 9.4 1.8V3C9.4 3.15913 9.46321 3.31174 9.57574 3.42426C9.68826 3.53679 9.84087 3.6 10 3.6H14.8C14.9591 3.6 15.1117 3.53679 15.2243 3.42426C15.3368 3.31174 15.4 3.15913 15.4 3V1.8C15.4 1.64087 15.3368 1.48826 15.2243 1.37574C15.1117 1.26321 14.9591 1.2 14.8 1.2H10ZM7 10.2C7 10.0409 7.06321 9.88826 7.17574 9.77574C7.28826 9.66321 7.44087 9.6 7.6 9.6H11.8C11.9591 9.6 12.1117 9.66321 12.2243 9.77574C12.3368 9.88826 12.4 10.0409 12.4 10.2C12.4 10.3591 12.3368 10.5117 12.2243 10.6243C12.1117 10.7368 11.9591 10.8 11.8 10.8H7.6C7.44087 10.8 7.28826 10.7368 7.17574 10.6243C7.06321 10.5117 7 10.3591 7 10.2ZM7 7.2C7 7.04087 7.06321 6.88826 7.17574 6.77574C7.28826 6.66321 7.44087 6.6 7.6 6.6H16.9C17.0591 6.6 17.2117 6.66321 17.3243 6.77574C17.4368 6.88826 17.5 7.04087 17.5 7.2C17.5 7.35913 17.4368 7.51174 17.3243 7.62426C17.2117 7.73679 17.0591 7.8 16.9 7.8H7.6C7.44087 7.8 7.28826 7.73679 7.17574 7.62426C7.06321 7.51174 7 7.35913 7 7.2ZM8.2 15V16.2H9.4V15H8.2ZM7.6 13.8C7.44087 13.8 7.28826 13.8632 7.17574 13.9757C7.06321 14.0883 7 14.2409 7 14.4V16.8C7 16.9591 7.06321 17.1117 7.17574 17.2243C7.28826 17.3368 7.44087 17.4 7.6 17.4H10C10.1591 17.4 10.3117 17.3368 10.4243 17.2243C10.5368 17.1117 10.6 16.9591 10.6 16.8V14.4C10.6 14.2409 10.5368 14.0883 10.4243 13.9757C10.3117 13.8632 10.1591 13.8 10 13.8H7.6ZM14.8 15C14.881 15.0037 14.9618 14.991 15.0378 14.9626C15.1137 14.9341 15.183 14.8906 15.2417 14.8347C15.3003 14.7787 15.347 14.7115 15.3789 14.637C15.4108 14.5625 15.4273 14.4823 15.4274 14.4012C15.4275 14.3202 15.4112 14.2399 15.3794 14.1654C15.3476 14.0908 15.301 14.0235 15.2425 13.9674C15.184 13.9113 15.1147 13.8677 15.0389 13.8391C14.963 13.8106 14.8822 13.7977 14.8012 13.8012C14.6469 13.808 14.5011 13.874 14.3942 13.9855C14.2873 14.0971 14.2276 14.2455 14.2274 14.4C14.2273 14.5545 14.2867 14.7031 14.3934 14.8149C14.5 14.9266 14.6457 14.9929 14.8 15V15ZM14.8 16.2C15.2774 16.2 15.7352 16.0104 16.0728 15.6728C16.4104 15.3352 16.6 14.8774 16.6 14.4C16.6 13.9226 16.4104 13.4648 16.0728 13.1272C15.7352 12.7896 15.2774 12.6 14.8 12.6C14.3226 12.6 13.8648 12.7896 13.5272 13.1272C13.1896 13.4648 13 13.9226 13 14.4C13 14.8774 13.1896 15.3352 13.5272 15.6728C13.8648 16.0104 14.3226 16.2 14.8 16.2V16.2ZM12.4 18.768C12.4105 18.7557 12.4215 18.7439 12.433 18.7326C12.5314 18.6366 12.721 18.5094 13.0186 18.3828C13.6186 18.1278 14.359 18 14.8 18C15.241 18 15.9814 18.1278 16.5814 18.3828C16.879 18.5088 17.0686 18.6366 17.167 18.7326C17.1785 18.7437 17.1895 18.7553 17.2 18.7674V19.8H12.4V18.768ZM14.8 16.8C13.5982 16.8 11.2 17.4396 11.2 18.7092V21H18.4V18.7092C18.4 17.4396 16.0018 16.8 14.8 16.8Z" fill="white"/>
</svg>
