<svg width="24" height="24" viewBox="0 0 24 24" fill="none" xmlns="http://www.w3.org/2000/svg">
<path d="M21.529 4.64446C22.5104 5.8357 23 7.22548 23 8.8138C23 14.5704 19.7624 16.258 16.7201 16.7543C17.1126 17.4492 17.2108 18.2434 17.2108 19.0375V23.1065C17.2108 23.6028 16.9163 23.9007 16.5238 23.9007C16.4203 23.9021 16.3175 23.8826 16.2216 23.8432C16.1257 23.8038 16.0386 23.7454 15.9654 23.6713C15.8922 23.5973 15.8344 23.5091 15.7955 23.4121C15.7565 23.3151 15.7372 23.2112 15.7387 23.1065V19.0375C15.7904 18.6215 15.7464 18.199 15.6102 17.803C15.474 17.407 15.2493 17.0481 14.9535 16.7543L15.4442 15.4638C18.4866 15.0667 21.6271 14.074 21.6271 8.71453C21.6271 7.42402 21.1364 6.23278 20.2531 5.24008L20.0569 4.44701C20.4301 3.49581 20.4644 2.4429 20.1539 1.46891C19.6643 1.56709 18.6829 1.76672 17.0156 2.95796L16.4256 3.05614C14.1078 2.4608 11.6795 2.4608 9.36167 3.05614L8.77174 2.95796C7.00737 1.86599 6.02596 1.56818 5.53417 1.56818C5.23975 2.56088 5.23975 3.65176 5.63124 4.54628L5.43603 5.33935C4.45463 6.33205 3.96392 7.62256 3.96392 8.8138C3.96392 14.074 6.90815 15.166 10.1457 15.5631L10.5383 16.8536C9.94943 17.4492 9.65501 18.2434 9.75315 19.0375V23.2058C9.7546 23.3105 9.73529 23.4144 9.69634 23.5114C9.6574 23.6084 9.59962 23.6966 9.52643 23.7706C9.45323 23.8446 9.3661 23.9031 9.27019 23.9425C9.17428 23.9819 9.07153 24.0014 8.96802 23.9999C8.86452 24.0014 8.76177 23.9819 8.66586 23.9425C8.56995 23.9031 8.48282 23.8446 8.40962 23.7706C8.33642 23.6966 8.27865 23.6084 8.2397 23.5114C8.20076 23.4144 8.18145 23.3105 8.1829 23.2058V20.9236C4.94533 21.6185 3.6695 19.9309 2.68809 18.6415C2.19739 18.0459 1.80482 17.5496 1.31412 17.4503C1.21706 17.351 0.921557 16.9539 1.0197 16.5569C1.11784 16.1598 1.5104 15.862 1.90404 16.0605C2.88545 16.259 3.47322 17.0532 4.06098 17.7481C4.94533 18.9393 5.8286 20.0302 8.47732 19.4357V19.0386C8.38026 18.2444 8.57546 17.4503 8.96802 16.7554C6.0238 16.1598 2.58995 14.4722 2.58995 8.81489C2.58995 7.22657 3.08066 5.83679 4.06206 4.64555C3.76764 3.25686 3.86578 1.76781 4.35649 0.576567L4.84719 0.179487C5.04347 0.0802174 6.41744 -0.217592 9.26137 1.56818C11.6128 0.972636 14.0731 0.972636 16.4246 1.56818C19.1736 -0.317953 20.6457 -0.0212344 20.842 0.0791265L21.3327 0.476206C21.8234 1.86599 21.9215 3.25577 21.529 4.64446V4.64446Z" fill="white"/>
</svg>
