<svg width="24" height="24" viewBox="0 0 24 24" fill="none" xmlns="http://www.w3.org/2000/svg">
<path d="M23.5023 11.8078L13.2734 1.58417L12.5877 0.898539C12.4315 0.743349 12.2203 0.65625 12 0.65625C11.7798 0.65625 11.5686 0.743349 11.4124 0.898539L0.497791 11.8078C0.337715 11.9673 0.211205 12.1572 0.125727 12.3663C0.0402491 12.5755 -0.0024636 12.7996 0.000109727 13.0255C0.0106987 13.9574 0.78634 14.7012 1.71817 14.7012H2.84325V23.3233H21.1569V14.7012H22.3058C22.7584 14.7012 23.1846 14.5239 23.505 14.2036C23.6627 14.0464 23.7876 13.8594 23.8726 13.6536C23.9576 13.4477 24.0009 13.2271 24 13.0044C24 12.5543 23.8226 12.1281 23.5023 11.8078V11.8078ZM13.4825 21.4173H10.5176V16.0169H13.4825V21.4173ZM19.2508 12.7952V21.4173H15.1767V15.3816C15.1767 14.7965 14.7029 14.3227 14.1178 14.3227H9.88226C9.29722 14.3227 8.82336 14.7965 8.82336 15.3816V21.4173H4.74926V12.7952H2.20791L12.0027 3.00839L12.6142 3.6199L21.7948 12.7952H19.2508Z" fill="white"/>
</svg>
