<svg width="24" height="24" viewBox="0 0 24 24" fill="none" xmlns="http://www.w3.org/2000/svg">
<path d="M12 0C5.37321 0 0 5.37321 0 12C0 18.6268 5.37321 24 12 24C18.6268 24 24 18.6268 24 12C24 5.37321 18.6268 0 12 0ZM12 21.9643C6.49821 21.9643 2.03571 17.5018 2.03571 12C2.03571 6.49821 6.49821 2.03571 12 2.03571C17.5018 2.03571 21.9643 6.49821 21.9643 12C21.9643 17.5018 17.5018 21.9643 12 21.9643Z" fill="white"/>
<path d="M11 7.23214C11 7.55893 11.1298 7.87233 11.3609 8.1034C11.592 8.33447 11.9054 8.46429 12.2321 8.46429C12.5589 8.46429 12.8723 8.33447 13.1034 8.1034C13.3345 7.87233 13.4643 7.55893 13.4643 7.23214C13.4643 6.90536 13.3345 6.59196 13.1034 6.36089C12.8723 6.12981 12.5589 6 12.2321 6C11.9054 6 11.592 6.12981 11.3609 6.36089C11.1298 6.59196 11 6.90536 11 7.23214ZM12.8482 10.1071H11.6161C11.5031 10.1071 11.4107 10.1996 11.4107 10.3125V17.2946C11.4107 17.4076 11.5031 17.5 11.6161 17.5H12.8482C12.9612 17.5 13.0536 17.4076 13.0536 17.2946V10.3125C13.0536 10.1996 12.9612 10.1071 12.8482 10.1071Z" fill="white"/>
</svg>
