<svg width="24" height="24" viewBox="0 0 24 24" fill="none" xmlns="http://www.w3.org/2000/svg">
<path d="M12.136 3.458C13.9678 3.45862 15.751 4.04811 17.2222 5.13947C18.6934 6.23084 19.7749 7.76625 20.3069 9.51913C20.8389 11.272 20.7934 13.1495 20.1769 14.8745C19.5605 16.5995 18.4058 18.0806 16.8834 19.0993C15.3609 20.118 13.5513 20.6203 11.7216 20.5321C9.89187 20.4438 8.13899 19.7697 6.72164 18.6092C5.30429 17.4487 4.29754 15.8633 3.84998 14.087C3.40242 12.3107 3.53775 10.4375 4.236 8.744C4.51943 9.1298 4.88289 9.44978 5.3015 9.68204C5.72011 9.91429 6.18396 10.0533 6.66131 10.0896C7.13865 10.1259 7.6182 10.0586 8.06711 9.89234C8.51602 9.72605 8.92369 9.4647 9.2622 9.1262C9.6007 8.78769 9.86205 8.38002 10.0283 7.93111C10.1946 7.4822 10.2619 7.00265 10.2256 6.52531C10.1893 6.04796 10.0503 5.58411 9.81804 5.1655C9.58578 4.74689 9.2658 4.38343 8.88 4.1C9.91276 3.67465 11.0191 3.45651 12.136 3.458ZM12 0C5.373 0 0 5.373 0 12C0 18.627 5.373 24 12 24C18.627 24 24 18.627 24 12C24 5.373 18.627 0 12 0ZM12 1.22C17.953 1.22 22.78 6.047 22.78 12C22.78 17.953 17.953 22.78 12 22.78C6.047 22.78 1.22 17.953 1.22 12C1.22 6.047 6.047 1.22 12 1.22Z" fill="white"/>
</svg>
