<svg width="21" height="24" viewBox="0 0 21 24" fill="none" xmlns="http://www.w3.org/2000/svg">
<path d="M18.75 1.5H2.25C1.00781 1.5 0 2.50781 0 3.75V20.25C0 21.4922 1.00781 22.5 2.25 22.5H18.75C19.9922 22.5 21 21.4922 21 20.25V3.75C21 2.50781 19.9922 1.5 18.75 1.5ZM11.4281 17.8781C11.4281 19.9219 10.2281 20.8547 8.47969 20.8547C6.9 20.8547 5.98594 20.0391 5.51719 19.05L7.125 18.0797C7.43437 18.6281 7.71563 19.0922 8.39531 19.0922C9.04219 19.0922 9.45469 18.8391 9.45469 17.85V11.1422H11.4281V17.8781V17.8781ZM16.0969 20.8547C14.2641 20.8547 13.0781 19.9828 12.5016 18.8391L14.1094 17.9109C14.5312 18.6 15.0844 19.1109 16.0547 19.1109C16.8703 19.1109 17.3953 18.7031 17.3953 18.1359C17.3953 17.4609 16.8609 17.2219 15.9562 16.8234L15.4641 16.6125C14.0391 16.0078 13.0969 15.2437 13.0969 13.6359C13.0969 12.1547 14.2266 11.0297 15.9844 11.0297C17.2406 11.0297 18.1406 11.4656 18.7875 12.6094L17.25 13.5938C16.9125 12.9891 16.5469 12.75 15.9797 12.75C15.4031 12.75 15.0375 13.1156 15.0375 13.5938C15.0375 14.1844 15.4031 14.4234 16.2516 14.7938L16.7438 15.0047C18.4219 15.7219 19.3641 16.4578 19.3641 18.1078C19.3641 19.8797 17.9672 20.8547 16.0969 20.8547V20.8547Z" fill="white"/>
</svg>
