<svg width="24" height="24" viewBox="0 0 24 24" fill="none" xmlns="http://www.w3.org/2000/svg">
<path d="M4.16788 12L13.2156 0.439773C13.3554 0.2625 13.2292 0 13.0008 0H10.3656C10.1986 0 10.0383 0.0784093 9.93607 0.207955L1.23266 11.3284C1.08193 11.5205 1 11.7576 1 12.0017C1 12.2459 1.08193 12.4829 1.23266 12.675L9.93607 23.792C10.0383 23.925 10.1986 24 10.3656 24H13.0008C13.2292 24 13.3554 23.7375 13.2156 23.5602L4.16788 12ZM14.5315 12L23.5792 0.439773C23.719 0.2625 23.5929 0 23.3645 0H20.7292C20.5622 0 20.402 0.0784093 20.2997 0.207955L11.5963 11.3284C11.4456 11.5205 11.3636 11.7576 11.3636 12.0017C11.3636 12.2459 11.4456 12.4829 11.5963 12.675L20.2997 23.792C20.402 23.925 20.5622 24 20.7292 24H23.3645C23.5929 24 23.719 23.7375 23.5792 23.5602L14.5315 12Z" fill="white"/>
</svg>
