<svg width="37" height="40" viewBox="0 0 37 40" fill="none" xmlns="http://www.w3.org/2000/svg">
<path d="M26 4.72955H12.42L10.11 1.65073C9.92381 1.40404 9.67997 1.20351 9.39842 1.06553C9.11686 0.927543 8.80557 0.856025 8.49 0.856818H2C1.46957 0.856818 0.960859 1.06083 0.585786 1.42397C0.210714 1.78711 0 2.27963 0 2.79319V24.0932C0 24.6068 0.210714 25.0993 0.585786 25.4624C0.960859 25.8256 1.46957 26.0296 2 26.0296H26C26.5304 26.0296 27.0391 25.8256 27.4142 25.4624C27.7893 25.0993 28 24.6068 28 24.0932V6.66592C28 6.15236 27.7893 5.65984 27.4142 5.2967C27.0391 4.93356 26.5304 4.72955 26 4.72955ZM26 24.0932H2V8.60229H9.31C9.84043 8.60229 10.3491 8.39828 10.7242 8.03514C11.0993 7.672 11.31 7.17948 11.31 6.66592H2V2.79319H8.49L11.1 6.26897C11.1931 6.39231 11.315 6.49258 11.4558 6.56157C11.5966 6.63056 11.7522 6.66632 11.91 6.66592H26V24.0932Z" fill="white"/>
<path d="M37 29C37 35.0751 32.0751 40 26 40C19.9249 40 15 35.0751 15 29C15 22.9249 19.9249 18 26 18C32.0751 18 37 22.9249 37 29Z" fill="#111111"/>
<path d="M26 23C24.2769 23 22.875 24.3458 22.875 26V27.8H22.25C21.5606 27.8 21 28.3382 21 29V33.8C21 34.4618 21.5606 35 22.25 35H29.75C30.4394 35 31 34.4618 31 33.8V29C31 28.3382 30.4394 27.8 29.75 27.8H29.125V26C29.125 24.3458 27.7231 23 26 23ZM29.75 29L29.7513 33.8H22.25V29H29.75ZM24.125 27.8V26C24.125 25.0076 24.9662 24.2 26 24.2C27.0338 24.2 27.875 25.0076 27.875 26V27.8H24.125Z" fill="white"/>
</svg>
