<svg width="24" height="24" viewBox="0 0 24 24" fill="none" xmlns="http://www.w3.org/2000/svg">
<g clip-path="url(#clip0_2_44)">
<path d="M20.25 2C21.2446 2 22.1984 2.39509 22.9017 3.09835C23.6049 3.80161 24 4.75544 24 5.75V17.75C24 18.7446 23.6049 19.6984 22.9017 20.4017C22.1984 21.1049 21.2446 21.5 20.25 21.5H3.75002C2.75546 21.5 1.80164 21.1049 1.09837 20.4017C0.395113 19.6984 2.47955e-05 18.7446 2.47955e-05 17.75V5.75C2.47955e-05 4.75544 0.395113 3.80161 1.09837 3.09835C1.80164 2.39509 2.75546 2 3.75002 2H20.25ZM22.5 7.9415L12.381 13.8965C12.2854 13.9527 12.1784 13.9869 12.0679 13.9968C11.9574 14.0066 11.8461 13.9918 11.742 13.9535L11.619 13.8965L1.50002 7.9445V17.75C1.50002 18.3467 1.73708 18.919 2.15903 19.341C2.58099 19.7629 3.15329 20 3.75002 20H20.25C20.8468 20 21.4191 19.7629 21.841 19.341C22.263 18.919 22.5 18.3467 22.5 17.75V7.9415ZM20.25 3.5H3.75002C3.15329 3.5 2.58099 3.73705 2.15903 4.15901C1.73708 4.58097 1.50002 5.15326 1.50002 5.75V6.203L12 12.38L22.5 6.2V5.75C22.5 5.15326 22.263 4.58097 21.841 4.15901C21.4191 3.73705 20.8468 3.5 20.25 3.5V3.5Z" fill="white"/>
</g>
<defs>
<clipPath id="clip0_2_44">
<rect width="24" height="24" fill="white"/>
</clipPath>
</defs>
</svg>
