<svg width="24" height="24" viewBox="0 0 24 24" fill="none" xmlns="http://www.w3.org/2000/svg">
<path d="M20.75 22H3.25C2.41986 22.0001 1.62117 21.6824 1.01777 21.1123C0.414367 20.5422 0.0519987 19.7628 0.00500013 18.934L1.69987e-08 18.75V4.25C-7.00219e-05 3.67987 0.216295 3.13098 0.605369 2.71425C0.994443 2.29751 1.52721 2.04402 2.096 2.005L2.25 2H17.75C18.3201 1.99993 18.869 2.2163 19.2858 2.60537C19.7025 2.99444 19.956 3.52721 19.995 4.096L20 4.25V5H21.75C22.3201 4.99993 22.869 5.2163 23.2858 5.60537C23.7025 5.99444 23.956 6.52721 23.995 7.096L24 7.25V18.75C24.0001 19.5801 23.6824 20.3788 23.1123 20.9822C22.5422 21.5856 21.7628 21.948 20.934 21.995L20.75 22H3.25H20.75ZM3.25 20.5H20.75C21.1893 20.5 21.6126 20.3347 21.9357 20.037C22.2588 19.7392 22.4581 19.3309 22.494 18.893L22.5 18.75V7.25C22.5 7.06876 22.4344 6.89366 22.3152 6.75707C22.1961 6.62048 22.0316 6.53165 21.852 6.507L21.75 6.5H20V17.25C20 17.4312 19.9344 17.6063 19.8152 17.7429C19.6961 17.8795 19.5316 17.9684 19.352 17.993L19.25 18C19.0688 18 18.8937 17.9344 18.7571 17.8152C18.6205 17.6961 18.5316 17.5316 18.507 17.352L18.5 17.25V4.25C18.5 4.06876 18.4344 3.89366 18.3152 3.75707C18.1961 3.62048 18.0316 3.53165 17.852 3.507L17.75 3.5H2.25C2.06876 3.50001 1.89366 3.56564 1.75707 3.68477C1.62048 3.80389 1.53165 3.96845 1.507 4.148L1.5 4.25V18.75C1.50002 19.1892 1.66517 19.6123 1.96268 19.9354C2.26019 20.2585 2.6683 20.4579 3.106 20.494L3.25 20.5H20.75H3.25ZM8.246 11.004C8.936 11.004 9.496 11.564 9.496 12.254V15.75C9.496 16.44 8.936 17 8.246 17H4.75C4.06 17 3.5 16.44 3.5 15.75V12.254C3.5 11.564 4.06 11.004 4.75 11.004H8.246ZM12.25 15.5H15.746C15.936 15.5001 16.1189 15.5722 16.2578 15.702C16.3966 15.8317 16.4811 16.0093 16.494 16.1989C16.507 16.3885 16.4475 16.5759 16.3276 16.7233C16.2077 16.8707 16.0362 16.9671 15.848 16.993L15.746 17H12.25C12.06 16.9999 11.8771 16.9278 11.7382 16.798C11.5994 16.6683 11.5149 16.4907 11.502 16.3011C11.489 16.1115 11.5485 15.9241 11.6684 15.7767C11.7883 15.6293 11.9597 15.5329 12.148 15.507L12.25 15.5H15.746H12.25V15.5ZM7.997 12.504H5V15.5H7.997V12.504ZM12.25 11.004H15.746C15.936 11.0041 16.1189 11.0762 16.2578 11.206C16.3966 11.3357 16.4811 11.5133 16.494 11.7029C16.507 11.8925 16.4475 12.0799 16.3276 12.2273C16.2077 12.3747 16.0362 12.4711 15.848 12.497L15.746 12.504H12.25C12.0586 12.5059 11.8737 12.4347 11.7332 12.3047C11.5927 12.1748 11.5072 11.9961 11.4941 11.8051C11.4811 11.6142 11.5415 11.4255 11.6631 11.2777C11.7847 11.1298 11.9581 11.0341 12.148 11.01L12.25 11.004H15.746H12.25V11.004ZM4.246 6.497H15.746C15.936 6.49706 16.1189 6.56925 16.2578 6.69897C16.3966 6.8287 16.4811 7.0063 16.494 7.19588C16.507 7.38546 16.4475 7.57289 16.3276 7.7203C16.2077 7.86771 16.0362 7.9641 15.848 7.99L15.746 7.997H4.246C4.05606 7.99669 3.87332 7.92433 3.73466 7.79452C3.596 7.66471 3.51175 7.48713 3.49893 7.29762C3.48611 7.10812 3.54567 6.92081 3.66559 6.77351C3.7855 6.62621 3.95683 6.52989 4.145 6.504L4.246 6.497H15.746H4.246V6.497Z" fill="white"/>
</svg>
