<svg width="24" height="24" viewBox="0 0 24 24" fill="none" xmlns="http://www.w3.org/2000/svg">
<path fill-rule="evenodd" clip-rule="evenodd" d="M23 6.42881L12 0L1 6.42881V17.5712L2.70246 18.5661L6.18354 17.1559C6.65199 16.9659 7.05315 16.6402 7.33565 16.2205C7.61815 15.8008 7.76912 15.3062 7.76923 14.8V6.0678H9.46154V14.8C9.46142 15.6438 9.20977 16.4683 8.73882 17.168C8.26788 17.8676 7.5991 18.4105 6.81815 18.7271L4.55046 19.6458L12 24L23 17.5729V6.42881ZM11.1538 9.45763C11.1538 8.55859 11.5104 7.69637 12.1452 7.06065C12.7799 6.42494 13.6408 6.0678 14.5385 6.0678H16.5134C18.226 6.0678 19.6154 7.45763 19.6154 9.17458V9.45763H17.9231V9.17458C17.9231 8.98917 17.8866 8.80557 17.8158 8.63428C17.7449 8.46298 17.6411 8.30734 17.5102 8.17624C17.3793 8.04513 17.2239 7.94114 17.0529 7.87018C16.8818 7.79923 16.6985 7.76271 16.5134 7.76271H14.5385C14.0896 7.76271 13.6592 7.94128 13.3418 8.25914C13.0245 8.577 12.8462 9.00811 12.8462 9.45763C12.8462 9.90715 13.0245 10.3383 13.3418 10.6561C13.6592 10.974 14.0896 11.1525 14.5385 11.1525H16.2308C17.1284 11.1525 17.9893 11.5097 18.6241 12.1454C19.2588 12.7811 19.6154 13.6433 19.6154 14.5424C19.6154 15.4414 19.2588 16.3036 18.6241 16.9393C17.9893 17.5751 17.1284 17.9322 16.2308 17.9322H14.5385C13.6408 17.9322 12.7799 17.5751 12.1452 16.9393C11.5104 16.3036 11.1538 15.4414 11.1538 14.5424H12.8462C12.8462 14.9919 13.0245 15.423 13.3418 15.7409C13.6592 16.0587 14.0896 16.2373 14.5385 16.2373H16.2308C16.6796 16.2373 17.11 16.0587 17.4274 15.7409C17.7448 15.423 17.9231 14.9919 17.9231 14.5424C17.9231 14.0929 17.7448 13.6617 17.4274 13.3439C17.11 13.026 16.6796 12.8475 16.2308 12.8475H14.5385C13.6408 12.8475 12.7799 12.4903 12.1452 11.8546C11.5104 11.2189 11.1538 10.3567 11.1538 9.45763Z" fill="white"/>
</svg>
