<svg width="24" height="24" viewBox="0 0 24 24" fill="none" xmlns="http://www.w3.org/2000/svg">
<path d="M22.9955 18.139L17.9998 13.1365V9.42747C18.0005 9.31474 17.9789 9.20299 17.9362 9.09862C17.8936 8.99426 17.8307 8.89933 17.7513 8.81929L9.18234 0.253378C9.10268 0.173091 9.00791 0.109366 8.90348 0.0658778C8.79906 0.0223898 8.68706 0 8.57394 0C8.46082 0 8.34882 0.0223898 8.2444 0.0658778C8.13998 0.109366 8.0452 0.173091 7.96554 0.253378L0.253469 7.9627C0.173153 8.04233 0.109405 8.13707 0.0659013 8.24146C0.0223978 8.34584 0 8.4578 0 8.57088C0 8.68396 0.0223978 8.79592 0.0659013 8.90031C0.109405 9.00469 0.173153 9.09943 0.253469 9.17906L8.82244 17.745C8.90251 17.8244 8.99747 17.8872 9.10187 17.9298C9.20627 17.9724 9.31807 17.994 9.43084 17.9934H13.1498L18.1455 22.9959C18.7886 23.6388 19.6609 24 20.5705 24C21.4801 24 22.3524 23.6388 22.9955 22.9959C23.6387 22.353 24 21.481 24 20.5717C24 19.6625 23.6387 18.7905 22.9955 18.1476V18.139ZM3.43256 7.2089L5.39485 9.17906L6.61165 7.9627L4.64078 6.00111L6.00325 4.63913L9.67934 8.32247L10.8961 7.10611L7.21148 3.43133L8.57394 2.06935L14.2209 7.71429L7.71704 14.2158L2.07009 8.57088L3.43256 7.2089ZM21.7787 21.771C21.4576 22.09 21.0233 22.2691 20.5705 22.2691C20.1177 22.2691 19.6834 22.09 19.3623 21.771L14.1095 16.5286C13.9269 16.4031 13.7194 16.3184 13.5011 16.2802H9.78217L8.92527 15.4236L15.4291 8.92208L16.286 9.77868V13.4963C16.287 13.721 16.3762 13.9363 16.5345 14.0959L21.7787 19.3554C22.0979 19.6764 22.2771 20.1106 22.2771 20.5632C22.2771 21.0158 22.0979 21.45 21.7787 21.771V21.771Z" fill="white"/>
</svg>
