<svg width="24" height="24" viewBox="0 0 24 24" fill="none" xmlns="http://www.w3.org/2000/svg">
<path d="M4.85733 0C4.62995 0 4.41189 0.0903252 4.25111 0.251105C4.09033 0.411885 4 0.629949 4 0.857327V12.8565C4 13.766 4.3613 14.6382 5.00442 15.2814C5.64754 15.9245 6.5198 16.2858 7.42931 16.2858H8.28663V20.5724C8.28663 21.0225 8.37529 21.4682 8.54754 21.8841C8.71979 22.2999 8.97227 22.6778 9.29055 22.9961C9.60883 23.3144 9.98669 23.5668 10.4025 23.7391C10.8184 23.9113 11.2641 24 11.7142 24C12.1643 24 12.61 23.9113 13.0259 23.7391C13.4418 23.5668 13.8196 23.3144 14.1379 22.9961C14.4562 22.6778 14.7087 22.2999 14.8809 21.8841C15.0532 21.4682 15.1418 21.0225 15.1418 20.5724V16.2858H16.0026C16.9121 16.2858 17.7843 15.9245 18.4275 15.2814C19.0706 14.6382 19.4319 13.766 19.4319 12.8565V0.857327C19.4319 0.629949 19.3416 0.411885 19.1808 0.251105C19.02 0.0903252 18.8019 0 18.5745 0H4.85733ZM17.7172 10.2845H5.71465V1.71465H10.8586V4.29006C10.8586 4.51744 10.9489 4.7355 11.1097 4.89628C11.2705 5.05706 11.4886 5.14739 11.7159 5.14739C11.9433 5.14739 12.1614 5.05706 12.3222 4.89628C12.4829 4.7355 12.5733 4.51744 12.5733 4.29006V1.71465H14.2879V5.99443C14.2879 6.22181 14.3782 6.43987 14.539 6.60065C14.6998 6.76143 14.9179 6.85175 15.1452 6.85175C15.3726 6.85175 15.5907 6.76143 15.7515 6.60065C15.9122 6.43987 16.0026 6.22181 16.0026 5.99443V1.71465H17.7172V10.2845ZM5.71465 12.8565V11.9991H17.7172V12.8565C17.7172 13.3112 17.5366 13.7474 17.215 14.0689C16.8935 14.3905 16.4573 14.5711 16.0026 14.5711H14.2845C14.0571 14.5711 13.839 14.6614 13.6783 14.8222C13.5175 14.983 13.4272 15.2011 13.4272 15.4284V20.5724C13.4272 21.0267 13.2467 21.4624 12.9255 21.7836C12.6042 22.1049 12.1685 22.2853 11.7142 22.2853C11.2599 22.2853 10.8242 22.1049 10.503 21.7836C10.1818 21.4624 10.0013 21.0267 10.0013 20.5724V15.4284C10.0013 15.2011 9.91096 14.983 9.75018 14.8222C9.5894 14.6614 9.37134 14.5711 9.14396 14.5711H7.42931C6.97455 14.5711 6.53842 14.3905 6.21686 14.0689C5.8953 13.7474 5.71465 13.3112 5.71465 12.8565Z" fill="white"/>
</svg>
