<svg width="24" height="24" viewBox="0 0 24 24" fill="none" xmlns="http://www.w3.org/2000/svg">
<path d="M22.9501 3.80052L19.7555 0.608924C19.3656 0.218973 18.8436 0 18.2917 0C17.7398 0 17.2178 0.215973 16.8279 0.608924L13.3873 4.04349C12.9974 4.43345 12.7784 4.95838 12.7784 5.51031C12.7784 6.06524 12.9944 6.58418 13.3873 6.97713L16.075 9.66779C15.4627 11.0944 14.583 12.3905 13.4833 13.4863C12.3825 14.5932 11.0956 15.4661 9.66779 16.084L6.98013 13.3933C6.59018 13.0034 6.06824 12.7844 5.51631 12.7844C5.24407 12.7834 4.97437 12.8367 4.72302 12.9413C4.47166 13.0459 4.2437 13.1995 4.05249 13.3933L0.608924 16.8279C0.218973 17.2178 0 17.7428 0 18.2947C0 18.8496 0.215973 19.3686 0.608924 19.7615L3.80052 22.9531C4.46644 23.619 5.38433 24 6.32621 24C6.52118 24 6.71016 23.985 6.90214 23.952C10.8736 23.2981 14.8151 21.1834 17.9978 18.0038C21.1774 14.8181 23.2891 10.8766 23.949 6.90214C24.138 5.77428 23.76 4.61342 22.9501 3.80052V3.80052ZM21.8223 6.54518C21.2373 10.0817 19.3356 13.6093 16.4709 16.4739C13.6063 19.3386 10.0817 21.2403 6.54518 21.8253C6.10124 21.9003 5.64529 21.7503 5.32133 21.4293L2.18673 18.2947L5.51031 14.9681L9.10386 18.5677L9.13086 18.5947L9.77878 18.3547C11.7433 17.6324 13.5273 16.4916 15.0071 15.0113C16.4869 13.531 17.6271 11.7466 18.3487 9.78178L18.5887 9.13386L14.9651 5.51331L18.2887 2.18673L21.4233 5.32133C21.7473 5.64529 21.8973 6.10124 21.8223 6.54518Z" fill="white"/>
</svg>
