<svg width="24" height="24" viewBox="0 0 24 24" fill="none" xmlns="http://www.w3.org/2000/svg">
<path d="M9.85 8.42C9.48 8.27 9.08 8.21 8.67 8.22C8.41 8.22 8.18 8.22 7.99 8.23C7.79 8.22 7.65 8.23 7.58 8.24V11.6C7.72 11.61 7.85 11.62 7.97 11.62H8.5C8.89 11.62 9.28 11.56 9.65 11.44C9.97 11.35 10.25 11.16 10.47 10.91C10.68 10.66 10.78 10.32 10.78 9.88C10.79 9.57 10.71 9.26 10.55 8.99C10.3833 8.73036 10.138 8.53068 9.85 8.42ZM19.75 0.3H4.25C1.9 0.3 0 2.2 0 4.55V19.449C0 21.799 1.9 23.699 4.25 23.699H19.75C22.1 23.699 24 21.799 24 19.449V4.55C24 2.2 22.1 0.3 19.75 0.3ZM12.359 11.95C11.96 12.51 11.4 12.93 10.75 13.17C10.07 13.42 9.32 13.51 8.5 13.51C8.26 13.51 8.1 13.51 8 13.5C7.9 13.49 7.76 13.49 7.57 13.49V16.699C7.58 16.769 7.53 16.83 7.46 16.84H5.52C5.44 16.84 5.4 16.799 5.4 16.709V6.42C5.4 6.35 5.43 6.31 5.5 6.31C5.67 6.31 5.83 6.31 6.06 6.3C6.3 6.29 6.55 6.29 6.82 6.28C7.09 6.27 7.38 6.27 7.69 6.26C8 6.25 8.3 6.25 8.6 6.25C9.42 6.25 10.1 6.35 10.66 6.56C11.16 6.73 11.62 7.01 12 7.38C12.32 7.7 12.57 8.09 12.73 8.52C12.879 8.94 12.959 9.37 12.959 9.82C12.96 10.68 12.76 11.39 12.359 11.95V11.95ZM19.45 15.84C19.17 16.24 18.779 16.549 18.33 16.731C17.84 16.94 17.24 17.049 16.519 17.049C16.06 17.049 15.609 17.01 15.16 16.92C14.81 16.859 14.46 16.75 14.14 16.6C14.07 16.561 14.019 16.491 14.029 16.411V14.671C14.029 14.642 14.04 14.601 14.07 14.581C14.099 14.561 14.13 14.571 14.16 14.591C14.55 14.821 14.96 14.982 15.4 15.081C15.779 15.181 16.179 15.231 16.58 15.231C16.96 15.231 17.23 15.18 17.41 15.09C17.57 15.02 17.68 14.85 17.68 14.67C17.68 14.529 17.6 14.4 17.44 14.27C17.28 14.141 16.951 13.991 16.461 13.799C15.951 13.619 15.482 13.379 15.041 13.08C14.7281 12.8559 14.4683 12.5657 14.28 12.23C14.1211 11.9136 14.0424 11.563 14.051 11.209C14.051 10.779 14.171 10.369 14.392 9.999C14.642 9.599 15.011 9.279 15.441 9.079C15.91 8.84 16.5 8.73 17.21 8.73C17.62 8.73 18.04 8.76 18.45 8.82C18.75 8.86 19.04 8.94 19.31 9.05C19.349 9.06 19.39 9.1 19.41 9.14C19.42 9.18 19.43 9.22 19.43 9.26V10.89C19.43 10.93 19.41 10.97 19.38 10.99C19.29 11.01 19.24 11.01 19.2 10.99C18.9 10.83 18.58 10.72 18.24 10.65C17.87 10.57 17.5 10.52 17.12 10.52C16.92 10.51 16.71 10.54 16.519 10.59C16.39 10.62 16.279 10.69 16.209 10.79C16.159 10.87 16.129 10.97 16.129 11.06C16.129 11.15 16.169 11.24 16.23 11.32C16.32 11.43 16.439 11.52 16.57 11.59C16.799 11.71 17.04 11.82 17.279 11.92C17.82 12.1 18.34 12.35 18.82 12.65C19.15 12.859 19.42 13.14 19.609 13.48C19.769 13.798 19.849 14.15 19.839 14.509C19.85 14.98 19.71 15.449 19.45 15.84V15.84Z" fill="white"/>
</svg>
