<svg width="24" height="24" viewBox="0 0 24 24" fill="none" xmlns="http://www.w3.org/2000/svg">
<path d="M5.463 3.476C6.69 5.225 7.497 7.399 7.68 9.798C7.82183 11.577 7.59301 13.366 7.008 15.052C7.37606 14.6127 7.82842 14.2516 8.33836 13.99C8.84829 13.7284 9.40548 13.5717 9.977 13.529C10.027 13.525 10.076 13.523 10.125 13.521C10.205 13.03 10.595 10.071 9.148 6.841C8.08 4.455 6.148 3.681 5.463 3.476ZM7.24 3.513C7.24 3.513 9.646 4.579 10.566 9.06C11.173 12.015 10.615 13.896 10.164 14.833C11.3917 13.6695 12.9832 12.9652 14.67 12.839C15.53 12.774 16.365 12.859 17.152 13.072C17.052 12.331 16.559 9.658 14.42 7.152C11.157 3.329 7.24 3.513 7.24 3.513ZM22.057 13.214L4.137 16.263C4.60124 16.4237 5.0013 16.7297 5.27781 17.1358C5.55433 17.5418 5.69256 18.0262 5.672 18.517C5.6642 18.7242 5.62855 18.9293 5.566 19.127C5.621 19.1 8.255 17.852 11.908 17.093C15.146 16.42 17.631 16.733 18.193 16.82C18.5464 15.9805 19.0734 15.2252 19.7393 14.6038C20.4053 13.9823 21.1951 13.5087 22.057 13.214ZM15.844 17.292C13.526 17.292 11.203 17.787 9.23 18.458C6.362 19.434 6.279 19.806 3.68 19.501C1.844 19.286 0 18.386 0 18.386C0 18.386 2.406 20.356 4.914 20.513C6.9 20.638 8.419 19.691 10.229 19.099C12.89 18.228 14.74 18.129 16.482 18.124C19.361 18.116 24 19.353 24 19.353C24 19.353 21.89 18.309 18.967 17.633C17.9422 17.4019 16.8945 17.2868 15.844 17.292Z" fill="white"/>
</svg>
