<svg width="24" height="24" viewBox="0 0 24 24" fill="none" xmlns="http://www.w3.org/2000/svg">
<path d="M6.10125 7.01925V14.3745H6.83925V7.01925H6.10125ZM19.758 7.03125V14.3753H20.4922V7.03125H19.758ZM20.4922 11.664L22.9725 14.3753H23.988L21.414 11.6445L24 9.12075H23.0115L20.4922 11.664ZM16.4843 9.027C15.9488 9.027 15.5115 9.15225 15.1755 9.40575C14.8357 9.6555 14.6677 10.0155 14.6677 10.476C14.6677 10.734 14.7187 10.9485 14.8162 11.1165C14.9175 11.2845 15.0428 11.4247 15.195 11.5305C15.351 11.64 15.5235 11.73 15.7185 11.7997C15.9135 11.8695 16.1092 11.9325 16.308 11.9873C16.4835 12.0383 16.6515 12.0885 16.8082 12.1395C16.9687 12.1943 17.1053 12.2565 17.226 12.3345C17.3468 12.4125 17.4405 12.5063 17.511 12.612C17.5848 12.7344 17.6216 12.8756 17.6168 13.0185C17.6168 13.2293 17.523 13.4055 17.3317 13.554C17.1405 13.6988 16.8472 13.773 16.449 13.773C15.8437 13.773 15.3472 13.5308 14.9647 13.0388L14.3948 13.5427C14.6798 13.8592 14.9843 14.0857 15.309 14.2222C15.6293 14.3587 16.0005 14.4255 16.4183 14.4255C16.677 14.4282 16.9348 14.3941 17.184 14.3243C17.4068 14.2658 17.6175 14.1683 17.805 14.031C17.9805 13.902 18.1215 13.7423 18.2228 13.5548C18.324 13.3635 18.375 13.1528 18.375 12.9143C18.375 12.6525 18.324 12.4418 18.2228 12.27C18.1215 12.0983 17.9842 11.9498 17.8207 11.8328C17.6537 11.7123 17.471 11.6151 17.2778 11.544C17.0816 11.4709 16.8836 11.4031 16.6838 11.3408C16.5268 11.2923 16.3705 11.2416 16.215 11.1885C16.0764 11.1408 15.943 11.0793 15.8168 11.0048C15.7102 10.9381 15.6173 10.8518 15.543 10.7505C15.4718 10.6458 15.4349 10.5216 15.4373 10.395C15.4373 10.1917 15.5153 10.0237 15.6638 9.891C15.8123 9.75825 16.0777 9.68775 16.449 9.68775C16.7422 9.68775 16.9957 9.7425 17.211 9.852C17.4217 9.9615 17.6212 10.1295 17.805 10.3635L17.817 10.371L18.3563 9.879C18.0825 9.5625 17.8013 9.3435 17.505 9.219C17.1821 9.08572 16.835 9.0206 16.4858 9.02775L16.4843 9.027ZM1.797 9.0705C1.2075 9.0705 0.60975 9.16425 0 9.35175V16.9808H0.72675V14.2583C0.90675 14.3093 1.08975 14.3483 1.26975 14.3753C1.80001 14.4585 2.34222 14.4211 2.856 14.2658C3.18437 14.1666 3.48977 14.0031 3.7545 13.785C4.02 13.5705 4.23075 13.293 4.39125 12.957C4.55175 12.621 4.6335 12.219 4.6335 11.7458C4.6335 11.3633 4.56675 11.0078 4.434 10.6755C4.30464 10.3544 4.10886 10.0643 3.8595 9.82425C3.60088 9.58004 3.29514 9.39119 2.961 9.26925C2.58843 9.13225 2.19393 9.06463 1.797 9.06975V9.0705ZM10.6837 9.0705C10.3719 9.06894 10.0622 9.1233 9.7695 9.231C9.48075 9.34425 9.2265 9.5085 9.012 9.73125C8.78505 9.9764 8.60959 10.2646 8.496 10.5787C8.37075 10.9185 8.3085 11.3168 8.3085 11.778C8.3085 12.1298 8.3595 12.4613 8.4645 12.7778C8.5695 13.0943 8.72625 13.3717 8.937 13.6177C9.14775 13.8638 9.4095 14.0595 9.726 14.1998C10.0388 14.3445 10.4093 14.4143 10.8278 14.4143C11.2845 14.4143 11.6715 14.3475 11.9955 14.211C12.3184 14.0728 12.6075 13.8663 12.843 13.6058L12.4058 13.1445C12.2168 13.3556 11.9835 13.5224 11.7225 13.6328C11.4533 13.7385 11.1675 13.7887 10.8825 13.785C10.3275 13.785 9.89025 13.6095 9.56625 13.2615C9.246 12.9097 9.07425 12.4373 9.05475 11.8433H12.9922C13.008 10.9373 12.8168 10.2495 12.426 9.777C12.0315 9.3045 11.4532 9.06975 10.6837 9.06975V9.0705ZM10.7145 9.68775C10.9725 9.68775 11.199 9.7305 11.394 9.8085C11.5935 9.89025 11.7495 9.996 11.8748 10.1288C11.9955 10.2615 12.0893 10.4258 12.156 10.6133C12.2228 10.8045 12.2573 11.0077 12.2573 11.223H9.0735C9.12882 10.8163 9.29956 10.4339 9.5655 10.1212C9.67875 9.99225 9.831 9.891 10.0222 9.8085C10.2172 9.7305 10.4445 9.6915 10.71 9.6915L10.7145 9.68775ZM1.85925 9.699C2.4765 9.699 2.95275 9.8865 3.2925 10.2615C3.63225 10.6365 3.804 11.1285 3.804 11.7383C3.804 12.3983 3.6165 12.9023 3.2535 13.2578C2.88225 13.6095 2.39025 13.785 1.7655 13.785C1.5975 13.785 1.42575 13.7692 1.24575 13.7302C1.06998 13.6916 0.896464 13.6432 0.726 13.5855V9.867C0.906 9.80475 1.0935 9.76125 1.281 9.73425C1.47225 9.711 1.6635 9.699 1.85925 9.699V9.699ZM4.23825 16.2893V16.9808H8.66025V16.2893H4.23825Z" fill="white"/>
</svg>
