<svg width="24" height="24" viewBox="0 0 24 24" fill="none" xmlns="http://www.w3.org/2000/svg">
<path d="M8 1.71429C8.84764 1.71429 9.67623 1.96564 10.381 2.43656C11.0858 2.90748 11.6351 3.57682 11.9595 4.35993C12.2839 5.14304 12.3687 6.00475 12.2034 6.8361C12.038 7.66745 11.6298 8.43109 11.0305 9.03046C10.4311 9.62982 9.66745 10.038 8.8361 10.2034C8.00476 10.3687 7.14304 10.2839 6.35993 9.95948C5.57682 9.63511 4.90748 9.0858 4.43656 8.38101C3.96564 7.67623 3.71429 6.84763 3.71429 6C3.71429 4.86336 4.16582 3.77327 4.96954 2.96954C5.77327 2.16581 6.86336 1.71429 8 1.71429V1.71429ZM8 0C6.81331 0 5.65328 0.351894 4.66658 1.01118C3.67989 1.67047 2.91085 2.60754 2.45673 3.7039C2.0026 4.80026 1.88378 6.00665 2.11529 7.17054C2.3468 8.33443 2.91825 9.40352 3.75736 10.2426C4.59648 11.0818 5.66557 11.6532 6.82946 11.8847C7.99335 12.1162 9.19975 11.9974 10.2961 11.5433C11.3925 11.0891 12.3295 10.3201 12.9888 9.33342C13.6481 8.34672 14 7.18669 14 6C14 4.4087 13.3679 2.88258 12.2426 1.75736C11.1174 0.632141 9.5913 0 8 0V0Z" fill="white"/>
<path d="M16 24H14.4V19.8333C14.4 18.7283 13.9786 17.6685 13.2284 16.8871C12.4783 16.1057 11.4609 15.6667 10.4 15.6667H5.6C4.53913 15.6667 3.52172 16.1057 2.77157 16.8871C2.02143 17.6685 1.6 18.7283 1.6 19.8333V24H0V19.8333C0 18.2862 0.589998 16.8025 1.6402 15.7085C2.69041 14.6146 4.11479 14 5.6 14H10.4C11.8852 14 13.3096 14.6146 14.3598 15.7085C15.41 16.8025 16 18.2862 16 19.8333V24Z" fill="white"/>
<path d="M16 2H24V3H16V2Z" fill="white"/>
<path d="M16 7H24V8H16V7Z" fill="white"/>
<path d="M16 11H22V12H16V11Z" fill="white"/>
</svg>
