<svg width="24" height="24" viewBox="0 0 24 24" fill="none" xmlns="http://www.w3.org/2000/svg">
<path d="M7.9829 12.0019V10.2561C7.9829 10.0825 8.05187 9.916 8.17464 9.79323C8.29741 9.67046 8.46392 9.60148 8.63754 9.60148C8.81117 9.60148 8.97768 9.67046 9.10045 9.79323C9.22322 9.916 9.29219 10.0825 9.29219 10.2561V12.0019C9.29219 12.1755 9.22322 12.342 9.10045 12.4648C8.97768 12.5875 8.81117 12.6565 8.63754 12.6565C8.46392 12.6565 8.29741 12.5875 8.17464 12.4648C8.05187 12.342 7.9829 12.1755 7.9829 12.0019ZM12.129 12.6565C12.3026 12.6565 12.4691 12.5875 12.5919 12.4648C12.7147 12.342 12.7836 12.1755 12.7836 12.0019V9.38327C12.7836 9.20965 12.7147 9.04313 12.5919 8.92036C12.4691 8.79759 12.3026 8.72862 12.129 8.72862C11.9554 8.72862 11.7889 8.79759 11.6661 8.92036C11.5433 9.04313 11.4743 9.20965 11.4743 9.38327V12.0019C11.4743 12.1755 11.5433 12.342 11.6661 12.4648C11.7889 12.5875 11.9554 12.6565 12.129 12.6565ZM15.6204 12.6565C15.7941 12.6565 15.9606 12.5875 16.0833 12.4648C16.2061 12.342 16.2751 12.1755 16.2751 12.0019V8.51041C16.2751 8.33678 16.2061 8.17027 16.0833 8.0475C15.9606 7.92473 15.7941 7.85576 15.6204 7.85576C15.4468 7.85576 15.2803 7.92473 15.1575 8.0475C15.0348 8.17027 14.9658 8.33678 14.9658 8.51041V12.0019C14.9658 12.1755 15.0348 12.342 15.1575 12.4648C15.2803 12.5875 15.4468 12.6565 15.6204 12.6565ZM21.5123 4.80074V15.7115H22.6033C22.777 15.7115 22.9435 15.7805 23.0662 15.9033C23.189 16.026 23.258 16.1925 23.258 16.3662C23.258 16.5398 23.189 16.7063 23.0662 16.8291C22.9435 16.9518 22.777 17.0208 22.6033 17.0208H12.7836V19.2903C13.341 19.4483 13.8225 19.8025 14.1391 20.2877C14.4558 20.7729 14.5863 21.3562 14.5065 21.9301C14.4267 22.504 14.1421 23.0296 13.7051 23.41C13.2682 23.7905 12.7084 24 12.129 24C11.5496 24 10.9898 23.7905 10.5528 23.41C10.1159 23.0296 9.83124 22.504 9.75148 21.9301C9.67171 21.3562 9.8022 20.7729 10.1188 20.2877C10.4355 19.8025 10.9169 19.4483 11.4743 19.2903V17.0208H1.65465C1.48102 17.0208 1.31451 16.9518 1.19174 16.8291C1.06897 16.7063 1 16.5398 1 16.3662C1 16.1925 1.06897 16.026 1.19174 15.9033C1.31451 15.7805 1.48102 15.7115 1.65465 15.7115H2.74572V4.80074H2.52751C2.12239 4.80074 1.73386 4.63981 1.4474 4.35335C1.16093 4.06688 1 3.67835 1 3.27323V1.52751C1 1.12239 1.16093 0.733861 1.4474 0.447397C1.73386 0.160934 2.12239 0 2.52751 0H21.7305C22.1356 0 22.5241 0.160934 22.8106 0.447397C23.097 0.733861 23.258 1.12239 23.258 1.52751V3.27323C23.258 3.67835 23.097 4.06688 22.8106 4.35335C22.5241 4.63981 22.1356 4.80074 21.7305 4.80074H21.5123ZM12.129 20.5123C11.9132 20.5123 11.7022 20.5763 11.5228 20.6961C11.3434 20.816 11.2035 20.9864 11.121 21.1858C11.0384 21.3852 11.0168 21.6045 11.0589 21.8162C11.101 22.0278 11.2049 22.2223 11.3575 22.3748C11.5101 22.5274 11.7045 22.6314 11.9161 22.6735C12.1278 22.7156 12.3472 22.6939 12.5465 22.6114C12.7459 22.5288 12.9163 22.3889 13.0362 22.2095C13.1561 22.0301 13.2201 21.8191 13.2201 21.6033C13.2201 21.314 13.1051 21.0364 12.9005 20.8318C12.6959 20.6272 12.4184 20.5123 12.129 20.5123V20.5123ZM2.52751 3.49145H21.7305C21.7883 3.49145 21.8439 3.46846 21.8848 3.42753C21.9257 3.38661 21.9487 3.33111 21.9487 3.27323V1.52751C21.9487 1.46963 21.9257 1.41413 21.8848 1.37321C21.8439 1.33228 21.7883 1.30929 21.7305 1.30929H2.52751C2.46963 1.30929 2.41413 1.33228 2.37321 1.37321C2.33228 1.41413 2.30929 1.46963 2.30929 1.52751V3.27323C2.30929 3.33111 2.33228 3.38661 2.37321 3.42753C2.41413 3.46846 2.46963 3.49145 2.52751 3.49145ZM20.203 4.80074H4.05502V15.7115H20.203V4.80074Z" fill="white"/>
</svg>
