<svg width="24" height="24" viewBox="0 0 24 24" fill="none" xmlns="http://www.w3.org/2000/svg">
<path d="M8.06057 1.01024C7.33629 0.961385 6.624 1.09167 6 1.45167C5.16771 1.93167 4.61314 2.75196 4.31571 3.69738C4.01829 4.64024 3.94971 5.72881 4.05857 6.91767C4.06886 7.03767 4.09029 7.16367 4.10486 7.28624C3.99171 7.33424 3.87171 7.37881 3.762 7.43024C2.67857 7.92996 1.77086 8.53339 1.10143 9.26281C0.432857 9.9931 0 10.8828 0 11.8445C0 12.8054 0.432857 13.696 1.10143 14.4262C1.77 15.1557 2.67857 15.7591 3.762 16.2588C3.87171 16.3102 3.99171 16.3548 4.10486 16.4028C4.09029 16.5254 4.06886 16.6514 4.05771 16.7714C3.94971 17.9602 4.01829 19.048 4.31571 19.9925C4.61314 20.9371 5.16771 21.7565 6 22.2374C6.83229 22.7174 7.81886 22.7885 8.78571 22.5742C9.75257 22.36 10.7289 21.874 11.7034 21.1857C11.802 21.1171 11.9006 21.0357 12 20.962C12.0986 21.0357 12.1971 21.1162 12.2966 21.1857C13.2711 21.874 14.2474 22.36 15.2143 22.5742C16.1811 22.7885 17.1677 22.7182 18 22.2374C18.8323 21.7574 19.3869 20.9371 19.6843 19.9917C19.9817 19.0488 20.0503 17.9602 19.9414 16.7714C19.9311 16.6514 19.9097 16.5254 19.8951 16.4028C20.0083 16.3548 20.1283 16.3102 20.238 16.2588C21.3214 15.7591 22.2291 15.1557 22.8986 14.4262C23.5671 13.696 24 12.8062 24 11.8445C24 10.8837 23.5671 9.9931 22.8986 9.26281C22.23 8.53339 21.3214 7.92996 20.238 7.43024C20.1283 7.37881 20.0083 7.33424 19.8951 7.28624C19.9097 7.16367 19.9311 7.03767 19.9423 6.91767C20.0503 5.72881 19.9817 4.6411 19.6843 3.69653C19.3869 2.75196 18.8323 1.93253 18 1.45167C17.1677 0.971671 16.1811 0.900528 15.2143 1.11481C14.2474 1.3291 13.2711 1.8151 12.2966 2.50339C12.198 2.57196 12.0994 2.65339 12 2.7271C11.9014 2.65339 11.8029 2.57281 11.7034 2.50339C10.7289 1.8151 9.75257 1.3291 8.78571 1.11481C8.54703 1.06132 8.30461 1.02608 8.06057 1.00939V1.01024ZM7.94914 2.71767C8.09486 2.72796 8.25 2.75196 8.41543 2.78967C9.06343 2.93281 9.83914 3.29624 10.6577 3.86539C9.93902 4.54948 9.27286 5.2867 8.66486 6.07081C7.68325 6.20469 6.71309 6.41213 5.76257 6.69138C5.67857 5.69881 5.75057 4.8451 5.94943 4.21253C6.15429 3.56453 6.45943 3.16681 6.85714 2.93624C7.15543 2.76481 7.51029 2.68424 7.94829 2.71767H7.94914ZM16.0517 2.71767C16.4889 2.68424 16.8446 2.76481 17.1429 2.93624C17.5406 3.16596 17.8457 3.56453 18.0506 4.21253C18.2494 4.8451 18.3214 5.69881 18.2374 6.69138C17.2869 6.41213 16.3168 6.20469 15.3351 6.07081C14.7271 5.2867 14.061 4.54948 13.3423 3.86539C14.1609 3.29624 14.9366 2.93281 15.5846 2.78967C15.75 2.75281 15.9051 2.72796 16.0517 2.71767V2.71767ZM12 4.95224C12.3009 5.23081 12.6017 5.54024 12.9026 5.86424C12.6019 5.85232 12.301 5.84575 12 5.84453C11.6957 5.84453 11.3966 5.85396 11.0974 5.86424C11.3974 5.54024 11.6991 5.23081 12 4.95224ZM12 7.55881C12.8271 7.55881 13.6286 7.60767 14.3991 7.6891C14.8718 8.3363 15.3099 9.0081 15.7114 9.70167C16.1246 10.4174 16.4829 11.1357 16.7983 11.8445C16.4741 12.5775 16.1113 13.2928 15.7114 13.9874C15.3099 14.681 14.8718 15.3528 14.3991 16C13.6277 16.0814 12.8271 16.1302 12 16.1302C11.1729 16.1302 10.3714 16.0814 9.60086 16C9.12818 15.3528 8.69013 14.681 8.28857 13.9874C7.87543 13.2717 7.51714 12.5534 7.20171 11.8445C7.51629 11.1357 7.87543 10.4174 8.28857 9.70167C8.70171 8.98596 9.14486 8.31567 9.60086 7.6891C10.3977 7.60331 11.1985 7.55982 12 7.55881V7.55881ZM7.272 8.0731C7.11343 8.32596 6.95571 8.58053 6.804 8.84453C6.65475 9.10594 6.51015 9.36998 6.37029 9.63653C6.24172 9.22842 6.12878 8.81554 6.03171 8.39881C6.42343 8.27796 6.84171 8.17081 7.272 8.0731V8.0731ZM16.728 8.0731C17.1583 8.17081 17.5766 8.27796 17.9683 8.39881C17.8774 8.7991 17.76 9.21481 17.6297 9.63653C17.4898 9.36998 17.3453 9.10594 17.196 8.84453C17.0446 8.58464 16.8886 8.32745 16.728 8.0731V8.0731ZM4.41771 9.01853C4.63714 9.93139 4.93971 10.8785 5.33229 11.8445C4.95697 12.7623 4.65125 13.7069 4.41771 14.6705C3.51686 14.2462 2.81314 13.756 2.36571 13.2674C1.90714 12.7668 1.71429 12.304 1.71429 11.8445C1.71429 11.3851 1.90714 10.9222 2.36571 10.4217C2.81314 9.9331 3.51686 9.44281 4.41771 9.01853ZM19.5823 9.01853C20.4831 9.44281 21.1869 9.9331 21.6343 10.4217C22.0929 10.9222 22.2857 11.3851 22.2857 11.8445C22.2857 12.304 22.0929 12.7668 21.6343 13.2674C21.1869 13.756 20.4831 14.2462 19.5823 14.6705C19.3488 13.7069 19.043 12.7623 18.6677 11.8445C19.0428 10.9267 19.3485 9.98206 19.5823 9.01853V9.01853ZM12 9.2731C10.59 9.2731 9.42857 10.4345 9.42857 11.8445C9.42857 13.2545 10.59 14.416 12 14.416C13.41 14.416 14.5714 13.2545 14.5714 11.8445C14.5714 10.4345 13.41 9.2731 12 9.2731ZM12 10.9874C12.4834 10.9874 12.8571 11.3611 12.8571 11.8445C12.8571 12.328 12.4834 12.7017 12 12.7017C11.5166 12.7017 11.1429 12.328 11.1429 11.8445C11.1429 11.3611 11.5166 10.9874 12 10.9874ZM6.37029 14.0525C6.51 14.3165 6.65143 14.5805 6.80314 14.8445C6.95571 15.1085 7.11343 15.3631 7.272 15.616C6.84171 15.5182 6.42343 15.4111 6.03171 15.2902C6.12257 14.89 6.24 14.4742 6.37029 14.0525V14.0525ZM17.6297 14.0525C17.76 14.4742 17.8783 14.89 17.9683 15.2902C17.5766 15.4111 17.1583 15.5182 16.728 15.616C16.8866 15.3631 17.0443 15.1085 17.1969 14.8445C17.3486 14.5805 17.49 14.3165 17.6297 14.0525ZM5.76257 16.9977C6.66257 17.2634 7.63371 17.476 8.66486 17.6182C9.27314 18.4021 9.93929 19.1393 10.6577 19.8237C9.83914 20.3928 9.06343 20.7562 8.41543 20.8994C7.75286 21.0468 7.25486 20.9817 6.85714 20.7528C6.45943 20.5231 6.15429 20.1245 5.94943 19.4765C5.75057 18.844 5.67857 17.9902 5.76257 16.9977V16.9977ZM18.2374 16.9977C18.3214 17.9902 18.2494 18.844 18.0506 19.4765C17.8457 20.1245 17.5406 20.5222 17.1429 20.7528C16.7451 20.9817 16.2471 21.0468 15.5846 20.8994C14.9366 20.7562 14.1609 20.3928 13.3423 19.8237C14.061 19.1396 14.7271 18.4024 15.3351 17.6182C16.3168 17.4844 17.2869 17.2769 18.2374 16.9977V16.9977ZM11.0974 17.8248C11.3966 17.8351 11.6957 17.8445 12 17.8445C12.3043 17.8445 12.6034 17.8351 12.9026 17.8248C12.6026 18.1488 12.3009 18.4582 12 18.7368C11.6876 18.4444 11.3866 18.1402 11.0974 17.8248Z" fill="white"/>
</svg>
