<svg width="24" height="24" viewBox="0 0 24 24" fill="none" xmlns="http://www.w3.org/2000/svg">
<path d="M12.9091 19.4545V14H11.0909V19.4545H2V21.2727H22V19.4545H12.9091Z" fill="white"/>
<path d="M5 8C5.55228 8 6 7.55228 6 7C6 6.44772 5.55228 6 5 6C4.44772 6 4 6.44772 4 7C4 7.55228 4.44772 8 5 8Z" fill="white"/>
<path d="M22 11H2C1.46973 10.9995 0.961329 10.7886 0.586371 10.4136C0.211413 10.0387 0.000529477 9.53027 0 9V5C0.000529477 4.46973 0.211413 3.96133 0.586371 3.58637C0.961329 3.21141 1.46973 3.00053 2 3H22C22.5303 3.00053 23.0387 3.21141 23.4136 3.58637C23.7886 3.96133 23.9995 4.46973 24 5V9C23.9995 9.53027 23.7886 10.0387 23.4136 10.4136C23.0387 10.7886 22.5303 10.9995 22 11ZM2 5V9H22V5H2Z" fill="white"/>
</svg>
