<svg width="24" height="24" viewBox="0 0 24 24" fill="none" xmlns="http://www.w3.org/2000/svg">
<path d="M3.44444 11.7778H20.5556M3.44444 11.7778C2.79614 11.7778 2.17438 11.5202 1.71596 11.0618C1.25754 10.6034 1 9.98164 1 9.33333V4.44444C1 3.79614 1.25754 3.17438 1.71596 2.71596C2.17438 2.25754 2.79614 2 3.44444 2H20.5556C21.2039 2 21.8256 2.25754 22.284 2.71596C22.7425 3.17438 23 3.79614 23 4.44444V9.33333C23 9.98164 22.7425 10.6034 22.284 11.0618C21.8256 11.5202 21.2039 11.7778 20.5556 11.7778M3.44444 11.7778C2.79614 11.7778 2.17438 12.0353 1.71596 12.4937C1.25754 12.9522 1 13.5739 1 14.2222V19.1111C1 19.7594 1.25754 20.3812 1.71596 20.8396C2.17438 21.298 2.79614 21.5556 3.44444 21.5556H20.5556C21.2039 21.5556 21.8256 21.298 22.284 20.8396C22.7425 20.3812 23 19.7594 23 19.1111V14.2222C23 13.5739 22.7425 12.9522 22.284 12.4937C21.8256 12.0353 21.2039 11.7778 20.5556 11.7778M18.1111 6.88889H18.1233M18.1111 16.6667H18.1233" stroke="white" stroke-width="2" stroke-linecap="round" stroke-linejoin="round"/>
</svg>
