<svg width="24" height="24" viewBox="0 0 24 24" fill="none" xmlns="http://www.w3.org/2000/svg">
<g clip-path="url(#clip0_2_20)">
<path d="M3.99971 20.4852L4.33781 20.1471C7.14004 19.7702 9.96415 20.973 11.6568 23.226V23.6573C11.6568 23.7483 11.6929 23.8355 11.7573 23.8999C11.8216 23.9642 11.9088 24.0004 11.9998 24.0004C12.0908 24.0004 12.1781 23.9642 12.2424 23.8999C12.3067 23.8355 12.3429 23.7483 12.3429 23.6573V23.2077C13.1787 22.0928 14.2964 21.2207 15.5809 20.6809C16.8655 20.1412 18.2707 19.9533 19.652 20.1365L19.9901 20.4746C20.0317 20.5163 20.0818 20.5403 20.1348 20.5558L20.1552 20.56C20.2668 20.5862 20.3882 20.5614 20.475 20.4746C20.5618 20.3878 20.5865 20.2664 20.5604 20.1549L20.5562 20.1344C20.5419 20.08 20.5139 20.0302 20.475 19.9897L20.1369 19.6516C19.9536 18.2703 20.1415 16.8652 20.6813 15.5806C21.2211 14.296 22.0932 13.1783 23.208 12.3425H23.657C23.7479 12.3425 23.8352 12.3064 23.8995 12.242C23.9639 12.1777 24 12.0905 24 11.9995C24 11.9085 23.9639 11.8212 23.8995 11.7569C23.8352 11.6926 23.7479 11.6564 23.657 11.6564H23.2264C20.9726 9.96309 19.7705 7.13968 20.1475 4.33746L20.4856 3.99935C20.5175 3.96755 20.5428 3.92976 20.5601 3.88816C20.5773 3.84655 20.5862 3.80194 20.5862 3.75689C20.5862 3.71184 20.5773 3.66724 20.5601 3.62563C20.5428 3.58402 20.5175 3.54624 20.4856 3.51443C20.4403 3.47138 20.3838 3.44201 20.3225 3.42973C20.2661 3.41489 20.2068 3.41489 20.1504 3.42973C20.094 3.44458 20.0424 3.47375 20.0006 3.51443L19.6625 3.85254C16.8603 4.22946 14.0362 3.02669 12.3436 0.773613V0.343044C12.3436 0.252063 12.3074 0.164808 12.2431 0.100475C12.1788 0.0361419 12.0915 0 12.0005 0C11.9096 0 11.8223 0.0361419 11.758 0.100475C11.6936 0.164808 11.6575 0.252063 11.6575 0.343044V0.792671C10.8216 1.90763 9.70382 2.77984 8.4191 3.3196C7.13438 3.85937 5.72908 4.04722 4.34769 3.86383L4.00959 3.52573C3.96906 3.48677 3.91925 3.45883 3.86489 3.44455L3.84442 3.44032C3.78827 3.42602 3.72939 3.42637 3.67341 3.44132C3.61742 3.45628 3.56621 3.48534 3.52467 3.52573C3.48422 3.56723 3.45512 3.61844 3.44017 3.67444C3.42521 3.73043 3.4249 3.78933 3.43926 3.84548L3.4435 3.86595C3.45777 3.92031 3.48572 3.97012 3.52467 4.01065L3.86277 4.34875C4.04603 5.73002 3.85812 7.13518 3.31835 8.41976C2.77859 9.70435 1.90646 10.822 0.791612 11.6578H0.342691C0.251804 11.6578 0.164639 11.6939 0.100372 11.7582C0.0361048 11.8225 0 11.9096 0 12.0005C0 12.0914 0.0361048 12.1786 0.100372 12.2428C0.164639 12.3071 0.251804 12.3432 0.342691 12.3432H0.773966C3.02775 14.0366 4.22981 16.86 3.85289 19.6622L3.51479 20.0003C3.47393 20.042 3.44463 20.0936 3.42978 20.15C3.41493 20.2064 3.41503 20.2658 3.43008 20.3222C3.4442 20.3815 3.46891 20.4386 3.51479 20.4852C3.6489 20.6193 3.86559 20.6193 3.99971 20.4852V20.4852ZM4.60674 5.09272L6.16385 6.64982C6.23805 7.62414 6.07833 8.60209 5.69798 9.50217C5.34874 10.3205 4.82924 11.0551 4.17405 11.6571H1.84404C1.92944 11.5795 2.03532 11.4898 2.11508 11.4101C2.9397 10.583 3.5862 9.59576 4.01473 8.50927C4.44325 7.42278 4.64473 6.26004 4.60674 5.09272V5.09272ZM13.1461 10.8602C13.1849 11.276 13.3289 11.672 13.5675 12.015C13.4542 12.1759 13.361 12.3502 13.2901 12.5338C13.2189 12.7346 13.1745 12.9439 13.1581 13.1564C12.9492 13.1761 12.7417 13.2128 12.5398 13.2876C12.358 13.358 12.1855 13.4502 12.0259 13.5622C11.8576 13.4403 11.6742 13.3407 11.4803 13.2658C11.2802 13.1946 11.0716 13.1502 10.8599 13.1338C10.8224 12.7244 10.6807 12.3315 10.4484 11.9924C10.5585 11.8315 10.6566 11.6614 10.7258 11.4736C10.8006 11.2717 10.838 11.0642 10.8571 10.8553C11.0674 10.8362 11.2763 10.7988 11.4796 10.7233C11.6667 10.6541 11.8368 10.5567 11.9977 10.4466C12.3388 10.6804 12.7342 10.8228 13.1461 10.8602V10.8602ZM9.84768 12.3432C9.88792 12.3983 9.93168 12.4512 9.96486 12.5112C10.0785 12.7131 10.1484 12.9354 10.1738 13.1662C10.1801 13.2241 10.1738 13.2834 10.1738 13.342L9.08395 14.4318C9.01957 14.1126 8.93157 13.7986 8.82067 13.4923C8.67036 13.0918 8.48073 12.7071 8.25458 12.3439H9.84768V12.3432ZM10.6693 13.8156C10.7208 13.8163 10.7723 13.8093 10.8246 13.8156C10.965 13.8312 11.1048 13.8573 11.241 13.9081C11.3363 13.9434 11.4253 13.9893 11.5107 14.0394C11.5629 14.0697 11.6081 14.11 11.6568 14.1453V15.7454C11.2935 15.5194 10.9089 15.3298 10.5084 15.1793C10.2021 15.0684 9.88812 14.9804 9.56887 14.916L10.6693 13.8156V13.8156ZM12.3422 15.7708V14.1841C12.4057 14.1361 12.4678 14.0867 12.537 14.0486C12.7381 13.9356 12.9605 13.8657 13.1906 13.8396C13.2442 13.8333 13.2993 13.8403 13.3536 13.8396L14.44 14.9259C14.1207 14.9903 13.8067 15.0783 13.5005 15.1892C13.0968 15.3458 12.7089 15.5406 12.3422 15.7708V15.7708ZM13.8407 13.3568C13.8414 13.3004 13.8343 13.2446 13.8407 13.1881C13.8562 13.0477 13.883 12.9079 13.9332 12.7717C13.9649 12.687 14.0073 12.6086 14.0503 12.531C14.0877 12.4639 14.1357 12.4039 14.1809 12.3432H15.7698C15.5396 12.7101 15.3446 13.0979 15.1874 13.5015C15.0765 13.8077 14.9885 14.1218 14.9242 14.441L13.8407 13.3568V13.3568ZM14.1562 11.6578C14.1181 11.6056 14.0764 11.5562 14.044 11.5004C13.9263 11.2942 13.8523 11.0659 13.8266 10.8299C13.8202 10.7734 13.8266 10.7155 13.8266 10.6584L14.9143 9.57064C14.9806 9.88686 15.0632 10.2017 15.1776 10.5101C15.3286 10.916 15.5206 11.2979 15.7437 11.6585H14.1562V11.6578ZM13.3367 10.1791C13.2831 10.1784 13.2294 10.1847 13.1765 10.1791C12.9437 10.1544 12.7185 10.0826 12.5144 9.96803C12.4537 9.93415 12.3993 9.88968 12.3429 9.84804V8.25634C12.7029 8.47868 13.0854 8.67138 13.4913 8.82243C13.7997 8.93678 14.1146 9.01937 14.4308 9.08572L13.3367 10.1791ZM11.6568 8.22952V9.84027C11.5982 9.88333 11.5417 9.9285 11.4782 9.9638C11.4024 10.008 11.3233 10.0465 11.2417 10.0788C11.1073 10.1268 10.9674 10.1579 10.8253 10.1713C10.7688 10.1777 10.7131 10.1706 10.6566 10.1713L9.55899 9.07372C9.87824 9.00934 10.1923 8.92133 10.4985 8.81043C10.9024 8.65464 11.2903 8.4601 11.6568 8.22952V8.22952ZM10.1738 10.6591C10.1731 10.7134 10.1794 10.7678 10.1738 10.8221C10.1485 11.0525 10.0772 11.2755 9.96415 11.4778C9.92815 11.5414 9.88227 11.5985 9.83851 11.6578H8.22917C8.44798 11.3014 8.66256 10.899 8.81149 10.4995C8.92584 10.1911 9.00843 9.87627 9.07478 9.56005L10.1738 10.6591V10.6591ZM8.17835 13.7302C8.33575 14.1537 8.43528 14.5878 8.49033 15.0247L8.0527 15.4624L6.87111 16.644C6.84338 15.8112 6.66373 14.9904 6.34102 14.2222C6.05042 13.5355 5.64963 12.9008 5.15448 12.3432H7.43014C7.7414 12.7694 7.99312 13.236 8.17835 13.7302V13.7302ZM8.53762 15.9473L8.97525 15.5097C9.41736 15.5633 9.85176 15.668 10.2698 15.8217C10.7642 16.0063 11.2309 16.2581 11.6568 16.5699V18.8455C11.0993 18.3503 10.4646 17.9495 9.7778 17.659C9.00957 17.3363 8.18883 17.1566 7.35603 17.1289L8.53762 15.9473V15.9473ZM12.3422 18.8695V16.5974C12.7719 16.2814 13.2416 16.0239 13.739 15.8315C14.1571 15.678 14.5915 15.5733 15.0336 15.5196L16.6528 17.1388C15.82 17.1665 14.9993 17.3462 14.231 17.6689C13.5421 17.9671 12.9046 18.3723 12.3422 18.8695V18.8695ZM15.9568 15.473L15.5192 15.0353C15.5729 14.5932 15.6776 14.1588 15.8312 13.7408C16.0147 13.2467 16.2949 12.7611 16.597 12.3439H18.8692C18.3713 12.9062 17.966 13.544 17.6685 14.2335C17.3458 15.0017 17.1662 15.8225 17.1384 16.6553L15.9568 15.473ZM16.5695 11.6578C16.2577 11.232 16.006 10.7653 15.8213 10.2708C15.6678 9.8528 15.5631 9.4184 15.5093 8.97631L15.9469 8.53868L17.1285 7.35709C17.1563 8.18989 17.3359 9.01062 17.6586 9.77886C17.953 10.4777 18.3574 11.1059 18.8452 11.6578H16.5695V11.6578ZM15.4613 8.05376L15.0237 8.49139C14.5816 8.43772 14.1472 8.33302 13.7292 8.1794C13.2347 7.99475 12.768 7.74299 12.3422 7.4312V5.15483C12.8997 5.65008 13.5343 6.05087 14.2211 6.34137C14.9894 6.66408 15.8101 6.84373 16.6429 6.87146L15.4613 8.05376V8.05376ZM11.6568 5.13083V7.40297C11.2271 7.71893 10.7574 7.97646 10.2599 8.16882C9.83639 8.32622 9.40229 8.42575 8.96537 8.4808L8.52774 8.04317L7.34615 6.86158C8.17895 6.83385 8.99968 6.6542 9.76792 6.33149C10.4571 6.03378 11.0947 5.62852 11.6568 5.13083V5.13083ZM8.48045 8.96572C8.42678 9.40783 8.32208 9.84223 8.16846 10.2603C7.98494 10.7543 7.70472 11.24 7.40262 11.6571H5.13048C5.62832 11.0949 6.0336 10.4571 6.33113 9.76757C6.65385 8.99933 6.83349 8.1786 6.86123 7.34579L8.48045 8.96572V8.96572ZM2.12497 12.5804C2.04167 12.4971 1.94921 12.423 1.86309 12.3432H4.19523C4.88203 12.972 5.4171 13.7485 5.76007 14.6142C6.10304 15.4799 6.24497 16.4121 6.17514 17.3406L5.48411 18.031L4.61662 18.8985C4.65483 17.731 4.45346 16.5681 4.02493 15.4815C3.59639 14.3948 2.94978 13.4075 2.12497 12.5804V12.5804ZM11.4196 21.875C10.5924 21.0504 9.60504 20.4039 8.51843 19.9754C7.43183 19.5468 6.26897 19.3454 5.10154 19.3834L5.96903 18.5159L6.65865 17.8263C7.58716 17.7567 8.51936 17.8987 9.38501 18.2416C10.2507 18.5846 11.0272 19.1195 11.6561 19.8062V22.1383C11.577 22.0501 11.5029 21.9576 11.4196 21.875V21.875ZM12.5892 21.8849C12.5094 21.9647 12.4198 22.0713 12.3422 22.156V19.8259C12.9441 19.1707 13.6787 18.6512 14.4971 18.302C15.3974 17.9224 16.3752 17.7627 17.3495 17.8362L18.9066 19.3933C17.7393 19.3554 16.5766 19.5569 15.4901 19.9855C14.4036 20.414 13.4164 21.0604 12.5892 21.8849V21.8849ZM19.3922 18.9083L18.5247 18.0409L17.8351 17.3512C17.7609 16.3769 17.9206 15.399 18.301 14.4989C18.6502 13.6805 19.1697 12.9459 19.8249 12.3439H22.1549C22.0695 12.4216 21.9636 12.5112 21.8839 12.591C21.0592 13.4181 20.4127 14.4053 19.9842 15.4918C19.5557 16.5783 19.3542 17.741 19.3922 18.9083V18.9083ZM21.874 11.4207C21.9573 11.504 22.0497 11.5781 22.1358 11.6578H19.8037C19.1169 11.0291 18.5818 10.2526 18.2389 9.38689C17.8959 8.5212 17.754 7.58894 17.8238 6.66041L18.5134 5.9708L19.3809 5.1033C19.3436 6.27067 19.5455 7.43333 19.9743 8.51975C20.403 9.60617 21.0495 10.5934 21.874 11.4207V11.4207ZM12.5793 2.12602C13.4066 2.95066 14.3939 3.59717 15.4805 4.02569C16.5671 4.45421 17.73 4.65568 18.8974 4.61768L18.0299 5.48517L17.3403 6.17479C16.4118 6.2444 15.4796 6.10238 14.6139 5.75942C13.7483 5.41646 12.9718 4.88151 12.3429 4.19487V1.86415C12.4219 1.95027 12.496 2.04344 12.5793 2.12602V2.12602ZM11.4097 2.11614C11.4895 2.03638 11.5791 1.9298 11.6568 1.84509V4.17511C11.0548 4.83036 10.3202 5.34987 9.50182 5.69904C8.60154 6.0787 7.62376 6.2384 6.64947 6.1649L5.95915 5.47529L5.09166 4.6078C6.25908 4.64572 7.42191 4.44421 8.5085 4.01569C9.5951 3.58717 10.5824 2.94071 11.4097 2.11614V2.11614Z" fill="white"/>
</g>
<defs>
<clipPath id="clip0_2_20">
<rect width="24" height="24" fill="white"/>
</clipPath>
</defs>
</svg>
