<svg width="24" height="24" viewBox="0 0 24 24" fill="none" xmlns="http://www.w3.org/2000/svg">
<path d="M1 17.1102L22.6973 6L23 7.05557L1.36277 18L1 17.1102Z" fill="white"/>
<path d="M1.18346 7.12039L22.8165 18L23 17.0155L1 6L1.18346 7.12039Z" fill="white"/>
<path d="M13 2L11 2.14054V23L12.847 22.8575L13 2Z" fill="white"/>
<path d="M17.674 12.1105C17.6437 10.9168 18.1385 9.5167 17.8879 9.15029C17.6437 8.79738 15.8506 8.30948 14.8157 7.79265C13.9602 7.36646 12.5645 5.95483 11.9272 6.00111C11.1667 6.05511 10.376 7.19483 9.12939 7.81965C7.88281 8.44447 6.40722 8.55632 6.08747 9.09629C5.81309 9.5572 6.26895 10.8878 6.30135 11.8926C6.34672 13.3852 5.8455 14.7158 6.08747 15.0417C6.3316 15.3677 7.87417 15.5682 9.00624 16.2085C10.2528 16.9143 11.3784 18 11.9574 18C12.5364 18 13.7614 16.6886 14.9993 16.1545C15.9413 15.7476 17.4623 15.1497 17.8576 14.8238C18.2508 14.4979 17.7086 13.4392 17.674 12.1105V12.1105ZM16.7623 14.2549C16.5484 14.4728 15.2197 15.1035 14.3599 15.5046C13.5994 15.8575 12.504 16.7812 11.8969 16.8082C11.2574 16.8352 10.309 15.9751 9.61549 15.5856C8.79452 15.1247 7.24763 14.7158 7.09208 14.3918C6.9106 14.0119 7.24331 12.5733 7.24331 11.7036C7.24331 10.9708 6.96893 9.80404 7.15257 9.50513C7.33405 9.20621 8.79452 8.8803 9.67598 8.4464C10.7411 7.92186 11.3784 7.22376 11.9574 7.22376C12.504 7.22376 13.4179 8.01057 14.2691 8.4464C15.2392 8.94009 16.5506 9.45113 16.7623 9.77704C16.9762 10.1029 16.732 11.2697 16.7623 12.0295C16.7947 12.8684 16.974 14.037 16.7623 14.2549V14.2549Z" fill="white"/>
<path d="M22.0404 11.6995C22.2392 8.96738 23.3819 7.10478 23.5558 6.79265C23.7297 6.48053 24.1872 6.03262 23.916 5.51782C23.6593 5.03342 22.9844 5.19353 22.3613 5.19353C21.9328 5.19353 18.7798 4.9564 17.0574 4.19434C15.25 3.39579 13.4427 1.7683 13.1218 1.1704C12.801 0.572502 12.5091 0.0293279 12.0143 0.000953131C11.4615 -0.0314752 11.0827 0.771125 10.8487 1.25552C10.6148 1.73992 9.15736 3.16677 7.41008 4.02409C5.5448 4.93816 2.42703 5.30906 1.75628 5.33743C1.19939 5.36176 0.443752 5.25231 0.211886 5.70833C0.0131442 6.09747 0.51207 6.66497 0.795692 7.13518C1.08759 7.61958 2.10822 9.81659 2.04818 12.1291C1.97986 14.8105 0.824675 16.665 0.590739 17.0359C0.356803 17.4068 -0.229073 17.9601 0.0959535 18.5094C0.387856 19.0039 1.02756 18.8621 1.5534 18.8337C2.19931 18.7992 5.25497 19.0039 7.0333 19.8613C8.5073 20.5706 10.0351 22.0299 10.6479 22.7149C11.2607 23.4 11.4843 24.008 12.0474 23.9999C12.7264 23.9878 12.921 23.2297 13.2916 22.7149C13.5442 22.3643 15.1962 20.5463 17.1774 19.691C18.6452 19.0566 21.7816 18.8195 22.1025 18.8073C22.7733 18.779 23.5889 18.9492 23.8229 18.4932C24.0568 18.0372 23.4813 17.3623 23.2991 17.0663C22.7981 16.2658 21.8665 14.0971 22.0404 11.6995ZM21.6326 17.3501C21.1129 18.1142 18.5728 17.8629 16.5605 18.7769C14.5275 19.6991 13.0618 21.8819 12.0433 21.9164C11.1696 21.9448 9.53621 19.6626 7.46805 18.8073C5.27153 17.8993 2.42703 17.9804 2.10615 17.3521C1.78526 16.7238 3.27169 14.614 3.21372 12.0744C3.15783 9.64837 1.86807 7.28719 2.28212 6.68118C2.68995 6.08126 6.01268 5.96776 7.791 5.16921C9.26294 4.50849 11.4056 2.31552 12.0453 2.31552C12.803 2.31552 14.5979 4.17812 16.1837 5.00707C17.7675 5.83399 21.2247 6.25353 21.6057 6.85143C21.9845 7.45135 20.7672 9.93212 20.79 11.9873C20.8169 14.6383 22.0404 16.7502 21.6326 17.3501V17.3501Z" fill="white"/>
</svg>
