<svg width="24" height="27" viewBox="0 0 24 27" fill="none" xmlns="http://www.w3.org/2000/svg">
<g clip-path="url(#clip0_66_90)">
<path d="M11.9739 12.2133L11.2179 14.6107C10.8147 16.0989 10.849 16.5683 11.0535 16.9146C11.1039 16.9997 11.242 17.2783 11.4348 18.0224C11.7149 19.0994 11.9615 20.7256 11.9675 20.8034C11.927 21.7975 11.9489 22.8507 12.0293 23.8591H2.05137C0.923162 23.8591 0 22.936 0 21.8078V3.24262C0 2.11441 0.923109 1.19109 2.05137 1.19109H17.4055C15.0539 3.68568 12.7239 8.41918 11.9739 12.2133V12.2133ZM22.8125 0.583545C25.6262 3.09354 22.8322 8.83169 20.2676 12.8709C18.4028 13.4702 16.2293 14.7938 16.2293 14.7938C16.2293 14.7938 16.4101 14.6978 17.0811 14.4164C17.5359 14.2251 18.8941 13.9022 19.7211 13.7136C18.3404 15.7954 17.1589 17.2524 17.1589 17.2524C17.1589 17.2524 14.75 18.2314 14.005 20.5087C14.4368 18.0795 15.1533 15.5441 16.1644 12.8423C17.0674 10.4296 20.0838 3.91425 22.3126 1.90145C19.8673 3.85043 17.1955 7.93142 15.2698 13.0179C14.13 16.3873 13.5131 19.6201 13.4126 22.3008C13.3463 24.0545 13.4979 25.5753 13.8711 26.7356L13.6986 26.8297C13.3324 25.8795 12.9964 24.2098 13.0768 20.788C13.0648 20.6354 13.0576 20.5362 13.0576 20.5362C13.0576 20.5362 12.8353 19.0392 12.5156 17.8095C12.374 17.2636 12.2128 16.77 12.0436 16.484C11.9564 16.3364 12.053 15.73 12.2964 14.8319C12.7085 15.5494 13.153 16.3261 13.3238 16.9617C13.3238 16.9617 12.9945 15.2675 12.4542 14.2788C12.5726 13.8792 12.7141 13.4374 12.8742 12.9651C13.2727 13.6621 13.6792 14.3252 13.8413 14.9894C13.664 14.1409 13.4239 13.2958 13.05 12.458C13.7296 8.92114 15.9173 4.28987 18.2742 1.78957C19.5322 0.447195 21.2659 -0.75422 22.8125 0.583545V0.583545Z" fill="white"/>
</g>
<defs>
<clipPath id="clip0_66_90">
<rect width="24" height="26.8297" fill="white"/>
</clipPath>
</defs>
</svg>
