<svg width="26" height="29" viewBox="0 0 26 29" fill="none" xmlns="http://www.w3.org/2000/svg">
<g clip-path="url(#clip0_66_92)">
<path d="M12.4962 13.2461L11.7072 15.748C11.2865 17.3011 11.3222 17.791 11.5356 18.1524C11.5883 18.2412 11.7323 18.5319 11.9336 19.3085C12.2259 20.4325 12.4832 22.1297 12.4895 22.2109C12.4473 23.2483 12.4701 24.3475 12.554 25.3999H2.14085C0.96343 25.3999 0 24.4364 0 23.2591V3.88405C0 2.70663 0.963375 1.74304 2.14085 1.74304H18.1647C15.7106 4.34644 13.2789 9.28641 12.4962 13.2461V13.2461ZM23.8075 1.10899C26.744 3.72847 23.8281 9.71691 21.1516 13.9323C19.2055 14.5577 16.9372 15.9391 16.9372 15.9391C16.9372 15.9391 17.1259 15.8389 17.8262 15.5452C18.3008 15.3456 19.7182 15.0086 20.5814 14.8118C19.1404 16.9843 17.9074 18.505 17.9074 18.505C17.9074 18.505 15.3934 19.5266 14.6159 21.9033C15.0665 19.3681 15.8143 16.7222 16.8695 13.9025C17.8118 11.3846 20.9599 4.58498 23.2858 2.48438C20.7339 4.51837 17.9456 8.77738 15.9358 14.0857C14.7463 17.6021 14.1025 20.9759 13.9977 23.7735C13.9284 25.6037 14.0866 27.1908 14.4762 28.4018L14.2961 28.5C13.914 27.5084 13.5633 25.7658 13.6472 22.1948C13.6346 22.0355 13.6271 21.932 13.6271 21.932C13.6271 21.932 13.3952 20.3697 13.0615 19.0863C12.9137 18.5166 12.7455 18.0015 12.5689 17.703C12.4779 17.5489 12.5788 16.9161 12.8328 15.9789C13.2628 16.7276 13.7268 17.5383 13.905 18.2015C13.905 18.2015 13.5614 16.4335 12.9975 15.4017C13.1211 14.9846 13.2687 14.5236 13.4358 14.0307C13.8517 14.758 14.2758 15.4501 14.445 16.1432C14.26 15.2577 14.0095 14.3757 13.6192 13.5015C14.3285 9.81026 16.6117 4.97698 19.0713 2.36762C20.3842 0.966693 22.1936 -0.287128 23.8075 1.10899V1.10899Z" fill="url(#paint0_linear_66_92)"/>
</g>
<defs>
<linearGradient id="paint0_linear_66_92" x1="12.5174" y1="0.5" x2="12.5174" y2="28.5" gradientUnits="userSpaceOnUse">
<stop stop-color="#95D9F8"/>
<stop offset="1" stop-color="#0F80CC" stop-opacity="0"/>
</linearGradient>
<clipPath id="clip0_66_92">
<rect width="25.0469" height="28" fill="white" transform="translate(0 0.5)"/>
</clipPath>
</defs>
</svg>
