<svg width="24" height="28" viewBox="0 0 24 28" fill="none" xmlns="http://www.w3.org/2000/svg">
<path d="M2.57143 1.71429C1.15179 1.71429 0 2.86607 0 4.28571V23.1429C0 24.5625 1.15179 25.7143 2.57143 25.7143H21.4286C22.8482 25.7143 24 24.5625 24 23.1429V4.28571C24 2.86607 22.8482 1.71429 21.4286 1.71429H2.57143ZM14.6822 5.14286L19.2353 11.2795L18.008 12.19L13.4551 6.05341L14.6822 5.14286ZM11.8517 7.59761L17.7309 12.487L16.7607 13.655L10.8817 8.7652L11.8517 7.59761V7.59761ZM9.59491 10.7648L16.5235 14.011L15.8901 15.3968L8.9617 12.1703L9.59491 10.7648V10.7648ZM8.28857 14.2291L15.7711 15.7926L15.4543 17.2975L7.97196 15.7334L8.28857 14.229V14.2291ZM4.76464 16.1689H6.28929V20.7617H16.9985V16.1689H18.5226V22.2857H4.76464V16.1688V16.1689ZM7.81334 17.6934H15.4542V19.2175H7.81339V17.6934H7.81334Z" fill="white"/>
</svg>
