<svg width="24" height="24" viewBox="0 0 24 24" fill="none" xmlns="http://www.w3.org/2000/svg">
<path d="M21.6 22.6H2.4C1.76348 22.6 1.15303 22.3471 0.702944 21.8971C0.252856 21.447 0 20.8365 0 20.2V3.4C0 2.76348 0.252856 2.15303 0.702944 1.70294C1.15303 1.25286 1.76348 1 2.4 1H21.6C22.2365 1 22.847 1.25286 23.2971 1.70294C23.7471 2.15303 24 2.76348 24 3.4V20.2C24 20.8365 23.7471 21.447 23.2971 21.8971C22.847 22.3471 22.2365 22.6 21.6 22.6ZM2.4 5.8V20.2H21.6V5.8H2.4ZM15.2484 17.4484L13.5528 15.7528L16.3032 13L13.5516 10.2484L15.2484 8.5516L19.6968 13L15.2496 17.4472L15.2484 17.4484V17.4484ZM8.7516 17.4484L4.3032 13L8.7516 8.5516L10.4484 10.2484L7.6968 13L10.4472 15.7516L8.7516 17.4472V17.4484V17.4484Z" fill="white"/>
</svg>
