<svg width="24" height="24" viewBox="0 0 24 24" fill="none" xmlns="http://www.w3.org/2000/svg">
<path d="M12 0C5.3836 0 0 5.3836 0 12C0 18.6172 5.3836 24 12 24C18.6168 24 24 18.6172 24 12C24 5.3836 18.6172 0 12 0ZM20.0188 18.4816C19.545 18.0521 19.0377 17.6611 18.5016 17.3124C19.1737 15.9535 19.5825 14.4797 19.7064 12.9688H22.2704C22.0807 14.9884 21.2972 16.9067 20.0188 18.4816ZM1.7304 12.9688H4.2492C4.37414 14.4879 4.78666 15.9694 5.4648 17.3344C4.94132 17.6778 4.4453 18.0614 3.9812 18.4816C2.70267 16.9068 1.91944 14.9884 1.7304 12.9688ZM3.9812 5.5188C4.4448 5.9395 4.94087 6.32295 5.4648 6.6656C4.74818 8.10696 4.32867 9.67768 4.2312 11.2844H1.7092C1.85466 9.17441 2.64814 7.16081 3.9812 5.5188ZM11.158 3.0236V6.8828C10.0022 6.79195 8.87031 6.50449 7.8112 6.0328C8.69207 4.79594 9.83479 3.76849 11.158 3.0236ZM11.158 8.5712V11.2844H5.9188C6.01135 9.96514 6.35869 8.67631 6.9416 7.4892C8.26832 8.10677 9.69784 8.47361 11.158 8.5712ZM11.158 12.9688V15.4288C9.69289 15.5271 8.25873 15.8964 6.9284 16.518C6.38784 15.4041 6.05273 14.2017 5.9392 12.9688H11.158ZM11.158 17.118V20.9852C9.8258 20.2459 8.67606 19.2177 7.7932 17.976C8.85733 17.4992 9.99551 17.209 11.158 17.118ZM12.842 20.95V17.118C14 17.21 15.1148 17.4932 16.1528 17.9516C15.2807 19.1802 14.1508 20.2035 12.842 20.95ZM12.842 15.4288V12.9688H18.0156C17.8985 14.194 17.5614 15.3881 17.0204 16.4936C15.7042 15.8867 14.2881 15.5258 12.842 15.4288ZM12.842 11.2844V8.5712C14.2888 8.47467 15.7057 8.11378 17.0224 7.5064C17.6 8.68887 17.9443 9.97161 18.0364 11.2844H12.842ZM12.842 6.8828V3.0492C14.1517 3.79536 15.2824 4.81869 16.1552 6.0476C15.1057 6.51068 13.9856 6.79305 12.842 6.8828ZM17.0132 4.3864C16.2229 3.43024 15.2895 2.60206 14.246 1.9312C15.9592 2.3145 17.5459 3.12968 18.8552 4.2992C18.4768 4.63985 18.0736 4.95179 17.6488 5.2324C17.4501 4.94077 17.238 4.65847 17.0132 4.3864ZM6.942 4.3868C6.72272 4.65266 6.51519 4.92799 6.32 5.212C5.9067 4.93653 5.51381 4.63161 5.1444 4.2996C6.43639 3.14568 7.99858 2.33632 9.6864 1.9464C8.65188 2.61434 7.72626 3.43743 6.942 4.3868ZM6.3204 18.7884C6.4836 19.026 6.6556 19.258 6.8368 19.4836C7.64341 20.4879 8.60623 21.3561 9.6884 22.0548C7.99992 21.6652 6.4371 20.8556 5.1448 19.7012C5.51409 19.3689 5.90698 19.0638 6.3204 18.7884ZM17.0296 19.5936C17.2481 19.3274 17.4551 19.0519 17.65 18.768C18.0744 19.0488 18.4774 19.3607 18.8556 19.7012C17.5461 20.8705 15.9595 21.6856 14.2464 22.0692C15.297 21.3935 16.236 20.5583 17.0296 19.5936ZM19.7244 11.2844C19.628 9.68583 19.2122 8.1228 18.5016 6.6876C19.0378 6.33917 19.5451 5.94832 20.0188 5.5188C21.3521 7.16067 22.1456 9.17435 22.2908 11.2844H19.7244Z" fill="white"/>
</svg>
