<svg width="24" height="24" viewBox="0 0 24 24" fill="none" xmlns="http://www.w3.org/2000/svg">
<path fill-rule="evenodd" clip-rule="evenodd" d="M18.5 4C18.5 2.93913 18.2452 1.92172 17.4951 1.17157C16.7449 0.421427 15.7275 0 14.6667 0H9.33333C8.27247 0 7.25505 0.421427 6.50491 1.17157C5.75476 1.92172 5.5 2.93913 5.5 4H4C2.93913 4 1.75015 4.24985 1 5C0.249854 5.75015 0 6.93913 0 8V18.6667C0 19.7275 0.249854 20.7499 1 21.5C1.75015 22.2501 2.93913 22.6667 4 22.6667H20C21.0609 22.6667 22.2499 22.2501 23 21.5C23.7501 20.7499 24 19.7275 24 18.6667V8C24 6.93913 23.7501 5.75015 23 5C22.2499 4.24985 21.0609 4 20 4H18.5ZM14.6667 1.5H9.33333C8.97971 1.5 8 1.5 7.5 2C7 2.5 7 3.64638 7 4L17 4C17 3.64638 17 2.5 16.5 2C16 1.5 15.0203 1.5 14.6667 1.5ZM4 6H20C20.3536 6 21 6 21.5 6.5C22 7 22 7.64638 22 8V18.5C22 18.8536 22 19.5 21.5 20C21 20.5 20.3536 20.5 20 20.5H4C3.64638 20.5 3.0366 20.5366 2.5 20C1.9634 19.4634 2 18.8536 2 18.5V8C2 7.64638 2 7 2.5 6.5C3 6 3.64638 6 4 6Z" fill="white"/>
</svg>
